G04 #@! TF.GenerationSoftware,KiCad,Pcbnew,(5.1.5)-3*
G04 #@! TF.CreationDate,2020-04-18T23:18:02+01:00*
G04 #@! TF.ProjectId,langpie,6c616e67-7069-4652-9e6b-696361645f70,rev?*
G04 #@! TF.SameCoordinates,Original*
G04 #@! TF.FileFunction,Legend,Top*
G04 #@! TF.FilePolarity,Positive*
%FSLAX46Y46*%
G04 Gerber Fmt 4.6, Leading zero omitted, Abs format (unit mm)*
G04 Created by KiCad (PCBNEW (5.1.5)-3) date 2020-04-18 23:18:02*
%MOMM*%
%LPD*%
G04 APERTURE LIST*
%ADD10C,0.200000*%
%ADD11C,0.120000*%
%ADD12C,0.150000*%
%ADD13C,0.500000*%
G04 APERTURE END LIST*
D10*
X98322142Y-107509571D02*
X98322142Y-106009571D01*
X98893571Y-106009571D01*
X99036428Y-106081000D01*
X99107857Y-106152428D01*
X99179285Y-106295285D01*
X99179285Y-106509571D01*
X99107857Y-106652428D01*
X99036428Y-106723857D01*
X98893571Y-106795285D01*
X98322142Y-106795285D01*
X99679285Y-106009571D02*
X100036428Y-107509571D01*
X100322142Y-106438142D01*
X100607857Y-107509571D01*
X100965000Y-106009571D01*
X102393571Y-107509571D02*
X101893571Y-106795285D01*
X101536428Y-107509571D02*
X101536428Y-106009571D01*
X102107857Y-106009571D01*
X102250714Y-106081000D01*
X102322142Y-106152428D01*
X102393571Y-106295285D01*
X102393571Y-106509571D01*
X102322142Y-106652428D01*
X102250714Y-106723857D01*
X102107857Y-106795285D01*
X101536428Y-106795285D01*
X104107857Y-107438142D02*
X104322142Y-107509571D01*
X104679285Y-107509571D01*
X104822142Y-107438142D01*
X104893571Y-107366714D01*
X104965000Y-107223857D01*
X104965000Y-107081000D01*
X104893571Y-106938142D01*
X104822142Y-106866714D01*
X104679285Y-106795285D01*
X104393571Y-106723857D01*
X104250714Y-106652428D01*
X104179285Y-106581000D01*
X104107857Y-106438142D01*
X104107857Y-106295285D01*
X104179285Y-106152428D01*
X104250714Y-106081000D01*
X104393571Y-106009571D01*
X104750714Y-106009571D01*
X104965000Y-106081000D01*
X105465000Y-106009571D02*
X105822142Y-107509571D01*
X106107857Y-106438142D01*
X106393571Y-107509571D01*
X106750714Y-106009571D01*
X98215000Y-89809571D02*
X98215000Y-91023857D01*
X98286428Y-91166714D01*
X98357857Y-91238142D01*
X98500714Y-91309571D01*
X98786428Y-91309571D01*
X98929285Y-91238142D01*
X99000714Y-91166714D01*
X99072142Y-91023857D01*
X99072142Y-89809571D01*
X99715000Y-91238142D02*
X99929285Y-91309571D01*
X100286428Y-91309571D01*
X100429285Y-91238142D01*
X100500714Y-91166714D01*
X100572142Y-91023857D01*
X100572142Y-90881000D01*
X100500714Y-90738142D01*
X100429285Y-90666714D01*
X100286428Y-90595285D01*
X100000714Y-90523857D01*
X99857857Y-90452428D01*
X99786428Y-90381000D01*
X99715000Y-90238142D01*
X99715000Y-90095285D01*
X99786428Y-89952428D01*
X99857857Y-89881000D01*
X100000714Y-89809571D01*
X100357857Y-89809571D01*
X100572142Y-89881000D01*
X101715000Y-90523857D02*
X101929285Y-90595285D01*
X102000714Y-90666714D01*
X102072142Y-90809571D01*
X102072142Y-91023857D01*
X102000714Y-91166714D01*
X101929285Y-91238142D01*
X101786428Y-91309571D01*
X101215000Y-91309571D01*
X101215000Y-89809571D01*
X101715000Y-89809571D01*
X101857857Y-89881000D01*
X101929285Y-89952428D01*
X102000714Y-90095285D01*
X102000714Y-90238142D01*
X101929285Y-90381000D01*
X101857857Y-90452428D01*
X101715000Y-90523857D01*
X101215000Y-90523857D01*
X104715000Y-91166714D02*
X104643571Y-91238142D01*
X104429285Y-91309571D01*
X104286428Y-91309571D01*
X104072142Y-91238142D01*
X103929285Y-91095285D01*
X103857857Y-90952428D01*
X103786428Y-90666714D01*
X103786428Y-90452428D01*
X103857857Y-90166714D01*
X103929285Y-90023857D01*
X104072142Y-89881000D01*
X104286428Y-89809571D01*
X104429285Y-89809571D01*
X104643571Y-89881000D01*
X104715000Y-89952428D01*
X105357857Y-91309571D02*
X105357857Y-89809571D01*
X105357857Y-90523857D02*
X106215000Y-90523857D01*
X106215000Y-91309571D02*
X106215000Y-89809571D01*
X107715000Y-89881000D02*
X107572142Y-89809571D01*
X107357857Y-89809571D01*
X107143571Y-89881000D01*
X107000714Y-90023857D01*
X106929285Y-90166714D01*
X106857857Y-90452428D01*
X106857857Y-90666714D01*
X106929285Y-90952428D01*
X107000714Y-91095285D01*
X107143571Y-91238142D01*
X107357857Y-91309571D01*
X107500714Y-91309571D01*
X107715000Y-91238142D01*
X107786428Y-91166714D01*
X107786428Y-90666714D01*
X107500714Y-90666714D01*
X109972142Y-78581000D02*
X110686428Y-78581000D01*
X109829285Y-79009571D02*
X110329285Y-77509571D01*
X110829285Y-79009571D01*
X111257857Y-78938142D02*
X111400714Y-79009571D01*
X111686428Y-79009571D01*
X111829285Y-78938142D01*
X111900714Y-78795285D01*
X111900714Y-78723857D01*
X111829285Y-78581000D01*
X111686428Y-78509571D01*
X111472142Y-78509571D01*
X111329285Y-78438142D01*
X111257857Y-78295285D01*
X111257857Y-78223857D01*
X111329285Y-78081000D01*
X111472142Y-78009571D01*
X111686428Y-78009571D01*
X111829285Y-78081000D01*
X114543571Y-79009571D02*
X114043571Y-78295285D01*
X113686428Y-79009571D02*
X113686428Y-77509571D01*
X114257857Y-77509571D01*
X114400714Y-77581000D01*
X114472142Y-77652428D01*
X114543571Y-77795285D01*
X114543571Y-78009571D01*
X114472142Y-78152428D01*
X114400714Y-78223857D01*
X114257857Y-78295285D01*
X113686428Y-78295285D01*
X115186428Y-79009571D02*
X115186428Y-77509571D01*
X115757857Y-77509571D01*
X115900714Y-77581000D01*
X115972142Y-77652428D01*
X116043571Y-77795285D01*
X116043571Y-78009571D01*
X115972142Y-78152428D01*
X115900714Y-78223857D01*
X115757857Y-78295285D01*
X115186428Y-78295285D01*
X116686428Y-79009571D02*
X116686428Y-78009571D01*
X116686428Y-77509571D02*
X116615000Y-77581000D01*
X116686428Y-77652428D01*
X116757857Y-77581000D01*
X116686428Y-77509571D01*
X116686428Y-77652428D01*
X118543571Y-79009571D02*
X118543571Y-77509571D01*
X119115000Y-77509571D01*
X119257857Y-77581000D01*
X119329285Y-77652428D01*
X119400714Y-77795285D01*
X119400714Y-78009571D01*
X119329285Y-78152428D01*
X119257857Y-78223857D01*
X119115000Y-78295285D01*
X118543571Y-78295285D01*
X120043571Y-79009571D02*
X120043571Y-78009571D01*
X120043571Y-77509571D02*
X119972142Y-77581000D01*
X120043571Y-77652428D01*
X120115000Y-77581000D01*
X120043571Y-77509571D01*
X120043571Y-77652428D01*
X120757857Y-78009571D02*
X120757857Y-79009571D01*
X120757857Y-78152428D02*
X120829285Y-78081000D01*
X120972142Y-78009571D01*
X121186428Y-78009571D01*
X121329285Y-78081000D01*
X121400714Y-78223857D01*
X121400714Y-79009571D01*
X122329285Y-79009571D02*
X122186428Y-78938142D01*
X122115000Y-78866714D01*
X122043571Y-78723857D01*
X122043571Y-78295285D01*
X122115000Y-78152428D01*
X122186428Y-78081000D01*
X122329285Y-78009571D01*
X122543571Y-78009571D01*
X122686428Y-78081000D01*
X122757857Y-78152428D01*
X122829285Y-78295285D01*
X122829285Y-78723857D01*
X122757857Y-78866714D01*
X122686428Y-78938142D01*
X122543571Y-79009571D01*
X122329285Y-79009571D01*
X124115000Y-78009571D02*
X124115000Y-79009571D01*
X123472142Y-78009571D02*
X123472142Y-78795285D01*
X123543571Y-78938142D01*
X123686428Y-79009571D01*
X123900714Y-79009571D01*
X124043571Y-78938142D01*
X124115000Y-78866714D01*
X124615000Y-78009571D02*
X125186428Y-78009571D01*
X124829285Y-77509571D02*
X124829285Y-78795285D01*
X124900714Y-78938142D01*
X125043571Y-79009571D01*
X125186428Y-79009571D01*
X125686428Y-78438142D02*
X126829285Y-78438142D01*
X127543571Y-78009571D02*
X128686428Y-78438142D01*
X127543571Y-78866714D01*
X195143571Y-113381000D02*
X196643571Y-112881000D01*
X195143571Y-112381000D01*
X195143571Y-111881000D02*
X196357857Y-111881000D01*
X196500714Y-111809571D01*
X196572142Y-111738142D01*
X196643571Y-111595285D01*
X196643571Y-111309571D01*
X196572142Y-111166714D01*
X196500714Y-111095285D01*
X196357857Y-111023857D01*
X195143571Y-111023857D01*
X196572142Y-110381000D02*
X196643571Y-110166714D01*
X196643571Y-109809571D01*
X196572142Y-109666714D01*
X196500714Y-109595285D01*
X196357857Y-109523857D01*
X196215000Y-109523857D01*
X196072142Y-109595285D01*
X196000714Y-109666714D01*
X195929285Y-109809571D01*
X195857857Y-110095285D01*
X195786428Y-110238142D01*
X195715000Y-110309571D01*
X195572142Y-110381000D01*
X195429285Y-110381000D01*
X195286428Y-110309571D01*
X195215000Y-110238142D01*
X195143571Y-110095285D01*
X195143571Y-109738142D01*
X195215000Y-109523857D01*
X195857857Y-108381000D02*
X195929285Y-108166714D01*
X196000714Y-108095285D01*
X196143571Y-108023857D01*
X196357857Y-108023857D01*
X196500714Y-108095285D01*
X196572142Y-108166714D01*
X196643571Y-108309571D01*
X196643571Y-108881000D01*
X195143571Y-108881000D01*
X195143571Y-108381000D01*
X195215000Y-108238142D01*
X195286428Y-108166714D01*
X195429285Y-108095285D01*
X195572142Y-108095285D01*
X195715000Y-108166714D01*
X195786428Y-108238142D01*
X195857857Y-108381000D01*
X195857857Y-108881000D01*
X195243571Y-92216714D02*
X195243571Y-92931000D01*
X195957857Y-93002428D01*
X195886428Y-92931000D01*
X195815000Y-92788142D01*
X195815000Y-92431000D01*
X195886428Y-92288142D01*
X195957857Y-92216714D01*
X196100714Y-92145285D01*
X196457857Y-92145285D01*
X196600714Y-92216714D01*
X196672142Y-92288142D01*
X196743571Y-92431000D01*
X196743571Y-92788142D01*
X196672142Y-92931000D01*
X196600714Y-93002428D01*
X195243571Y-91716714D02*
X196743571Y-91216714D01*
X195243571Y-90716714D01*
X196500714Y-98402428D02*
X196572142Y-98473857D01*
X196643571Y-98688142D01*
X196643571Y-98831000D01*
X196572142Y-99045285D01*
X196429285Y-99188142D01*
X196286428Y-99259571D01*
X196000714Y-99331000D01*
X195786428Y-99331000D01*
X195500714Y-99259571D01*
X195357857Y-99188142D01*
X195215000Y-99045285D01*
X195143571Y-98831000D01*
X195143571Y-98688142D01*
X195215000Y-98473857D01*
X195286428Y-98402428D01*
X196643571Y-97759571D02*
X195143571Y-97759571D01*
X195857857Y-97759571D02*
X195857857Y-96902428D01*
X196643571Y-96902428D02*
X195143571Y-96902428D01*
X195215000Y-95402428D02*
X195143571Y-95545285D01*
X195143571Y-95759571D01*
X195215000Y-95973857D01*
X195357857Y-96116714D01*
X195500714Y-96188142D01*
X195786428Y-96259571D01*
X196000714Y-96259571D01*
X196286428Y-96188142D01*
X196429285Y-96116714D01*
X196572142Y-95973857D01*
X196643571Y-95759571D01*
X196643571Y-95616714D01*
X196572142Y-95402428D01*
X196500714Y-95331000D01*
X196000714Y-95331000D01*
X196000714Y-95616714D01*
X120622142Y-95206000D02*
X120479285Y-95134571D01*
X120265000Y-95134571D01*
X120050714Y-95206000D01*
X119907857Y-95348857D01*
X119836428Y-95491714D01*
X119765000Y-95777428D01*
X119765000Y-95991714D01*
X119836428Y-96277428D01*
X119907857Y-96420285D01*
X120050714Y-96563142D01*
X120265000Y-96634571D01*
X120407857Y-96634571D01*
X120622142Y-96563142D01*
X120693571Y-96491714D01*
X120693571Y-95991714D01*
X120407857Y-95991714D01*
X121336428Y-96634571D02*
X121336428Y-95134571D01*
X122193571Y-96634571D01*
X122193571Y-95134571D01*
X122907857Y-96634571D02*
X122907857Y-95134571D01*
X123265000Y-95134571D01*
X123479285Y-95206000D01*
X123622142Y-95348857D01*
X123693571Y-95491714D01*
X123765000Y-95777428D01*
X123765000Y-95991714D01*
X123693571Y-96277428D01*
X123622142Y-96420285D01*
X123479285Y-96563142D01*
X123265000Y-96634571D01*
X122907857Y-96634571D01*
X121479285Y-97584571D02*
X120765000Y-97584571D01*
X120693571Y-98298857D01*
X120765000Y-98227428D01*
X120907857Y-98156000D01*
X121265000Y-98156000D01*
X121407857Y-98227428D01*
X121479285Y-98298857D01*
X121550714Y-98441714D01*
X121550714Y-98798857D01*
X121479285Y-98941714D01*
X121407857Y-99013142D01*
X121265000Y-99084571D01*
X120907857Y-99084571D01*
X120765000Y-99013142D01*
X120693571Y-98941714D01*
X121979285Y-97584571D02*
X122479285Y-99084571D01*
X122979285Y-97584571D01*
X119979285Y-101463142D02*
X120193571Y-101534571D01*
X120550714Y-101534571D01*
X120693571Y-101463142D01*
X120765000Y-101391714D01*
X120836428Y-101248857D01*
X120836428Y-101106000D01*
X120765000Y-100963142D01*
X120693571Y-100891714D01*
X120550714Y-100820285D01*
X120265000Y-100748857D01*
X120122142Y-100677428D01*
X120050714Y-100606000D01*
X119979285Y-100463142D01*
X119979285Y-100320285D01*
X120050714Y-100177428D01*
X120122142Y-100106000D01*
X120265000Y-100034571D01*
X120622142Y-100034571D01*
X120836428Y-100106000D01*
X122336428Y-101391714D02*
X122265000Y-101463142D01*
X122050714Y-101534571D01*
X121907857Y-101534571D01*
X121693571Y-101463142D01*
X121550714Y-101320285D01*
X121479285Y-101177428D01*
X121407857Y-100891714D01*
X121407857Y-100677428D01*
X121479285Y-100391714D01*
X121550714Y-100248857D01*
X121693571Y-100106000D01*
X121907857Y-100034571D01*
X122050714Y-100034571D01*
X122265000Y-100106000D01*
X122336428Y-100177428D01*
X123693571Y-101534571D02*
X122979285Y-101534571D01*
X122979285Y-100034571D01*
X119836428Y-103913142D02*
X120050714Y-103984571D01*
X120407857Y-103984571D01*
X120550714Y-103913142D01*
X120622142Y-103841714D01*
X120693571Y-103698857D01*
X120693571Y-103556000D01*
X120622142Y-103413142D01*
X120550714Y-103341714D01*
X120407857Y-103270285D01*
X120122142Y-103198857D01*
X119979285Y-103127428D01*
X119907857Y-103056000D01*
X119836428Y-102913142D01*
X119836428Y-102770285D01*
X119907857Y-102627428D01*
X119979285Y-102556000D01*
X120122142Y-102484571D01*
X120479285Y-102484571D01*
X120693571Y-102556000D01*
X122193571Y-103841714D02*
X122122142Y-103913142D01*
X121907857Y-103984571D01*
X121765000Y-103984571D01*
X121550714Y-103913142D01*
X121407857Y-103770285D01*
X121336428Y-103627428D01*
X121265000Y-103341714D01*
X121265000Y-103127428D01*
X121336428Y-102841714D01*
X121407857Y-102698857D01*
X121550714Y-102556000D01*
X121765000Y-102484571D01*
X121907857Y-102484571D01*
X122122142Y-102556000D01*
X122193571Y-102627428D01*
X122836428Y-103984571D02*
X122836428Y-102484571D01*
X123693571Y-103984571D02*
X123050714Y-103127428D01*
X123693571Y-102484571D02*
X122836428Y-103341714D01*
X128057857Y-145223857D02*
X128272142Y-145295285D01*
X128343571Y-145366714D01*
X128415000Y-145509571D01*
X128415000Y-145723857D01*
X128343571Y-145866714D01*
X128272142Y-145938142D01*
X128129285Y-146009571D01*
X127557857Y-146009571D01*
X127557857Y-144509571D01*
X128057857Y-144509571D01*
X128200714Y-144581000D01*
X128272142Y-144652428D01*
X128343571Y-144795285D01*
X128343571Y-144938142D01*
X128272142Y-145081000D01*
X128200714Y-145152428D01*
X128057857Y-145223857D01*
X127557857Y-145223857D01*
X129700714Y-146009571D02*
X129700714Y-145223857D01*
X129629285Y-145081000D01*
X129486428Y-145009571D01*
X129200714Y-145009571D01*
X129057857Y-145081000D01*
X129700714Y-145938142D02*
X129557857Y-146009571D01*
X129200714Y-146009571D01*
X129057857Y-145938142D01*
X128986428Y-145795285D01*
X128986428Y-145652428D01*
X129057857Y-145509571D01*
X129200714Y-145438142D01*
X129557857Y-145438142D01*
X129700714Y-145366714D01*
X130200714Y-145009571D02*
X130772142Y-145009571D01*
X130415000Y-144509571D02*
X130415000Y-145795285D01*
X130486428Y-145938142D01*
X130629285Y-146009571D01*
X130772142Y-146009571D01*
X131057857Y-145009571D02*
X131629285Y-145009571D01*
X131272142Y-144509571D02*
X131272142Y-145795285D01*
X131343571Y-145938142D01*
X131486428Y-146009571D01*
X131629285Y-146009571D01*
X132700714Y-145938142D02*
X132557857Y-146009571D01*
X132272142Y-146009571D01*
X132129285Y-145938142D01*
X132057857Y-145795285D01*
X132057857Y-145223857D01*
X132129285Y-145081000D01*
X132272142Y-145009571D01*
X132557857Y-145009571D01*
X132700714Y-145081000D01*
X132772142Y-145223857D01*
X132772142Y-145366714D01*
X132057857Y-145509571D01*
X133415000Y-146009571D02*
X133415000Y-145009571D01*
X133415000Y-145295285D02*
X133486428Y-145152428D01*
X133557857Y-145081000D01*
X133700714Y-145009571D01*
X133843571Y-145009571D01*
X134343571Y-146009571D02*
X134343571Y-145009571D01*
X134343571Y-144509571D02*
X134272142Y-144581000D01*
X134343571Y-144652428D01*
X134415000Y-144581000D01*
X134343571Y-144509571D01*
X134343571Y-144652428D01*
X135629285Y-145938142D02*
X135486428Y-146009571D01*
X135200714Y-146009571D01*
X135057857Y-145938142D01*
X134986428Y-145795285D01*
X134986428Y-145223857D01*
X135057857Y-145081000D01*
X135200714Y-145009571D01*
X135486428Y-145009571D01*
X135629285Y-145081000D01*
X135700714Y-145223857D01*
X135700714Y-145366714D01*
X134986428Y-145509571D01*
X136272142Y-145938142D02*
X136415000Y-146009571D01*
X136700714Y-146009571D01*
X136843571Y-145938142D01*
X136915000Y-145795285D01*
X136915000Y-145723857D01*
X136843571Y-145581000D01*
X136700714Y-145509571D01*
X136486428Y-145509571D01*
X136343571Y-145438142D01*
X136272142Y-145295285D01*
X136272142Y-145223857D01*
X136343571Y-145081000D01*
X136486428Y-145009571D01*
X136700714Y-145009571D01*
X136843571Y-145081000D01*
X138700714Y-146009571D02*
X138700714Y-144509571D01*
X139343571Y-146009571D02*
X139343571Y-145223857D01*
X139272142Y-145081000D01*
X139129285Y-145009571D01*
X138915000Y-145009571D01*
X138772142Y-145081000D01*
X138700714Y-145152428D01*
X140700714Y-146009571D02*
X140700714Y-145223857D01*
X140629285Y-145081000D01*
X140486428Y-145009571D01*
X140200714Y-145009571D01*
X140057857Y-145081000D01*
X140700714Y-145938142D02*
X140557857Y-146009571D01*
X140200714Y-146009571D01*
X140057857Y-145938142D01*
X139986428Y-145795285D01*
X139986428Y-145652428D01*
X140057857Y-145509571D01*
X140200714Y-145438142D01*
X140557857Y-145438142D01*
X140700714Y-145366714D01*
X141343571Y-145938142D02*
X141486428Y-146009571D01*
X141772142Y-146009571D01*
X141915000Y-145938142D01*
X141986428Y-145795285D01*
X141986428Y-145723857D01*
X141915000Y-145581000D01*
X141772142Y-145509571D01*
X141557857Y-145509571D01*
X141415000Y-145438142D01*
X141343571Y-145295285D01*
X141343571Y-145223857D01*
X141415000Y-145081000D01*
X141557857Y-145009571D01*
X141772142Y-145009571D01*
X141915000Y-145081000D01*
X143557857Y-145009571D02*
X144129285Y-145009571D01*
X143772142Y-144509571D02*
X143772142Y-145795285D01*
X143843571Y-145938142D01*
X143986428Y-146009571D01*
X144129285Y-146009571D01*
X144843571Y-146009571D02*
X144700714Y-145938142D01*
X144629285Y-145866714D01*
X144557857Y-145723857D01*
X144557857Y-145295285D01*
X144629285Y-145152428D01*
X144700714Y-145081000D01*
X144843571Y-145009571D01*
X145057857Y-145009571D01*
X145200714Y-145081000D01*
X145272142Y-145152428D01*
X145343571Y-145295285D01*
X145343571Y-145723857D01*
X145272142Y-145866714D01*
X145200714Y-145938142D01*
X145057857Y-146009571D01*
X144843571Y-146009571D01*
X147129285Y-146009571D02*
X147129285Y-145009571D01*
X147129285Y-145152428D02*
X147200714Y-145081000D01*
X147343571Y-145009571D01*
X147557857Y-145009571D01*
X147700714Y-145081000D01*
X147772142Y-145223857D01*
X147772142Y-146009571D01*
X147772142Y-145223857D02*
X147843571Y-145081000D01*
X147986428Y-145009571D01*
X148200714Y-145009571D01*
X148343571Y-145081000D01*
X148415000Y-145223857D01*
X148415000Y-146009571D01*
X149772142Y-146009571D02*
X149772142Y-145223857D01*
X149700714Y-145081000D01*
X149557857Y-145009571D01*
X149272142Y-145009571D01*
X149129285Y-145081000D01*
X149772142Y-145938142D02*
X149629285Y-146009571D01*
X149272142Y-146009571D01*
X149129285Y-145938142D01*
X149057857Y-145795285D01*
X149057857Y-145652428D01*
X149129285Y-145509571D01*
X149272142Y-145438142D01*
X149629285Y-145438142D01*
X149772142Y-145366714D01*
X150272142Y-145009571D02*
X150843571Y-145009571D01*
X150486428Y-144509571D02*
X150486428Y-145795285D01*
X150557857Y-145938142D01*
X150700714Y-146009571D01*
X150843571Y-146009571D01*
X151986428Y-145938142D02*
X151843571Y-146009571D01*
X151557857Y-146009571D01*
X151415000Y-145938142D01*
X151343571Y-145866714D01*
X151272142Y-145723857D01*
X151272142Y-145295285D01*
X151343571Y-145152428D01*
X151415000Y-145081000D01*
X151557857Y-145009571D01*
X151843571Y-145009571D01*
X151986428Y-145081000D01*
X152629285Y-146009571D02*
X152629285Y-144509571D01*
X153272142Y-146009571D02*
X153272142Y-145223857D01*
X153200714Y-145081000D01*
X153057857Y-145009571D01*
X152843571Y-145009571D01*
X152700714Y-145081000D01*
X152629285Y-145152428D01*
X155129285Y-146009571D02*
X155129285Y-144509571D01*
X155700714Y-144509571D01*
X155843571Y-144581000D01*
X155915000Y-144652428D01*
X155986428Y-144795285D01*
X155986428Y-145009571D01*
X155915000Y-145152428D01*
X155843571Y-145223857D01*
X155700714Y-145295285D01*
X155129285Y-145295285D01*
X157486428Y-145866714D02*
X157415000Y-145938142D01*
X157200714Y-146009571D01*
X157057857Y-146009571D01*
X156843571Y-145938142D01*
X156700714Y-145795285D01*
X156629285Y-145652428D01*
X156557857Y-145366714D01*
X156557857Y-145152428D01*
X156629285Y-144866714D01*
X156700714Y-144723857D01*
X156843571Y-144581000D01*
X157057857Y-144509571D01*
X157200714Y-144509571D01*
X157415000Y-144581000D01*
X157486428Y-144652428D01*
X158629285Y-145223857D02*
X158843571Y-145295285D01*
X158915000Y-145366714D01*
X158986428Y-145509571D01*
X158986428Y-145723857D01*
X158915000Y-145866714D01*
X158843571Y-145938142D01*
X158700714Y-146009571D01*
X158129285Y-146009571D01*
X158129285Y-144509571D01*
X158629285Y-144509571D01*
X158772142Y-144581000D01*
X158843571Y-144652428D01*
X158915000Y-144795285D01*
X158915000Y-144938142D01*
X158843571Y-145081000D01*
X158772142Y-145152428D01*
X158629285Y-145223857D01*
X158129285Y-145223857D01*
X160772142Y-145438142D02*
X161915000Y-145438142D01*
X161343571Y-146009571D02*
X161343571Y-144866714D01*
X162629285Y-145438142D02*
X163772142Y-145438142D01*
X163200714Y-146009571D02*
X163200714Y-144866714D01*
X164486428Y-145438142D02*
X165629285Y-145438142D01*
X165057857Y-146009571D02*
X165057857Y-144866714D01*
X167486428Y-146009571D02*
X167486428Y-145009571D01*
X167486428Y-145152428D02*
X167557857Y-145081000D01*
X167700714Y-145009571D01*
X167915000Y-145009571D01*
X168057857Y-145081000D01*
X168129285Y-145223857D01*
X168129285Y-146009571D01*
X168129285Y-145223857D02*
X168200714Y-145081000D01*
X168343571Y-145009571D01*
X168557857Y-145009571D01*
X168700714Y-145081000D01*
X168772142Y-145223857D01*
X168772142Y-146009571D01*
X170129285Y-146009571D02*
X170129285Y-145223857D01*
X170057857Y-145081000D01*
X169915000Y-145009571D01*
X169629285Y-145009571D01*
X169486428Y-145081000D01*
X170129285Y-145938142D02*
X169986428Y-146009571D01*
X169629285Y-146009571D01*
X169486428Y-145938142D01*
X169415000Y-145795285D01*
X169415000Y-145652428D01*
X169486428Y-145509571D01*
X169629285Y-145438142D01*
X169986428Y-145438142D01*
X170129285Y-145366714D01*
X170843571Y-146009571D02*
X170843571Y-145009571D01*
X170843571Y-145295285D02*
X170915000Y-145152428D01*
X170986428Y-145081000D01*
X171129285Y-145009571D01*
X171272142Y-145009571D01*
X171772142Y-146009571D02*
X171772142Y-144509571D01*
X171915000Y-145438142D02*
X172343571Y-146009571D01*
X172343571Y-145009571D02*
X171772142Y-145581000D01*
X172915000Y-145938142D02*
X173057857Y-146009571D01*
X173343571Y-146009571D01*
X173486428Y-145938142D01*
X173557857Y-145795285D01*
X173557857Y-145723857D01*
X173486428Y-145581000D01*
X173343571Y-145509571D01*
X173129285Y-145509571D01*
X172986428Y-145438142D01*
X172915000Y-145295285D01*
X172915000Y-145223857D01*
X172986428Y-145081000D01*
X173129285Y-145009571D01*
X173343571Y-145009571D01*
X173486428Y-145081000D01*
X175129285Y-145009571D02*
X175700714Y-145009571D01*
X175343571Y-146009571D02*
X175343571Y-144723857D01*
X175415000Y-144581000D01*
X175557857Y-144509571D01*
X175700714Y-144509571D01*
X176415000Y-146009571D02*
X176272142Y-145938142D01*
X176200714Y-145866714D01*
X176129285Y-145723857D01*
X176129285Y-145295285D01*
X176200714Y-145152428D01*
X176272142Y-145081000D01*
X176415000Y-145009571D01*
X176629285Y-145009571D01*
X176772142Y-145081000D01*
X176843571Y-145152428D01*
X176915000Y-145295285D01*
X176915000Y-145723857D01*
X176843571Y-145866714D01*
X176772142Y-145938142D01*
X176629285Y-146009571D01*
X176415000Y-146009571D01*
X177557857Y-146009571D02*
X177557857Y-145009571D01*
X177557857Y-145295285D02*
X177629285Y-145152428D01*
X177700714Y-145081000D01*
X177843571Y-145009571D01*
X177986428Y-145009571D01*
X179629285Y-145009571D02*
X179629285Y-146509571D01*
X179629285Y-145081000D02*
X179772142Y-145009571D01*
X180057857Y-145009571D01*
X180200714Y-145081000D01*
X180272142Y-145152428D01*
X180343571Y-145295285D01*
X180343571Y-145723857D01*
X180272142Y-145866714D01*
X180200714Y-145938142D01*
X180057857Y-146009571D01*
X179772142Y-146009571D01*
X179629285Y-145938142D01*
X181200714Y-146009571D02*
X181057857Y-145938142D01*
X180986428Y-145866714D01*
X180915000Y-145723857D01*
X180915000Y-145295285D01*
X180986428Y-145152428D01*
X181057857Y-145081000D01*
X181200714Y-145009571D01*
X181415000Y-145009571D01*
X181557857Y-145081000D01*
X181629285Y-145152428D01*
X181700714Y-145295285D01*
X181700714Y-145723857D01*
X181629285Y-145866714D01*
X181557857Y-145938142D01*
X181415000Y-146009571D01*
X181200714Y-146009571D01*
X182557857Y-146009571D02*
X182415000Y-145938142D01*
X182343571Y-145795285D01*
X182343571Y-144509571D01*
X183772142Y-146009571D02*
X183772142Y-145223857D01*
X183700714Y-145081000D01*
X183557857Y-145009571D01*
X183272142Y-145009571D01*
X183129285Y-145081000D01*
X183772142Y-145938142D02*
X183629285Y-146009571D01*
X183272142Y-146009571D01*
X183129285Y-145938142D01*
X183057857Y-145795285D01*
X183057857Y-145652428D01*
X183129285Y-145509571D01*
X183272142Y-145438142D01*
X183629285Y-145438142D01*
X183772142Y-145366714D01*
X184486428Y-146009571D02*
X184486428Y-145009571D01*
X184486428Y-145295285D02*
X184557857Y-145152428D01*
X184629285Y-145081000D01*
X184772142Y-145009571D01*
X184915000Y-145009571D01*
X185415000Y-146009571D02*
X185415000Y-145009571D01*
X185415000Y-144509571D02*
X185343571Y-144581000D01*
X185415000Y-144652428D01*
X185486428Y-144581000D01*
X185415000Y-144509571D01*
X185415000Y-144652428D01*
X185915000Y-145009571D02*
X186486428Y-145009571D01*
X186129285Y-144509571D02*
X186129285Y-145795285D01*
X186200714Y-145938142D01*
X186343571Y-146009571D01*
X186486428Y-146009571D01*
X186986428Y-146009571D02*
X186986428Y-145009571D01*
X186986428Y-144509571D02*
X186915000Y-144581000D01*
X186986428Y-144652428D01*
X187057857Y-144581000D01*
X186986428Y-144509571D01*
X186986428Y-144652428D01*
X188272142Y-145938142D02*
X188129285Y-146009571D01*
X187843571Y-146009571D01*
X187700714Y-145938142D01*
X187629285Y-145795285D01*
X187629285Y-145223857D01*
X187700714Y-145081000D01*
X187843571Y-145009571D01*
X188129285Y-145009571D01*
X188272142Y-145081000D01*
X188343571Y-145223857D01*
X188343571Y-145366714D01*
X187629285Y-145509571D01*
X188915000Y-145938142D02*
X189057857Y-146009571D01*
X189343571Y-146009571D01*
X189486428Y-145938142D01*
X189557857Y-145795285D01*
X189557857Y-145723857D01*
X189486428Y-145581000D01*
X189343571Y-145509571D01*
X189129285Y-145509571D01*
X188986428Y-145438142D01*
X188915000Y-145295285D01*
X188915000Y-145223857D01*
X188986428Y-145081000D01*
X189129285Y-145009571D01*
X189343571Y-145009571D01*
X189486428Y-145081000D01*
X191343571Y-145866714D02*
X191415000Y-145938142D01*
X191343571Y-146009571D01*
X191272142Y-145938142D01*
X191343571Y-145866714D01*
X191343571Y-146009571D01*
X191343571Y-145438142D02*
X191272142Y-144581000D01*
X191343571Y-144509571D01*
X191415000Y-144581000D01*
X191343571Y-145438142D01*
X191343571Y-144509571D01*
X192057857Y-145866714D02*
X192129285Y-145938142D01*
X192057857Y-146009571D01*
X191986428Y-145938142D01*
X192057857Y-145866714D01*
X192057857Y-146009571D01*
X192057857Y-145438142D02*
X191986428Y-144581000D01*
X192057857Y-144509571D01*
X192129285Y-144581000D01*
X192057857Y-145438142D01*
X192057857Y-144509571D01*
X192772142Y-145866714D02*
X192843571Y-145938142D01*
X192772142Y-146009571D01*
X192700714Y-145938142D01*
X192772142Y-145866714D01*
X192772142Y-146009571D01*
X192772142Y-145438142D02*
X192700714Y-144581000D01*
X192772142Y-144509571D01*
X192843571Y-144581000D01*
X192772142Y-145438142D01*
X192772142Y-144509571D01*
X136743571Y-67181000D02*
X135243571Y-67181000D01*
X136315000Y-66681000D01*
X135243571Y-66181000D01*
X136743571Y-66181000D01*
X136743571Y-65252428D02*
X136672142Y-65395285D01*
X136600714Y-65466714D01*
X136457857Y-65538142D01*
X136029285Y-65538142D01*
X135886428Y-65466714D01*
X135815000Y-65395285D01*
X135743571Y-65252428D01*
X135743571Y-65038142D01*
X135815000Y-64895285D01*
X135886428Y-64823857D01*
X136029285Y-64752428D01*
X136457857Y-64752428D01*
X136600714Y-64823857D01*
X136672142Y-64895285D01*
X136743571Y-65038142D01*
X136743571Y-65252428D01*
X135743571Y-64323857D02*
X135743571Y-63752428D01*
X135243571Y-64109571D02*
X136529285Y-64109571D01*
X136672142Y-64038142D01*
X136743571Y-63895285D01*
X136743571Y-63752428D01*
X136743571Y-63038142D02*
X136672142Y-63181000D01*
X136600714Y-63252428D01*
X136457857Y-63323857D01*
X136029285Y-63323857D01*
X135886428Y-63252428D01*
X135815000Y-63181000D01*
X135743571Y-63038142D01*
X135743571Y-62823857D01*
X135815000Y-62681000D01*
X135886428Y-62609571D01*
X136029285Y-62538142D01*
X136457857Y-62538142D01*
X136600714Y-62609571D01*
X136672142Y-62681000D01*
X136743571Y-62823857D01*
X136743571Y-63038142D01*
X136743571Y-61895285D02*
X135743571Y-61895285D01*
X136029285Y-61895285D02*
X135886428Y-61823857D01*
X135815000Y-61752428D01*
X135743571Y-61609571D01*
X135743571Y-61466714D01*
X136843571Y-137481000D02*
X135343571Y-137481000D01*
X136415000Y-136981000D01*
X135343571Y-136481000D01*
X136843571Y-136481000D01*
X136843571Y-135552428D02*
X136772142Y-135695285D01*
X136700714Y-135766714D01*
X136557857Y-135838142D01*
X136129285Y-135838142D01*
X135986428Y-135766714D01*
X135915000Y-135695285D01*
X135843571Y-135552428D01*
X135843571Y-135338142D01*
X135915000Y-135195285D01*
X135986428Y-135123857D01*
X136129285Y-135052428D01*
X136557857Y-135052428D01*
X136700714Y-135123857D01*
X136772142Y-135195285D01*
X136843571Y-135338142D01*
X136843571Y-135552428D01*
X135843571Y-134623857D02*
X135843571Y-134052428D01*
X135343571Y-134409571D02*
X136629285Y-134409571D01*
X136772142Y-134338142D01*
X136843571Y-134195285D01*
X136843571Y-134052428D01*
X136843571Y-133338142D02*
X136772142Y-133481000D01*
X136700714Y-133552428D01*
X136557857Y-133623857D01*
X136129285Y-133623857D01*
X135986428Y-133552428D01*
X135915000Y-133481000D01*
X135843571Y-133338142D01*
X135843571Y-133123857D01*
X135915000Y-132981000D01*
X135986428Y-132909571D01*
X136129285Y-132838142D01*
X136557857Y-132838142D01*
X136700714Y-132909571D01*
X136772142Y-132981000D01*
X136843571Y-133123857D01*
X136843571Y-133338142D01*
X136843571Y-132195285D02*
X135843571Y-132195285D01*
X136129285Y-132195285D02*
X135986428Y-132123857D01*
X135915000Y-132052428D01*
X135843571Y-131909571D01*
X135843571Y-131766714D01*
X160240000Y-136724826D02*
X153583000Y-136724826D01*
X142609400Y-128248080D02*
G75*
G03X142609400Y-128248080I-250000J0D01*
G01*
X142609400Y-70248080D02*
G75*
G03X142609400Y-70248080I-250000J0D01*
G01*
X142609400Y-128248080D02*
G75*
G03X142609400Y-128248080I-250000J0D01*
G01*
X142609400Y-70248080D02*
G75*
G03X142609400Y-70248080I-250000J0D01*
G01*
X125240000Y-76231000D02*
X125240000Y-49231000D01*
X125240000Y-76231000D02*
X97365000Y-76231000D01*
X179745000Y-136818000D02*
X173014000Y-136818000D01*
X153583000Y-136691000D02*
X153583000Y-132191000D01*
X125240000Y-123231000D02*
X97365000Y-123231000D01*
X125240000Y-123231000D02*
X125240000Y-149231000D01*
X160240000Y-49569000D02*
X153583000Y-49569000D01*
X179745000Y-136818000D02*
X179745000Y-132224826D01*
X172990000Y-49569000D02*
X179745000Y-49569000D01*
X153583000Y-54224827D02*
X153583000Y-49569000D01*
X179745000Y-49569000D02*
X179745000Y-54224827D01*
D11*
X130155000Y-124686000D02*
X135355000Y-124686000D01*
X130155000Y-76366000D02*
X130155000Y-124686000D01*
X135355000Y-73766000D02*
X135355000Y-124686000D01*
X130155000Y-76366000D02*
X132755000Y-76366000D01*
X132755000Y-76366000D02*
X132755000Y-73766000D01*
X132755000Y-73766000D02*
X135355000Y-73766000D01*
X130155000Y-75096000D02*
X130155000Y-73766000D01*
X130155000Y-73766000D02*
X131485000Y-73766000D01*
X192614000Y-109480000D02*
X192614000Y-112165000D01*
X192614000Y-112165000D02*
X194534000Y-112165000D01*
X194534000Y-112165000D02*
X194534000Y-109480000D01*
X194507000Y-93588500D02*
X194507000Y-90903500D01*
X192587000Y-93588500D02*
X194507000Y-93588500D01*
X192587000Y-90903500D02*
X192587000Y-93588500D01*
X194543000Y-98285000D02*
X194543000Y-95600000D01*
X194543000Y-95600000D02*
X192623000Y-95600000D01*
X192623000Y-95600000D02*
X192623000Y-98285000D01*
X124313000Y-104747000D02*
X126973000Y-104747000D01*
X124313000Y-97067000D02*
X124313000Y-104747000D01*
X126973000Y-97067000D02*
X126973000Y-104747000D01*
X124313000Y-97067000D02*
X126973000Y-97067000D01*
X124313000Y-95797000D02*
X124313000Y-94467000D01*
X124313000Y-94467000D02*
X125643000Y-94467000D01*
X139755000Y-73771000D02*
X142355000Y-73771000D01*
X139755000Y-73771000D02*
X139755000Y-124691000D01*
X139755000Y-124691000D02*
X144955000Y-124691000D01*
X144955000Y-76371000D02*
X144955000Y-124691000D01*
X142355000Y-76371000D02*
X144955000Y-76371000D01*
X142355000Y-73771000D02*
X142355000Y-76371000D01*
X144955000Y-73771000D02*
X144955000Y-75101000D01*
X143625000Y-73771000D02*
X144955000Y-73771000D01*
X194284000Y-106157422D02*
X194284000Y-106674578D01*
X192864000Y-106157422D02*
X192864000Y-106674578D01*
X194257000Y-87913422D02*
X194257000Y-88430578D01*
X192837000Y-87913422D02*
X192837000Y-88430578D01*
X194293000Y-101090422D02*
X194293000Y-101607578D01*
X192873000Y-101090422D02*
X192873000Y-101607578D01*
X146739000Y-54405000D02*
X186739000Y-54405000D01*
X186739000Y-54405000D02*
X186739000Y-131905000D01*
X186739000Y-131905000D02*
X146739000Y-131905000D01*
X146739000Y-131905000D02*
X146739000Y-54405000D01*
D12*
X127981666Y-74333380D02*
X127981666Y-75047666D01*
X127934047Y-75190523D01*
X127838809Y-75285761D01*
X127695952Y-75333380D01*
X127600714Y-75333380D01*
X128886428Y-74333380D02*
X128695952Y-74333380D01*
X128600714Y-74381000D01*
X128553095Y-74428619D01*
X128457857Y-74571476D01*
X128410238Y-74761952D01*
X128410238Y-75142904D01*
X128457857Y-75238142D01*
X128505476Y-75285761D01*
X128600714Y-75333380D01*
X128791190Y-75333380D01*
X128886428Y-75285761D01*
X128934047Y-75238142D01*
X128981666Y-75142904D01*
X128981666Y-74904809D01*
X128934047Y-74809571D01*
X128886428Y-74761952D01*
X128791190Y-74714333D01*
X128600714Y-74714333D01*
X128505476Y-74761952D01*
X128457857Y-74809571D01*
X128410238Y-74904809D01*
D13*
X110724523Y-105640523D02*
X110724523Y-104878619D01*
X110915000Y-104497666D01*
X111295952Y-104116714D01*
X112057857Y-103926238D01*
X113391190Y-103926238D01*
X114153095Y-104116714D01*
X114534047Y-104497666D01*
X114724523Y-104878619D01*
X114724523Y-105640523D01*
X114534047Y-106021476D01*
X114153095Y-106402428D01*
X113391190Y-106592904D01*
X112057857Y-106592904D01*
X111295952Y-106402428D01*
X110915000Y-106021476D01*
X110724523Y-105640523D01*
X114724523Y-100307190D02*
X114724523Y-102211952D01*
X110724523Y-102211952D01*
X112629285Y-98973857D02*
X112629285Y-97640523D01*
X114724523Y-97069095D02*
X114724523Y-98973857D01*
X110724523Y-98973857D01*
X110724523Y-97069095D01*
X114724523Y-95354809D02*
X110724523Y-95354809D01*
X110724523Y-94402428D01*
X110915000Y-93831000D01*
X111295952Y-93450047D01*
X111676904Y-93259571D01*
X112438809Y-93069095D01*
X113010238Y-93069095D01*
X113772142Y-93259571D01*
X114153095Y-93450047D01*
X114534047Y-93831000D01*
X114724523Y-94402428D01*
X114724523Y-95354809D01*
D12*
X191867380Y-111091095D02*
X190867380Y-111091095D01*
X190867380Y-110853000D01*
X190915000Y-110710142D01*
X191010238Y-110614904D01*
X191105476Y-110567285D01*
X191295952Y-110519666D01*
X191438809Y-110519666D01*
X191629285Y-110567285D01*
X191724523Y-110614904D01*
X191819761Y-110710142D01*
X191867380Y-110853000D01*
X191867380Y-111091095D01*
X191867380Y-109567285D02*
X191867380Y-110138714D01*
X191867380Y-109853000D02*
X190867380Y-109853000D01*
X191010238Y-109948238D01*
X191105476Y-110043476D01*
X191153095Y-110138714D01*
X191840380Y-92593095D02*
X190840380Y-92593095D01*
X190840380Y-92355000D01*
X190888000Y-92212142D01*
X190983238Y-92116904D01*
X191078476Y-92069285D01*
X191268952Y-92021666D01*
X191411809Y-92021666D01*
X191602285Y-92069285D01*
X191697523Y-92116904D01*
X191792761Y-92212142D01*
X191840380Y-92355000D01*
X191840380Y-92593095D01*
X190840380Y-91688333D02*
X190840380Y-91069285D01*
X191221333Y-91402619D01*
X191221333Y-91259761D01*
X191268952Y-91164523D01*
X191316571Y-91116904D01*
X191411809Y-91069285D01*
X191649904Y-91069285D01*
X191745142Y-91116904D01*
X191792761Y-91164523D01*
X191840380Y-91259761D01*
X191840380Y-91545476D01*
X191792761Y-91640714D01*
X191745142Y-91688333D01*
X191817380Y-98069095D02*
X190817380Y-98069095D01*
X190817380Y-97831000D01*
X190865000Y-97688142D01*
X190960238Y-97592904D01*
X191055476Y-97545285D01*
X191245952Y-97497666D01*
X191388809Y-97497666D01*
X191579285Y-97545285D01*
X191674523Y-97592904D01*
X191769761Y-97688142D01*
X191817380Y-97831000D01*
X191817380Y-98069095D01*
X190817380Y-96592904D02*
X190817380Y-97069095D01*
X191293571Y-97116714D01*
X191245952Y-97069095D01*
X191198333Y-96973857D01*
X191198333Y-96735761D01*
X191245952Y-96640523D01*
X191293571Y-96592904D01*
X191388809Y-96545285D01*
X191626904Y-96545285D01*
X191722142Y-96592904D01*
X191769761Y-96640523D01*
X191817380Y-96735761D01*
X191817380Y-96973857D01*
X191769761Y-97069095D01*
X191722142Y-97116714D01*
X125095380Y-93800333D02*
X125809666Y-93800333D01*
X125952523Y-93847952D01*
X126047761Y-93943190D01*
X126095380Y-94086047D01*
X126095380Y-94181285D01*
X125190619Y-93371761D02*
X125143000Y-93324142D01*
X125095380Y-93228904D01*
X125095380Y-92990809D01*
X125143000Y-92895571D01*
X125190619Y-92847952D01*
X125285857Y-92800333D01*
X125381095Y-92800333D01*
X125523952Y-92847952D01*
X126095380Y-93419380D01*
X126095380Y-92800333D01*
X127635380Y-134865333D02*
X128349666Y-134865333D01*
X128492523Y-134912952D01*
X128587761Y-135008190D01*
X128635380Y-135151047D01*
X128635380Y-135246285D01*
X127635380Y-134484380D02*
X127635380Y-133865333D01*
X128016333Y-134198666D01*
X128016333Y-134055809D01*
X128063952Y-133960571D01*
X128111571Y-133912952D01*
X128206809Y-133865333D01*
X128444904Y-133865333D01*
X128540142Y-133912952D01*
X128587761Y-133960571D01*
X128635380Y-134055809D01*
X128635380Y-134341523D01*
X128587761Y-134436761D01*
X128540142Y-134484380D01*
X128067380Y-64414333D02*
X128781666Y-64414333D01*
X128924523Y-64461952D01*
X129019761Y-64557190D01*
X129067380Y-64700047D01*
X129067380Y-64795285D01*
X128400714Y-63509571D02*
X129067380Y-63509571D01*
X128019761Y-63747666D02*
X128734047Y-63985761D01*
X128734047Y-63366714D01*
X137881666Y-74083380D02*
X137881666Y-74797666D01*
X137834047Y-74940523D01*
X137738809Y-75035761D01*
X137595952Y-75083380D01*
X137500714Y-75083380D01*
X138834047Y-74083380D02*
X138357857Y-74083380D01*
X138310238Y-74559571D01*
X138357857Y-74511952D01*
X138453095Y-74464333D01*
X138691190Y-74464333D01*
X138786428Y-74511952D01*
X138834047Y-74559571D01*
X138881666Y-74654809D01*
X138881666Y-74892904D01*
X138834047Y-74988142D01*
X138786428Y-75035761D01*
X138691190Y-75083380D01*
X138453095Y-75083380D01*
X138357857Y-75035761D01*
X138310238Y-74988142D01*
X191867380Y-106709666D02*
X191391190Y-107043000D01*
X191867380Y-107281095D02*
X190867380Y-107281095D01*
X190867380Y-106900142D01*
X190915000Y-106804904D01*
X190962619Y-106757285D01*
X191057857Y-106709666D01*
X191200714Y-106709666D01*
X191295952Y-106757285D01*
X191343571Y-106804904D01*
X191391190Y-106900142D01*
X191391190Y-107281095D01*
X191200714Y-105852523D02*
X191867380Y-105852523D01*
X190819761Y-106090619D02*
X191534047Y-106328714D01*
X191534047Y-105709666D01*
X191840380Y-88941857D02*
X191364190Y-89275190D01*
X191840380Y-89513285D02*
X190840380Y-89513285D01*
X190840380Y-89132333D01*
X190888000Y-89037095D01*
X190935619Y-88989476D01*
X191030857Y-88941857D01*
X191173714Y-88941857D01*
X191268952Y-88989476D01*
X191316571Y-89037095D01*
X191364190Y-89132333D01*
X191364190Y-89513285D01*
X191840380Y-87989476D02*
X191840380Y-88560904D01*
X191840380Y-88275190D02*
X190840380Y-88275190D01*
X190983238Y-88370428D01*
X191078476Y-88465666D01*
X191126095Y-88560904D01*
X191268952Y-87418047D02*
X191221333Y-87513285D01*
X191173714Y-87560904D01*
X191078476Y-87608523D01*
X191030857Y-87608523D01*
X190935619Y-87560904D01*
X190888000Y-87513285D01*
X190840380Y-87418047D01*
X190840380Y-87227571D01*
X190888000Y-87132333D01*
X190935619Y-87084714D01*
X191030857Y-87037095D01*
X191078476Y-87037095D01*
X191173714Y-87084714D01*
X191221333Y-87132333D01*
X191268952Y-87227571D01*
X191268952Y-87418047D01*
X191316571Y-87513285D01*
X191364190Y-87560904D01*
X191459428Y-87608523D01*
X191649904Y-87608523D01*
X191745142Y-87560904D01*
X191792761Y-87513285D01*
X191840380Y-87418047D01*
X191840380Y-87227571D01*
X191792761Y-87132333D01*
X191745142Y-87084714D01*
X191649904Y-87037095D01*
X191459428Y-87037095D01*
X191364190Y-87084714D01*
X191316571Y-87132333D01*
X191268952Y-87227571D01*
X191817380Y-101973857D02*
X191341190Y-102307190D01*
X191817380Y-102545285D02*
X190817380Y-102545285D01*
X190817380Y-102164333D01*
X190865000Y-102069095D01*
X190912619Y-102021476D01*
X191007857Y-101973857D01*
X191150714Y-101973857D01*
X191245952Y-102021476D01*
X191293571Y-102069095D01*
X191341190Y-102164333D01*
X191341190Y-102545285D01*
X190912619Y-101592904D02*
X190865000Y-101545285D01*
X190817380Y-101450047D01*
X190817380Y-101211952D01*
X190865000Y-101116714D01*
X190912619Y-101069095D01*
X191007857Y-101021476D01*
X191103095Y-101021476D01*
X191245952Y-101069095D01*
X191817380Y-101640523D01*
X191817380Y-101021476D01*
X191817380Y-100069095D02*
X191817380Y-100640523D01*
X191817380Y-100354809D02*
X190817380Y-100354809D01*
X190960238Y-100450047D01*
X191055476Y-100545285D01*
X191103095Y-100640523D01*
X146852095Y-52577380D02*
X146852095Y-53386904D01*
X146899714Y-53482142D01*
X146947333Y-53529761D01*
X147042571Y-53577380D01*
X147233047Y-53577380D01*
X147328285Y-53529761D01*
X147375904Y-53482142D01*
X147423523Y-53386904D01*
X147423523Y-52577380D01*
X148328285Y-52910714D02*
X148328285Y-53577380D01*
X148090190Y-52529761D02*
X147852095Y-53244047D01*
X148471142Y-53244047D01*
D13*
X166753285Y-101404999D02*
X166943761Y-100833571D01*
X167134238Y-100643095D01*
X167515190Y-100452619D01*
X168086619Y-100452619D01*
X168467571Y-100643095D01*
X168658047Y-100833571D01*
X168848523Y-101214523D01*
X168848523Y-102738333D01*
X164848523Y-102738333D01*
X164848523Y-101404999D01*
X165039000Y-101024047D01*
X165229476Y-100833571D01*
X165610428Y-100643095D01*
X165991380Y-100643095D01*
X166372333Y-100833571D01*
X166562809Y-101024047D01*
X166753285Y-101404999D01*
X166753285Y-102738333D01*
X167705666Y-98928809D02*
X167705666Y-97024047D01*
X168848523Y-99309761D02*
X164848523Y-97976428D01*
X168848523Y-96643095D01*
X164848523Y-95881190D02*
X164848523Y-93595476D01*
X168848523Y-94738333D02*
X164848523Y-94738333D01*
X164848523Y-92833571D02*
X164848523Y-90547857D01*
X168848523Y-91690714D02*
X164848523Y-91690714D01*
X166753285Y-89214523D02*
X166753285Y-87881190D01*
X168848523Y-87309761D02*
X168848523Y-89214523D01*
X164848523Y-89214523D01*
X164848523Y-87309761D01*
X168848523Y-83309761D02*
X166943761Y-84643095D01*
X168848523Y-85595476D02*
X164848523Y-85595476D01*
X164848523Y-84071666D01*
X165039000Y-83690714D01*
X165229476Y-83500238D01*
X165610428Y-83309761D01*
X166181857Y-83309761D01*
X166562809Y-83500238D01*
X166753285Y-83690714D01*
X166943761Y-84071666D01*
X166943761Y-85595476D01*
X166943761Y-80833571D02*
X168848523Y-80833571D01*
X164848523Y-82166904D02*
X166943761Y-80833571D01*
X164848523Y-79500238D01*
X142224714Y-63405000D02*
X142224714Y-60357380D01*
X143748523Y-61881190D02*
X140700904Y-61881190D01*
X142224714Y-58452619D02*
X142224714Y-55405000D01*
X143748523Y-56928809D02*
X140700904Y-56928809D01*
X184950714Y-142531000D02*
X184950714Y-139483380D01*
X186474523Y-141007190D02*
X183426904Y-141007190D01*
X184950714Y-137578619D02*
X184950714Y-134531000D01*
X186474523Y-136054809D02*
X183426904Y-136054809D01*
M02*
