G04 #@! TF.GenerationSoftware,KiCad,Pcbnew,(5.1.5)-3*
G04 #@! TF.CreationDate,2020-04-19T21:11:22+01:00*
G04 #@! TF.ProjectId,langpie,6c616e67-7069-4652-9e6b-696361645f70,rev?*
G04 #@! TF.SameCoordinates,Original*
G04 #@! TF.FileFunction,Legend,Top*
G04 #@! TF.FilePolarity,Positive*
%FSLAX46Y46*%
G04 Gerber Fmt 4.6, Leading zero omitted, Abs format (unit mm)*
G04 Created by KiCad (PCBNEW (5.1.5)-3) date 2020-04-19 21:11:22*
%MOMM*%
%LPD*%
G04 APERTURE LIST*
%ADD10C,0.200000*%
%ADD11C,0.150000*%
%ADD12C,0.120000*%
%ADD13C,0.300000*%
%ADD14C,0.500000*%
G04 APERTURE END LIST*
D10*
X153493571Y-139509571D02*
X152636428Y-139509571D01*
X153065000Y-139509571D02*
X153065000Y-138009571D01*
X152922142Y-138223857D01*
X152779285Y-138366714D01*
X152636428Y-138438142D01*
X154350714Y-138652428D02*
X154207857Y-138581000D01*
X154136428Y-138509571D01*
X154065000Y-138366714D01*
X154065000Y-138295285D01*
X154136428Y-138152428D01*
X154207857Y-138081000D01*
X154350714Y-138009571D01*
X154636428Y-138009571D01*
X154779285Y-138081000D01*
X154850714Y-138152428D01*
X154922142Y-138295285D01*
X154922142Y-138366714D01*
X154850714Y-138509571D01*
X154779285Y-138581000D01*
X154636428Y-138652428D01*
X154350714Y-138652428D01*
X154207857Y-138723857D01*
X154136428Y-138795285D01*
X154065000Y-138938142D01*
X154065000Y-139223857D01*
X154136428Y-139366714D01*
X154207857Y-139438142D01*
X154350714Y-139509571D01*
X154636428Y-139509571D01*
X154779285Y-139438142D01*
X154850714Y-139366714D01*
X154922142Y-139223857D01*
X154922142Y-138938142D01*
X154850714Y-138795285D01*
X154779285Y-138723857D01*
X154636428Y-138652428D01*
X156207857Y-138009571D02*
X155922142Y-138009571D01*
X155779285Y-138081000D01*
X155707857Y-138152428D01*
X155565000Y-138366714D01*
X155493571Y-138652428D01*
X155493571Y-139223857D01*
X155565000Y-139366714D01*
X155636428Y-139438142D01*
X155779285Y-139509571D01*
X156065000Y-139509571D01*
X156207857Y-139438142D01*
X156279285Y-139366714D01*
X156350714Y-139223857D01*
X156350714Y-138866714D01*
X156279285Y-138723857D01*
X156207857Y-138652428D01*
X156065000Y-138581000D01*
X155779285Y-138581000D01*
X155636428Y-138652428D01*
X155565000Y-138723857D01*
X155493571Y-138866714D01*
X157707857Y-138009571D02*
X156993571Y-138009571D01*
X156922142Y-138723857D01*
X156993571Y-138652428D01*
X157136428Y-138581000D01*
X157493571Y-138581000D01*
X157636428Y-138652428D01*
X157707857Y-138723857D01*
X157779285Y-138866714D01*
X157779285Y-139223857D01*
X157707857Y-139366714D01*
X157636428Y-139438142D01*
X157493571Y-139509571D01*
X157136428Y-139509571D01*
X156993571Y-139438142D01*
X156922142Y-139366714D01*
X158707857Y-138009571D02*
X158850714Y-138009571D01*
X158993571Y-138081000D01*
X159065000Y-138152428D01*
X159136428Y-138295285D01*
X159207857Y-138581000D01*
X159207857Y-138938142D01*
X159136428Y-139223857D01*
X159065000Y-139366714D01*
X158993571Y-139438142D01*
X158850714Y-139509571D01*
X158707857Y-139509571D01*
X158565000Y-139438142D01*
X158493571Y-139366714D01*
X158422142Y-139223857D01*
X158350714Y-138938142D01*
X158350714Y-138581000D01*
X158422142Y-138295285D01*
X158493571Y-138152428D01*
X158565000Y-138081000D01*
X158707857Y-138009571D01*
X161707857Y-139509571D02*
X160993571Y-139509571D01*
X160993571Y-138009571D01*
X162207857Y-139509571D02*
X162207857Y-138509571D01*
X162207857Y-138009571D02*
X162136428Y-138081000D01*
X162207857Y-138152428D01*
X162279285Y-138081000D01*
X162207857Y-138009571D01*
X162207857Y-138152428D01*
X162922142Y-138938142D02*
X164065000Y-138938142D01*
X164779285Y-139509571D02*
X164779285Y-138509571D01*
X164779285Y-138009571D02*
X164707857Y-138081000D01*
X164779285Y-138152428D01*
X164850714Y-138081000D01*
X164779285Y-138009571D01*
X164779285Y-138152428D01*
X165707857Y-139509571D02*
X165565000Y-139438142D01*
X165493571Y-139366714D01*
X165422142Y-139223857D01*
X165422142Y-138795285D01*
X165493571Y-138652428D01*
X165565000Y-138581000D01*
X165707857Y-138509571D01*
X165922142Y-138509571D01*
X166065000Y-138581000D01*
X166136428Y-138652428D01*
X166207857Y-138795285D01*
X166207857Y-139223857D01*
X166136428Y-139366714D01*
X166065000Y-139438142D01*
X165922142Y-139509571D01*
X165707857Y-139509571D01*
X166850714Y-138509571D02*
X166850714Y-139509571D01*
X166850714Y-138652428D02*
X166922142Y-138581000D01*
X167065000Y-138509571D01*
X167279285Y-138509571D01*
X167422142Y-138581000D01*
X167493571Y-138723857D01*
X167493571Y-139509571D01*
X169850714Y-138723857D02*
X170065000Y-138795285D01*
X170136428Y-138866714D01*
X170207857Y-139009571D01*
X170207857Y-139223857D01*
X170136428Y-139366714D01*
X170065000Y-139438142D01*
X169922142Y-139509571D01*
X169350714Y-139509571D01*
X169350714Y-138009571D01*
X169850714Y-138009571D01*
X169993571Y-138081000D01*
X170065000Y-138152428D01*
X170136428Y-138295285D01*
X170136428Y-138438142D01*
X170065000Y-138581000D01*
X169993571Y-138652428D01*
X169850714Y-138723857D01*
X169350714Y-138723857D01*
X171493571Y-139509571D02*
X171493571Y-138723857D01*
X171422142Y-138581000D01*
X171279285Y-138509571D01*
X170993571Y-138509571D01*
X170850714Y-138581000D01*
X171493571Y-139438142D02*
X171350714Y-139509571D01*
X170993571Y-139509571D01*
X170850714Y-139438142D01*
X170779285Y-139295285D01*
X170779285Y-139152428D01*
X170850714Y-139009571D01*
X170993571Y-138938142D01*
X171350714Y-138938142D01*
X171493571Y-138866714D01*
X171993571Y-138509571D02*
X172565000Y-138509571D01*
X172207857Y-138009571D02*
X172207857Y-139295285D01*
X172279285Y-139438142D01*
X172422142Y-139509571D01*
X172565000Y-139509571D01*
X172850714Y-138509571D02*
X173422142Y-138509571D01*
X173065000Y-138009571D02*
X173065000Y-139295285D01*
X173136428Y-139438142D01*
X173279285Y-139509571D01*
X173422142Y-139509571D01*
X174493571Y-139438142D02*
X174350714Y-139509571D01*
X174065000Y-139509571D01*
X173922142Y-139438142D01*
X173850714Y-139295285D01*
X173850714Y-138723857D01*
X173922142Y-138581000D01*
X174065000Y-138509571D01*
X174350714Y-138509571D01*
X174493571Y-138581000D01*
X174565000Y-138723857D01*
X174565000Y-138866714D01*
X173850714Y-139009571D01*
X175207857Y-139509571D02*
X175207857Y-138509571D01*
X175207857Y-138795285D02*
X175279285Y-138652428D01*
X175350714Y-138581000D01*
X175493571Y-138509571D01*
X175636428Y-138509571D01*
X175993571Y-138509571D02*
X176350714Y-139509571D01*
X176707857Y-138509571D02*
X176350714Y-139509571D01*
X176207857Y-139866714D01*
X176136428Y-139938142D01*
X175993571Y-140009571D01*
X178636428Y-138009571D02*
X178636428Y-138366714D01*
X178279285Y-138223857D02*
X178636428Y-138366714D01*
X178993571Y-138223857D01*
X178422142Y-138652428D02*
X178636428Y-138366714D01*
X178850714Y-138652428D01*
X180636428Y-138152428D02*
X180707857Y-138081000D01*
X180850714Y-138009571D01*
X181207857Y-138009571D01*
X181350714Y-138081000D01*
X181422142Y-138152428D01*
X181493571Y-138295285D01*
X181493571Y-138438142D01*
X181422142Y-138652428D01*
X180565000Y-139509571D01*
X181493571Y-139509571D01*
D11*
X128107857Y-60681000D02*
X128822142Y-60681000D01*
X127965000Y-61109571D02*
X128465000Y-59609571D01*
X128965000Y-61109571D01*
X127707857Y-138381000D02*
X128422142Y-138381000D01*
X127565000Y-138809571D02*
X128065000Y-137309571D01*
X128565000Y-138809571D01*
X191684047Y-98902428D02*
X192445952Y-98902428D01*
X192065000Y-99283380D02*
X192065000Y-98521476D01*
X191684047Y-90102428D02*
X192445952Y-90102428D01*
X192065000Y-90483380D02*
X192065000Y-89721476D01*
X191584047Y-107802428D02*
X192345952Y-107802428D01*
X191965000Y-108183380D02*
X191965000Y-107421476D01*
D10*
X127215000Y-55284571D02*
X126500714Y-55284571D01*
X126500714Y-53784571D01*
X128357857Y-55284571D02*
X128357857Y-54498857D01*
X128286428Y-54356000D01*
X128143571Y-54284571D01*
X127857857Y-54284571D01*
X127715000Y-54356000D01*
X128357857Y-55213142D02*
X128215000Y-55284571D01*
X127857857Y-55284571D01*
X127715000Y-55213142D01*
X127643571Y-55070285D01*
X127643571Y-54927428D01*
X127715000Y-54784571D01*
X127857857Y-54713142D01*
X128215000Y-54713142D01*
X128357857Y-54641714D01*
X129072142Y-54284571D02*
X129072142Y-55284571D01*
X129072142Y-54427428D02*
X129143571Y-54356000D01*
X129286428Y-54284571D01*
X129500714Y-54284571D01*
X129643571Y-54356000D01*
X129715000Y-54498857D01*
X129715000Y-55284571D01*
X131072142Y-54284571D02*
X131072142Y-55498857D01*
X131000714Y-55641714D01*
X130929285Y-55713142D01*
X130786428Y-55784571D01*
X130572142Y-55784571D01*
X130429285Y-55713142D01*
X131072142Y-55213142D02*
X130929285Y-55284571D01*
X130643571Y-55284571D01*
X130500714Y-55213142D01*
X130429285Y-55141714D01*
X130357857Y-54998857D01*
X130357857Y-54570285D01*
X130429285Y-54427428D01*
X130500714Y-54356000D01*
X130643571Y-54284571D01*
X130929285Y-54284571D01*
X131072142Y-54356000D01*
X131786428Y-54284571D02*
X131786428Y-55784571D01*
X131786428Y-54356000D02*
X131929285Y-54284571D01*
X132215000Y-54284571D01*
X132357857Y-54356000D01*
X132429285Y-54427428D01*
X132500714Y-54570285D01*
X132500714Y-54998857D01*
X132429285Y-55141714D01*
X132357857Y-55213142D01*
X132215000Y-55284571D01*
X131929285Y-55284571D01*
X131786428Y-55213142D01*
X133143571Y-55284571D02*
X133143571Y-54284571D01*
X133143571Y-53784571D02*
X133072142Y-53856000D01*
X133143571Y-53927428D01*
X133215000Y-53856000D01*
X133143571Y-53784571D01*
X133143571Y-53927428D01*
X134429285Y-55213142D02*
X134286428Y-55284571D01*
X134000714Y-55284571D01*
X133857857Y-55213142D01*
X133786428Y-55070285D01*
X133786428Y-54498857D01*
X133857857Y-54356000D01*
X134000714Y-54284571D01*
X134286428Y-54284571D01*
X134429285Y-54356000D01*
X134500714Y-54498857D01*
X134500714Y-54641714D01*
X133786428Y-54784571D01*
X136072142Y-53784571D02*
X136572142Y-55284571D01*
X137072142Y-53784571D01*
X138357857Y-55284571D02*
X137500714Y-55284571D01*
X137929285Y-55284571D02*
X137929285Y-53784571D01*
X137786428Y-53998857D01*
X137643571Y-54141714D01*
X137500714Y-54213142D01*
X139000714Y-55141714D02*
X139072142Y-55213142D01*
X139000714Y-55284571D01*
X138929285Y-55213142D01*
X139000714Y-55141714D01*
X139000714Y-55284571D01*
X140000714Y-53784571D02*
X140143571Y-53784571D01*
X140286428Y-53856000D01*
X140357857Y-53927428D01*
X140429285Y-54070285D01*
X140500714Y-54356000D01*
X140500714Y-54713142D01*
X140429285Y-54998857D01*
X140357857Y-55141714D01*
X140286428Y-55213142D01*
X140143571Y-55284571D01*
X140000714Y-55284571D01*
X139857857Y-55213142D01*
X139786428Y-55141714D01*
X139715000Y-54998857D01*
X139643571Y-54713142D01*
X139643571Y-54356000D01*
X139715000Y-54070285D01*
X139786428Y-53927428D01*
X139857857Y-53856000D01*
X140000714Y-53784571D01*
X126179285Y-56377428D02*
X126250714Y-56306000D01*
X126393571Y-56234571D01*
X126750714Y-56234571D01*
X126893571Y-56306000D01*
X126965000Y-56377428D01*
X127036428Y-56520285D01*
X127036428Y-56663142D01*
X126965000Y-56877428D01*
X126107857Y-57734571D01*
X127036428Y-57734571D01*
X127965000Y-56234571D02*
X128107857Y-56234571D01*
X128250714Y-56306000D01*
X128322142Y-56377428D01*
X128393571Y-56520285D01*
X128465000Y-56806000D01*
X128465000Y-57163142D01*
X128393571Y-57448857D01*
X128322142Y-57591714D01*
X128250714Y-57663142D01*
X128107857Y-57734571D01*
X127965000Y-57734571D01*
X127822142Y-57663142D01*
X127750714Y-57591714D01*
X127679285Y-57448857D01*
X127607857Y-57163142D01*
X127607857Y-56806000D01*
X127679285Y-56520285D01*
X127750714Y-56377428D01*
X127822142Y-56306000D01*
X127965000Y-56234571D01*
X129107857Y-57163142D02*
X130250714Y-57163142D01*
X131250714Y-56234571D02*
X131393571Y-56234571D01*
X131536428Y-56306000D01*
X131607857Y-56377428D01*
X131679285Y-56520285D01*
X131750714Y-56806000D01*
X131750714Y-57163142D01*
X131679285Y-57448857D01*
X131607857Y-57591714D01*
X131536428Y-57663142D01*
X131393571Y-57734571D01*
X131250714Y-57734571D01*
X131107857Y-57663142D01*
X131036428Y-57591714D01*
X130965000Y-57448857D01*
X130893571Y-57163142D01*
X130893571Y-56806000D01*
X130965000Y-56520285D01*
X131036428Y-56377428D01*
X131107857Y-56306000D01*
X131250714Y-56234571D01*
X133036428Y-56734571D02*
X133036428Y-57734571D01*
X132679285Y-56163142D02*
X132322142Y-57234571D01*
X133250714Y-57234571D01*
X133822142Y-57163142D02*
X134965000Y-57163142D01*
X135607857Y-56377428D02*
X135679285Y-56306000D01*
X135822142Y-56234571D01*
X136179285Y-56234571D01*
X136322142Y-56306000D01*
X136393571Y-56377428D01*
X136465000Y-56520285D01*
X136465000Y-56663142D01*
X136393571Y-56877428D01*
X135536428Y-57734571D01*
X136465000Y-57734571D01*
X137393571Y-56234571D02*
X137536428Y-56234571D01*
X137679285Y-56306000D01*
X137750714Y-56377428D01*
X137822142Y-56520285D01*
X137893571Y-56806000D01*
X137893571Y-57163142D01*
X137822142Y-57448857D01*
X137750714Y-57591714D01*
X137679285Y-57663142D01*
X137536428Y-57734571D01*
X137393571Y-57734571D01*
X137250714Y-57663142D01*
X137179285Y-57591714D01*
X137107857Y-57448857D01*
X137036428Y-57163142D01*
X137036428Y-56806000D01*
X137107857Y-56520285D01*
X137179285Y-56377428D01*
X137250714Y-56306000D01*
X137393571Y-56234571D01*
X138465000Y-56377428D02*
X138536428Y-56306000D01*
X138679285Y-56234571D01*
X139036428Y-56234571D01*
X139179285Y-56306000D01*
X139250714Y-56377428D01*
X139322142Y-56520285D01*
X139322142Y-56663142D01*
X139250714Y-56877428D01*
X138393571Y-57734571D01*
X139322142Y-57734571D01*
X140250714Y-56234571D02*
X140393571Y-56234571D01*
X140536428Y-56306000D01*
X140607857Y-56377428D01*
X140679285Y-56520285D01*
X140750714Y-56806000D01*
X140750714Y-57163142D01*
X140679285Y-57448857D01*
X140607857Y-57591714D01*
X140536428Y-57663142D01*
X140393571Y-57734571D01*
X140250714Y-57734571D01*
X140107857Y-57663142D01*
X140036428Y-57591714D01*
X139965000Y-57448857D01*
X139893571Y-57163142D01*
X139893571Y-56806000D01*
X139965000Y-56520285D01*
X140036428Y-56377428D01*
X140107857Y-56306000D01*
X140250714Y-56234571D01*
X126493571Y-50009571D02*
X126493571Y-51223857D01*
X126565000Y-51366714D01*
X126636428Y-51438142D01*
X126779285Y-51509571D01*
X127065000Y-51509571D01*
X127207857Y-51438142D01*
X127279285Y-51366714D01*
X127350714Y-51223857D01*
X127350714Y-50009571D01*
X128922142Y-51509571D02*
X128422142Y-50795285D01*
X128065000Y-51509571D02*
X128065000Y-50009571D01*
X128636428Y-50009571D01*
X128779285Y-50081000D01*
X128850714Y-50152428D01*
X128922142Y-50295285D01*
X128922142Y-50509571D01*
X128850714Y-50652428D01*
X128779285Y-50723857D01*
X128636428Y-50795285D01*
X128065000Y-50795285D01*
X130279285Y-51509571D02*
X129565000Y-51509571D01*
X129565000Y-50009571D01*
X130779285Y-51366714D02*
X130850714Y-51438142D01*
X130779285Y-51509571D01*
X130707857Y-51438142D01*
X130779285Y-51366714D01*
X130779285Y-51509571D01*
X130779285Y-50581000D02*
X130850714Y-50652428D01*
X130779285Y-50723857D01*
X130707857Y-50652428D01*
X130779285Y-50581000D01*
X130779285Y-50723857D01*
X132850714Y-51509571D02*
X132707857Y-51438142D01*
X132636428Y-51295285D01*
X132636428Y-50009571D01*
X134065000Y-51509571D02*
X134065000Y-50723857D01*
X133993571Y-50581000D01*
X133850714Y-50509571D01*
X133565000Y-50509571D01*
X133422142Y-50581000D01*
X134065000Y-51438142D02*
X133922142Y-51509571D01*
X133565000Y-51509571D01*
X133422142Y-51438142D01*
X133350714Y-51295285D01*
X133350714Y-51152428D01*
X133422142Y-51009571D01*
X133565000Y-50938142D01*
X133922142Y-50938142D01*
X134065000Y-50866714D01*
X134779285Y-50509571D02*
X134779285Y-51509571D01*
X134779285Y-50652428D02*
X134850714Y-50581000D01*
X134993571Y-50509571D01*
X135207857Y-50509571D01*
X135350714Y-50581000D01*
X135422142Y-50723857D01*
X135422142Y-51509571D01*
X136779285Y-50509571D02*
X136779285Y-51723857D01*
X136707857Y-51866714D01*
X136636428Y-51938142D01*
X136493571Y-52009571D01*
X136279285Y-52009571D01*
X136136428Y-51938142D01*
X136779285Y-51438142D02*
X136636428Y-51509571D01*
X136350714Y-51509571D01*
X136207857Y-51438142D01*
X136136428Y-51366714D01*
X136065000Y-51223857D01*
X136065000Y-50795285D01*
X136136428Y-50652428D01*
X136207857Y-50581000D01*
X136350714Y-50509571D01*
X136636428Y-50509571D01*
X136779285Y-50581000D01*
X137493571Y-50509571D02*
X137493571Y-52009571D01*
X137493571Y-50581000D02*
X137636428Y-50509571D01*
X137922142Y-50509571D01*
X138065000Y-50581000D01*
X138136428Y-50652428D01*
X138207857Y-50795285D01*
X138207857Y-51223857D01*
X138136428Y-51366714D01*
X138065000Y-51438142D01*
X137922142Y-51509571D01*
X137636428Y-51509571D01*
X137493571Y-51438142D01*
X138850714Y-51509571D02*
X138850714Y-50509571D01*
X138850714Y-50009571D02*
X138779285Y-50081000D01*
X138850714Y-50152428D01*
X138922142Y-50081000D01*
X138850714Y-50009571D01*
X138850714Y-50152428D01*
X140136428Y-51438142D02*
X139993571Y-51509571D01*
X139707857Y-51509571D01*
X139565000Y-51438142D01*
X139493571Y-51295285D01*
X139493571Y-50723857D01*
X139565000Y-50581000D01*
X139707857Y-50509571D01*
X139993571Y-50509571D01*
X140136428Y-50581000D01*
X140207857Y-50723857D01*
X140207857Y-50866714D01*
X139493571Y-51009571D01*
X140850714Y-51366714D02*
X140922142Y-51438142D01*
X140850714Y-51509571D01*
X140779285Y-51438142D01*
X140850714Y-51366714D01*
X140850714Y-51509571D01*
X142207857Y-50509571D02*
X142207857Y-51723857D01*
X142136428Y-51866714D01*
X142065000Y-51938142D01*
X141922142Y-52009571D01*
X141707857Y-52009571D01*
X141565000Y-51938142D01*
X142207857Y-51438142D02*
X142065000Y-51509571D01*
X141779285Y-51509571D01*
X141636428Y-51438142D01*
X141565000Y-51366714D01*
X141493571Y-51223857D01*
X141493571Y-50795285D01*
X141565000Y-50652428D01*
X141636428Y-50581000D01*
X141779285Y-50509571D01*
X142065000Y-50509571D01*
X142207857Y-50581000D01*
X142922142Y-51509571D02*
X142922142Y-50509571D01*
X142922142Y-50009571D02*
X142850714Y-50081000D01*
X142922142Y-50152428D01*
X142993571Y-50081000D01*
X142922142Y-50009571D01*
X142922142Y-50152428D01*
X143422142Y-50509571D02*
X143993571Y-50509571D01*
X143636428Y-50009571D02*
X143636428Y-51295285D01*
X143707857Y-51438142D01*
X143850714Y-51509571D01*
X143993571Y-51509571D01*
X144493571Y-51509571D02*
X144493571Y-50009571D01*
X145136428Y-51509571D02*
X145136428Y-50723857D01*
X145065000Y-50581000D01*
X144922142Y-50509571D01*
X144707857Y-50509571D01*
X144565000Y-50581000D01*
X144493571Y-50652428D01*
X146493571Y-50509571D02*
X146493571Y-51509571D01*
X145850714Y-50509571D02*
X145850714Y-51295285D01*
X145922142Y-51438142D01*
X146065000Y-51509571D01*
X146279285Y-51509571D01*
X146422142Y-51438142D01*
X146493571Y-51366714D01*
X147207857Y-51509571D02*
X147207857Y-50009571D01*
X147207857Y-50581000D02*
X147350714Y-50509571D01*
X147636428Y-50509571D01*
X147779285Y-50581000D01*
X147850714Y-50652428D01*
X147922142Y-50795285D01*
X147922142Y-51223857D01*
X147850714Y-51366714D01*
X147779285Y-51438142D01*
X147636428Y-51509571D01*
X147350714Y-51509571D01*
X147207857Y-51438142D01*
X148565000Y-51366714D02*
X148636428Y-51438142D01*
X148565000Y-51509571D01*
X148493571Y-51438142D01*
X148565000Y-51366714D01*
X148565000Y-51509571D01*
X149279285Y-51509571D02*
X149279285Y-50509571D01*
X149279285Y-50009571D02*
X149207857Y-50081000D01*
X149279285Y-50152428D01*
X149350714Y-50081000D01*
X149279285Y-50009571D01*
X149279285Y-50152428D01*
X150207857Y-51509571D02*
X150065000Y-51438142D01*
X149993571Y-51366714D01*
X149922142Y-51223857D01*
X149922142Y-50795285D01*
X149993571Y-50652428D01*
X150065000Y-50581000D01*
X150207857Y-50509571D01*
X150422142Y-50509571D01*
X150565000Y-50581000D01*
X150636428Y-50652428D01*
X150707857Y-50795285D01*
X150707857Y-51223857D01*
X150636428Y-51366714D01*
X150565000Y-51438142D01*
X150422142Y-51509571D01*
X150207857Y-51509571D01*
X98322142Y-107509571D02*
X98322142Y-106009571D01*
X98893571Y-106009571D01*
X99036428Y-106081000D01*
X99107857Y-106152428D01*
X99179285Y-106295285D01*
X99179285Y-106509571D01*
X99107857Y-106652428D01*
X99036428Y-106723857D01*
X98893571Y-106795285D01*
X98322142Y-106795285D01*
X99679285Y-106009571D02*
X100036428Y-107509571D01*
X100322142Y-106438142D01*
X100607857Y-107509571D01*
X100965000Y-106009571D01*
X102393571Y-107509571D02*
X101893571Y-106795285D01*
X101536428Y-107509571D02*
X101536428Y-106009571D01*
X102107857Y-106009571D01*
X102250714Y-106081000D01*
X102322142Y-106152428D01*
X102393571Y-106295285D01*
X102393571Y-106509571D01*
X102322142Y-106652428D01*
X102250714Y-106723857D01*
X102107857Y-106795285D01*
X101536428Y-106795285D01*
X104107857Y-107438142D02*
X104322142Y-107509571D01*
X104679285Y-107509571D01*
X104822142Y-107438142D01*
X104893571Y-107366714D01*
X104965000Y-107223857D01*
X104965000Y-107081000D01*
X104893571Y-106938142D01*
X104822142Y-106866714D01*
X104679285Y-106795285D01*
X104393571Y-106723857D01*
X104250714Y-106652428D01*
X104179285Y-106581000D01*
X104107857Y-106438142D01*
X104107857Y-106295285D01*
X104179285Y-106152428D01*
X104250714Y-106081000D01*
X104393571Y-106009571D01*
X104750714Y-106009571D01*
X104965000Y-106081000D01*
X105465000Y-106009571D02*
X105822142Y-107509571D01*
X106107857Y-106438142D01*
X106393571Y-107509571D01*
X106750714Y-106009571D01*
X98215000Y-89809571D02*
X98215000Y-91023857D01*
X98286428Y-91166714D01*
X98357857Y-91238142D01*
X98500714Y-91309571D01*
X98786428Y-91309571D01*
X98929285Y-91238142D01*
X99000714Y-91166714D01*
X99072142Y-91023857D01*
X99072142Y-89809571D01*
X99715000Y-91238142D02*
X99929285Y-91309571D01*
X100286428Y-91309571D01*
X100429285Y-91238142D01*
X100500714Y-91166714D01*
X100572142Y-91023857D01*
X100572142Y-90881000D01*
X100500714Y-90738142D01*
X100429285Y-90666714D01*
X100286428Y-90595285D01*
X100000714Y-90523857D01*
X99857857Y-90452428D01*
X99786428Y-90381000D01*
X99715000Y-90238142D01*
X99715000Y-90095285D01*
X99786428Y-89952428D01*
X99857857Y-89881000D01*
X100000714Y-89809571D01*
X100357857Y-89809571D01*
X100572142Y-89881000D01*
X101715000Y-90523857D02*
X101929285Y-90595285D01*
X102000714Y-90666714D01*
X102072142Y-90809571D01*
X102072142Y-91023857D01*
X102000714Y-91166714D01*
X101929285Y-91238142D01*
X101786428Y-91309571D01*
X101215000Y-91309571D01*
X101215000Y-89809571D01*
X101715000Y-89809571D01*
X101857857Y-89881000D01*
X101929285Y-89952428D01*
X102000714Y-90095285D01*
X102000714Y-90238142D01*
X101929285Y-90381000D01*
X101857857Y-90452428D01*
X101715000Y-90523857D01*
X101215000Y-90523857D01*
X104715000Y-91166714D02*
X104643571Y-91238142D01*
X104429285Y-91309571D01*
X104286428Y-91309571D01*
X104072142Y-91238142D01*
X103929285Y-91095285D01*
X103857857Y-90952428D01*
X103786428Y-90666714D01*
X103786428Y-90452428D01*
X103857857Y-90166714D01*
X103929285Y-90023857D01*
X104072142Y-89881000D01*
X104286428Y-89809571D01*
X104429285Y-89809571D01*
X104643571Y-89881000D01*
X104715000Y-89952428D01*
X105357857Y-91309571D02*
X105357857Y-89809571D01*
X105357857Y-90523857D02*
X106215000Y-90523857D01*
X106215000Y-91309571D02*
X106215000Y-89809571D01*
X107715000Y-89881000D02*
X107572142Y-89809571D01*
X107357857Y-89809571D01*
X107143571Y-89881000D01*
X107000714Y-90023857D01*
X106929285Y-90166714D01*
X106857857Y-90452428D01*
X106857857Y-90666714D01*
X106929285Y-90952428D01*
X107000714Y-91095285D01*
X107143571Y-91238142D01*
X107357857Y-91309571D01*
X107500714Y-91309571D01*
X107715000Y-91238142D01*
X107786428Y-91166714D01*
X107786428Y-90666714D01*
X107500714Y-90666714D01*
X109972142Y-78581000D02*
X110686428Y-78581000D01*
X109829285Y-79009571D02*
X110329285Y-77509571D01*
X110829285Y-79009571D01*
X111257857Y-78938142D02*
X111400714Y-79009571D01*
X111686428Y-79009571D01*
X111829285Y-78938142D01*
X111900714Y-78795285D01*
X111900714Y-78723857D01*
X111829285Y-78581000D01*
X111686428Y-78509571D01*
X111472142Y-78509571D01*
X111329285Y-78438142D01*
X111257857Y-78295285D01*
X111257857Y-78223857D01*
X111329285Y-78081000D01*
X111472142Y-78009571D01*
X111686428Y-78009571D01*
X111829285Y-78081000D01*
X114543571Y-79009571D02*
X114043571Y-78295285D01*
X113686428Y-79009571D02*
X113686428Y-77509571D01*
X114257857Y-77509571D01*
X114400714Y-77581000D01*
X114472142Y-77652428D01*
X114543571Y-77795285D01*
X114543571Y-78009571D01*
X114472142Y-78152428D01*
X114400714Y-78223857D01*
X114257857Y-78295285D01*
X113686428Y-78295285D01*
X115186428Y-79009571D02*
X115186428Y-77509571D01*
X115757857Y-77509571D01*
X115900714Y-77581000D01*
X115972142Y-77652428D01*
X116043571Y-77795285D01*
X116043571Y-78009571D01*
X115972142Y-78152428D01*
X115900714Y-78223857D01*
X115757857Y-78295285D01*
X115186428Y-78295285D01*
X116686428Y-79009571D02*
X116686428Y-78009571D01*
X116686428Y-77509571D02*
X116615000Y-77581000D01*
X116686428Y-77652428D01*
X116757857Y-77581000D01*
X116686428Y-77509571D01*
X116686428Y-77652428D01*
X118543571Y-79009571D02*
X118543571Y-77509571D01*
X119115000Y-77509571D01*
X119257857Y-77581000D01*
X119329285Y-77652428D01*
X119400714Y-77795285D01*
X119400714Y-78009571D01*
X119329285Y-78152428D01*
X119257857Y-78223857D01*
X119115000Y-78295285D01*
X118543571Y-78295285D01*
X120043571Y-79009571D02*
X120043571Y-78009571D01*
X120043571Y-77509571D02*
X119972142Y-77581000D01*
X120043571Y-77652428D01*
X120115000Y-77581000D01*
X120043571Y-77509571D01*
X120043571Y-77652428D01*
X120757857Y-78009571D02*
X120757857Y-79009571D01*
X120757857Y-78152428D02*
X120829285Y-78081000D01*
X120972142Y-78009571D01*
X121186428Y-78009571D01*
X121329285Y-78081000D01*
X121400714Y-78223857D01*
X121400714Y-79009571D01*
X122329285Y-79009571D02*
X122186428Y-78938142D01*
X122115000Y-78866714D01*
X122043571Y-78723857D01*
X122043571Y-78295285D01*
X122115000Y-78152428D01*
X122186428Y-78081000D01*
X122329285Y-78009571D01*
X122543571Y-78009571D01*
X122686428Y-78081000D01*
X122757857Y-78152428D01*
X122829285Y-78295285D01*
X122829285Y-78723857D01*
X122757857Y-78866714D01*
X122686428Y-78938142D01*
X122543571Y-79009571D01*
X122329285Y-79009571D01*
X124115000Y-78009571D02*
X124115000Y-79009571D01*
X123472142Y-78009571D02*
X123472142Y-78795285D01*
X123543571Y-78938142D01*
X123686428Y-79009571D01*
X123900714Y-79009571D01*
X124043571Y-78938142D01*
X124115000Y-78866714D01*
X124615000Y-78009571D02*
X125186428Y-78009571D01*
X124829285Y-77509571D02*
X124829285Y-78795285D01*
X124900714Y-78938142D01*
X125043571Y-79009571D01*
X125186428Y-79009571D01*
X125686428Y-78438142D02*
X126829285Y-78438142D01*
X127543571Y-78009571D02*
X128686428Y-78438142D01*
X127543571Y-78866714D01*
X195143571Y-108981000D02*
X196643571Y-108481000D01*
X195143571Y-107981000D01*
X195143571Y-107481000D02*
X196357857Y-107481000D01*
X196500714Y-107409571D01*
X196572142Y-107338142D01*
X196643571Y-107195285D01*
X196643571Y-106909571D01*
X196572142Y-106766714D01*
X196500714Y-106695285D01*
X196357857Y-106623857D01*
X195143571Y-106623857D01*
X196572142Y-105981000D02*
X196643571Y-105766714D01*
X196643571Y-105409571D01*
X196572142Y-105266714D01*
X196500714Y-105195285D01*
X196357857Y-105123857D01*
X196215000Y-105123857D01*
X196072142Y-105195285D01*
X196000714Y-105266714D01*
X195929285Y-105409571D01*
X195857857Y-105695285D01*
X195786428Y-105838142D01*
X195715000Y-105909571D01*
X195572142Y-105981000D01*
X195429285Y-105981000D01*
X195286428Y-105909571D01*
X195215000Y-105838142D01*
X195143571Y-105695285D01*
X195143571Y-105338142D01*
X195215000Y-105123857D01*
X195857857Y-103981000D02*
X195929285Y-103766714D01*
X196000714Y-103695285D01*
X196143571Y-103623857D01*
X196357857Y-103623857D01*
X196500714Y-103695285D01*
X196572142Y-103766714D01*
X196643571Y-103909571D01*
X196643571Y-104481000D01*
X195143571Y-104481000D01*
X195143571Y-103981000D01*
X195215000Y-103838142D01*
X195286428Y-103766714D01*
X195429285Y-103695285D01*
X195572142Y-103695285D01*
X195715000Y-103766714D01*
X195786428Y-103838142D01*
X195857857Y-103981000D01*
X195857857Y-104481000D01*
X195143571Y-88816714D02*
X195143571Y-89531000D01*
X195857857Y-89602428D01*
X195786428Y-89531000D01*
X195715000Y-89388142D01*
X195715000Y-89031000D01*
X195786428Y-88888142D01*
X195857857Y-88816714D01*
X196000714Y-88745285D01*
X196357857Y-88745285D01*
X196500714Y-88816714D01*
X196572142Y-88888142D01*
X196643571Y-89031000D01*
X196643571Y-89388142D01*
X196572142Y-89531000D01*
X196500714Y-89602428D01*
X195143571Y-88316714D02*
X196643571Y-87816714D01*
X195143571Y-87316714D01*
X196500714Y-98402428D02*
X196572142Y-98473857D01*
X196643571Y-98688142D01*
X196643571Y-98831000D01*
X196572142Y-99045285D01*
X196429285Y-99188142D01*
X196286428Y-99259571D01*
X196000714Y-99331000D01*
X195786428Y-99331000D01*
X195500714Y-99259571D01*
X195357857Y-99188142D01*
X195215000Y-99045285D01*
X195143571Y-98831000D01*
X195143571Y-98688142D01*
X195215000Y-98473857D01*
X195286428Y-98402428D01*
X196643571Y-97759571D02*
X195143571Y-97759571D01*
X195857857Y-97759571D02*
X195857857Y-96902428D01*
X196643571Y-96902428D02*
X195143571Y-96902428D01*
X195215000Y-95402428D02*
X195143571Y-95545285D01*
X195143571Y-95759571D01*
X195215000Y-95973857D01*
X195357857Y-96116714D01*
X195500714Y-96188142D01*
X195786428Y-96259571D01*
X196000714Y-96259571D01*
X196286428Y-96188142D01*
X196429285Y-96116714D01*
X196572142Y-95973857D01*
X196643571Y-95759571D01*
X196643571Y-95616714D01*
X196572142Y-95402428D01*
X196500714Y-95331000D01*
X196000714Y-95331000D01*
X196000714Y-95616714D01*
X120622142Y-95206000D02*
X120479285Y-95134571D01*
X120265000Y-95134571D01*
X120050714Y-95206000D01*
X119907857Y-95348857D01*
X119836428Y-95491714D01*
X119765000Y-95777428D01*
X119765000Y-95991714D01*
X119836428Y-96277428D01*
X119907857Y-96420285D01*
X120050714Y-96563142D01*
X120265000Y-96634571D01*
X120407857Y-96634571D01*
X120622142Y-96563142D01*
X120693571Y-96491714D01*
X120693571Y-95991714D01*
X120407857Y-95991714D01*
X121336428Y-96634571D02*
X121336428Y-95134571D01*
X122193571Y-96634571D01*
X122193571Y-95134571D01*
X122907857Y-96634571D02*
X122907857Y-95134571D01*
X123265000Y-95134571D01*
X123479285Y-95206000D01*
X123622142Y-95348857D01*
X123693571Y-95491714D01*
X123765000Y-95777428D01*
X123765000Y-95991714D01*
X123693571Y-96277428D01*
X123622142Y-96420285D01*
X123479285Y-96563142D01*
X123265000Y-96634571D01*
X122907857Y-96634571D01*
X121479285Y-97584571D02*
X120765000Y-97584571D01*
X120693571Y-98298857D01*
X120765000Y-98227428D01*
X120907857Y-98156000D01*
X121265000Y-98156000D01*
X121407857Y-98227428D01*
X121479285Y-98298857D01*
X121550714Y-98441714D01*
X121550714Y-98798857D01*
X121479285Y-98941714D01*
X121407857Y-99013142D01*
X121265000Y-99084571D01*
X120907857Y-99084571D01*
X120765000Y-99013142D01*
X120693571Y-98941714D01*
X121979285Y-97584571D02*
X122479285Y-99084571D01*
X122979285Y-97584571D01*
X119979285Y-101463142D02*
X120193571Y-101534571D01*
X120550714Y-101534571D01*
X120693571Y-101463142D01*
X120765000Y-101391714D01*
X120836428Y-101248857D01*
X120836428Y-101106000D01*
X120765000Y-100963142D01*
X120693571Y-100891714D01*
X120550714Y-100820285D01*
X120265000Y-100748857D01*
X120122142Y-100677428D01*
X120050714Y-100606000D01*
X119979285Y-100463142D01*
X119979285Y-100320285D01*
X120050714Y-100177428D01*
X120122142Y-100106000D01*
X120265000Y-100034571D01*
X120622142Y-100034571D01*
X120836428Y-100106000D01*
X122336428Y-101391714D02*
X122265000Y-101463142D01*
X122050714Y-101534571D01*
X121907857Y-101534571D01*
X121693571Y-101463142D01*
X121550714Y-101320285D01*
X121479285Y-101177428D01*
X121407857Y-100891714D01*
X121407857Y-100677428D01*
X121479285Y-100391714D01*
X121550714Y-100248857D01*
X121693571Y-100106000D01*
X121907857Y-100034571D01*
X122050714Y-100034571D01*
X122265000Y-100106000D01*
X122336428Y-100177428D01*
X123693571Y-101534571D02*
X122979285Y-101534571D01*
X122979285Y-100034571D01*
X119836428Y-103913142D02*
X120050714Y-103984571D01*
X120407857Y-103984571D01*
X120550714Y-103913142D01*
X120622142Y-103841714D01*
X120693571Y-103698857D01*
X120693571Y-103556000D01*
X120622142Y-103413142D01*
X120550714Y-103341714D01*
X120407857Y-103270285D01*
X120122142Y-103198857D01*
X119979285Y-103127428D01*
X119907857Y-103056000D01*
X119836428Y-102913142D01*
X119836428Y-102770285D01*
X119907857Y-102627428D01*
X119979285Y-102556000D01*
X120122142Y-102484571D01*
X120479285Y-102484571D01*
X120693571Y-102556000D01*
X122193571Y-103841714D02*
X122122142Y-103913142D01*
X121907857Y-103984571D01*
X121765000Y-103984571D01*
X121550714Y-103913142D01*
X121407857Y-103770285D01*
X121336428Y-103627428D01*
X121265000Y-103341714D01*
X121265000Y-103127428D01*
X121336428Y-102841714D01*
X121407857Y-102698857D01*
X121550714Y-102556000D01*
X121765000Y-102484571D01*
X121907857Y-102484571D01*
X122122142Y-102556000D01*
X122193571Y-102627428D01*
X122836428Y-103984571D02*
X122836428Y-102484571D01*
X123693571Y-103984571D02*
X123050714Y-103127428D01*
X123693571Y-102484571D02*
X122836428Y-103341714D01*
X128379285Y-145223857D02*
X128593571Y-145295285D01*
X128665000Y-145366714D01*
X128736428Y-145509571D01*
X128736428Y-145723857D01*
X128665000Y-145866714D01*
X128593571Y-145938142D01*
X128450714Y-146009571D01*
X127879285Y-146009571D01*
X127879285Y-144509571D01*
X128379285Y-144509571D01*
X128522142Y-144581000D01*
X128593571Y-144652428D01*
X128665000Y-144795285D01*
X128665000Y-144938142D01*
X128593571Y-145081000D01*
X128522142Y-145152428D01*
X128379285Y-145223857D01*
X127879285Y-145223857D01*
X130022142Y-146009571D02*
X130022142Y-145223857D01*
X129950714Y-145081000D01*
X129807857Y-145009571D01*
X129522142Y-145009571D01*
X129379285Y-145081000D01*
X130022142Y-145938142D02*
X129879285Y-146009571D01*
X129522142Y-146009571D01*
X129379285Y-145938142D01*
X129307857Y-145795285D01*
X129307857Y-145652428D01*
X129379285Y-145509571D01*
X129522142Y-145438142D01*
X129879285Y-145438142D01*
X130022142Y-145366714D01*
X130522142Y-145009571D02*
X131093571Y-145009571D01*
X130736428Y-144509571D02*
X130736428Y-145795285D01*
X130807857Y-145938142D01*
X130950714Y-146009571D01*
X131093571Y-146009571D01*
X131379285Y-145009571D02*
X131950714Y-145009571D01*
X131593571Y-144509571D02*
X131593571Y-145795285D01*
X131665000Y-145938142D01*
X131807857Y-146009571D01*
X131950714Y-146009571D01*
X133022142Y-145938142D02*
X132879285Y-146009571D01*
X132593571Y-146009571D01*
X132450714Y-145938142D01*
X132379285Y-145795285D01*
X132379285Y-145223857D01*
X132450714Y-145081000D01*
X132593571Y-145009571D01*
X132879285Y-145009571D01*
X133022142Y-145081000D01*
X133093571Y-145223857D01*
X133093571Y-145366714D01*
X132379285Y-145509571D01*
X133736428Y-146009571D02*
X133736428Y-145009571D01*
X133736428Y-145295285D02*
X133807857Y-145152428D01*
X133879285Y-145081000D01*
X134022142Y-145009571D01*
X134165000Y-145009571D01*
X134665000Y-146009571D02*
X134665000Y-145009571D01*
X134665000Y-144509571D02*
X134593571Y-144581000D01*
X134665000Y-144652428D01*
X134736428Y-144581000D01*
X134665000Y-144509571D01*
X134665000Y-144652428D01*
X135950714Y-145938142D02*
X135807857Y-146009571D01*
X135522142Y-146009571D01*
X135379285Y-145938142D01*
X135307857Y-145795285D01*
X135307857Y-145223857D01*
X135379285Y-145081000D01*
X135522142Y-145009571D01*
X135807857Y-145009571D01*
X135950714Y-145081000D01*
X136022142Y-145223857D01*
X136022142Y-145366714D01*
X135307857Y-145509571D01*
X136593571Y-145938142D02*
X136736428Y-146009571D01*
X137022142Y-146009571D01*
X137165000Y-145938142D01*
X137236428Y-145795285D01*
X137236428Y-145723857D01*
X137165000Y-145581000D01*
X137022142Y-145509571D01*
X136807857Y-145509571D01*
X136665000Y-145438142D01*
X136593571Y-145295285D01*
X136593571Y-145223857D01*
X136665000Y-145081000D01*
X136807857Y-145009571D01*
X137022142Y-145009571D01*
X137165000Y-145081000D01*
X139022142Y-146009571D02*
X139022142Y-144509571D01*
X139665000Y-146009571D02*
X139665000Y-145223857D01*
X139593571Y-145081000D01*
X139450714Y-145009571D01*
X139236428Y-145009571D01*
X139093571Y-145081000D01*
X139022142Y-145152428D01*
X141022142Y-146009571D02*
X141022142Y-145223857D01*
X140950714Y-145081000D01*
X140807857Y-145009571D01*
X140522142Y-145009571D01*
X140379285Y-145081000D01*
X141022142Y-145938142D02*
X140879285Y-146009571D01*
X140522142Y-146009571D01*
X140379285Y-145938142D01*
X140307857Y-145795285D01*
X140307857Y-145652428D01*
X140379285Y-145509571D01*
X140522142Y-145438142D01*
X140879285Y-145438142D01*
X141022142Y-145366714D01*
X141593571Y-145009571D02*
X141950714Y-146009571D01*
X142307857Y-145009571D01*
X143450714Y-145938142D02*
X143307857Y-146009571D01*
X143022142Y-146009571D01*
X142879285Y-145938142D01*
X142807857Y-145795285D01*
X142807857Y-145223857D01*
X142879285Y-145081000D01*
X143022142Y-145009571D01*
X143307857Y-145009571D01*
X143450714Y-145081000D01*
X143522142Y-145223857D01*
X143522142Y-145366714D01*
X142807857Y-145509571D01*
X145093571Y-145009571D02*
X145665000Y-145009571D01*
X145307857Y-144509571D02*
X145307857Y-145795285D01*
X145379285Y-145938142D01*
X145522142Y-146009571D01*
X145665000Y-146009571D01*
X146379285Y-146009571D02*
X146236428Y-145938142D01*
X146165000Y-145866714D01*
X146093571Y-145723857D01*
X146093571Y-145295285D01*
X146165000Y-145152428D01*
X146236428Y-145081000D01*
X146379285Y-145009571D01*
X146593571Y-145009571D01*
X146736428Y-145081000D01*
X146807857Y-145152428D01*
X146879285Y-145295285D01*
X146879285Y-145723857D01*
X146807857Y-145866714D01*
X146736428Y-145938142D01*
X146593571Y-146009571D01*
X146379285Y-146009571D01*
X148665000Y-146009571D02*
X148665000Y-145009571D01*
X148665000Y-145152428D02*
X148736428Y-145081000D01*
X148879285Y-145009571D01*
X149093571Y-145009571D01*
X149236428Y-145081000D01*
X149307857Y-145223857D01*
X149307857Y-146009571D01*
X149307857Y-145223857D02*
X149379285Y-145081000D01*
X149522142Y-145009571D01*
X149736428Y-145009571D01*
X149879285Y-145081000D01*
X149950714Y-145223857D01*
X149950714Y-146009571D01*
X151307857Y-146009571D02*
X151307857Y-145223857D01*
X151236428Y-145081000D01*
X151093571Y-145009571D01*
X150807857Y-145009571D01*
X150665000Y-145081000D01*
X151307857Y-145938142D02*
X151165000Y-146009571D01*
X150807857Y-146009571D01*
X150665000Y-145938142D01*
X150593571Y-145795285D01*
X150593571Y-145652428D01*
X150665000Y-145509571D01*
X150807857Y-145438142D01*
X151165000Y-145438142D01*
X151307857Y-145366714D01*
X151807857Y-145009571D02*
X152379285Y-145009571D01*
X152022142Y-144509571D02*
X152022142Y-145795285D01*
X152093571Y-145938142D01*
X152236428Y-146009571D01*
X152379285Y-146009571D01*
X153522142Y-145938142D02*
X153379285Y-146009571D01*
X153093571Y-146009571D01*
X152950714Y-145938142D01*
X152879285Y-145866714D01*
X152807857Y-145723857D01*
X152807857Y-145295285D01*
X152879285Y-145152428D01*
X152950714Y-145081000D01*
X153093571Y-145009571D01*
X153379285Y-145009571D01*
X153522142Y-145081000D01*
X154165000Y-146009571D02*
X154165000Y-144509571D01*
X154807857Y-146009571D02*
X154807857Y-145223857D01*
X154736428Y-145081000D01*
X154593571Y-145009571D01*
X154379285Y-145009571D01*
X154236428Y-145081000D01*
X154165000Y-145152428D01*
X156665000Y-146009571D02*
X156665000Y-144509571D01*
X157236428Y-144509571D01*
X157379285Y-144581000D01*
X157450714Y-144652428D01*
X157522142Y-144795285D01*
X157522142Y-145009571D01*
X157450714Y-145152428D01*
X157379285Y-145223857D01*
X157236428Y-145295285D01*
X156665000Y-145295285D01*
X159022142Y-145866714D02*
X158950714Y-145938142D01*
X158736428Y-146009571D01*
X158593571Y-146009571D01*
X158379285Y-145938142D01*
X158236428Y-145795285D01*
X158165000Y-145652428D01*
X158093571Y-145366714D01*
X158093571Y-145152428D01*
X158165000Y-144866714D01*
X158236428Y-144723857D01*
X158379285Y-144581000D01*
X158593571Y-144509571D01*
X158736428Y-144509571D01*
X158950714Y-144581000D01*
X159022142Y-144652428D01*
X160165000Y-145223857D02*
X160379285Y-145295285D01*
X160450714Y-145366714D01*
X160522142Y-145509571D01*
X160522142Y-145723857D01*
X160450714Y-145866714D01*
X160379285Y-145938142D01*
X160236428Y-146009571D01*
X159665000Y-146009571D01*
X159665000Y-144509571D01*
X160165000Y-144509571D01*
X160307857Y-144581000D01*
X160379285Y-144652428D01*
X160450714Y-144795285D01*
X160450714Y-144938142D01*
X160379285Y-145081000D01*
X160307857Y-145152428D01*
X160165000Y-145223857D01*
X159665000Y-145223857D01*
X162307857Y-145438142D02*
X163450714Y-145438142D01*
X162879285Y-146009571D02*
X162879285Y-144866714D01*
X164165000Y-145438142D02*
X165307857Y-145438142D01*
X164736428Y-146009571D02*
X164736428Y-144866714D01*
X167165000Y-146009571D02*
X167165000Y-145009571D01*
X167165000Y-145152428D02*
X167236428Y-145081000D01*
X167379285Y-145009571D01*
X167593571Y-145009571D01*
X167736428Y-145081000D01*
X167807857Y-145223857D01*
X167807857Y-146009571D01*
X167807857Y-145223857D02*
X167879285Y-145081000D01*
X168022142Y-145009571D01*
X168236428Y-145009571D01*
X168379285Y-145081000D01*
X168450714Y-145223857D01*
X168450714Y-146009571D01*
X169807857Y-146009571D02*
X169807857Y-145223857D01*
X169736428Y-145081000D01*
X169593571Y-145009571D01*
X169307857Y-145009571D01*
X169165000Y-145081000D01*
X169807857Y-145938142D02*
X169665000Y-146009571D01*
X169307857Y-146009571D01*
X169165000Y-145938142D01*
X169093571Y-145795285D01*
X169093571Y-145652428D01*
X169165000Y-145509571D01*
X169307857Y-145438142D01*
X169665000Y-145438142D01*
X169807857Y-145366714D01*
X170522142Y-146009571D02*
X170522142Y-145009571D01*
X170522142Y-145295285D02*
X170593571Y-145152428D01*
X170665000Y-145081000D01*
X170807857Y-145009571D01*
X170950714Y-145009571D01*
X171450714Y-146009571D02*
X171450714Y-144509571D01*
X171593571Y-145438142D02*
X172022142Y-146009571D01*
X172022142Y-145009571D02*
X171450714Y-145581000D01*
X172593571Y-145938142D02*
X172736428Y-146009571D01*
X173022142Y-146009571D01*
X173165000Y-145938142D01*
X173236428Y-145795285D01*
X173236428Y-145723857D01*
X173165000Y-145581000D01*
X173022142Y-145509571D01*
X172807857Y-145509571D01*
X172665000Y-145438142D01*
X172593571Y-145295285D01*
X172593571Y-145223857D01*
X172665000Y-145081000D01*
X172807857Y-145009571D01*
X173022142Y-145009571D01*
X173165000Y-145081000D01*
X174807857Y-145009571D02*
X175379285Y-145009571D01*
X175022142Y-146009571D02*
X175022142Y-144723857D01*
X175093571Y-144581000D01*
X175236428Y-144509571D01*
X175379285Y-144509571D01*
X176093571Y-146009571D02*
X175950714Y-145938142D01*
X175879285Y-145866714D01*
X175807857Y-145723857D01*
X175807857Y-145295285D01*
X175879285Y-145152428D01*
X175950714Y-145081000D01*
X176093571Y-145009571D01*
X176307857Y-145009571D01*
X176450714Y-145081000D01*
X176522142Y-145152428D01*
X176593571Y-145295285D01*
X176593571Y-145723857D01*
X176522142Y-145866714D01*
X176450714Y-145938142D01*
X176307857Y-146009571D01*
X176093571Y-146009571D01*
X177236428Y-146009571D02*
X177236428Y-145009571D01*
X177236428Y-145295285D02*
X177307857Y-145152428D01*
X177379285Y-145081000D01*
X177522142Y-145009571D01*
X177665000Y-145009571D01*
X179307857Y-145009571D02*
X179307857Y-146509571D01*
X179307857Y-145081000D02*
X179450714Y-145009571D01*
X179736428Y-145009571D01*
X179879285Y-145081000D01*
X179950714Y-145152428D01*
X180022142Y-145295285D01*
X180022142Y-145723857D01*
X179950714Y-145866714D01*
X179879285Y-145938142D01*
X179736428Y-146009571D01*
X179450714Y-146009571D01*
X179307857Y-145938142D01*
X180879285Y-146009571D02*
X180736428Y-145938142D01*
X180665000Y-145866714D01*
X180593571Y-145723857D01*
X180593571Y-145295285D01*
X180665000Y-145152428D01*
X180736428Y-145081000D01*
X180879285Y-145009571D01*
X181093571Y-145009571D01*
X181236428Y-145081000D01*
X181307857Y-145152428D01*
X181379285Y-145295285D01*
X181379285Y-145723857D01*
X181307857Y-145866714D01*
X181236428Y-145938142D01*
X181093571Y-146009571D01*
X180879285Y-146009571D01*
X182236428Y-146009571D02*
X182093571Y-145938142D01*
X182022142Y-145795285D01*
X182022142Y-144509571D01*
X183450714Y-146009571D02*
X183450714Y-145223857D01*
X183379285Y-145081000D01*
X183236428Y-145009571D01*
X182950714Y-145009571D01*
X182807857Y-145081000D01*
X183450714Y-145938142D02*
X183307857Y-146009571D01*
X182950714Y-146009571D01*
X182807857Y-145938142D01*
X182736428Y-145795285D01*
X182736428Y-145652428D01*
X182807857Y-145509571D01*
X182950714Y-145438142D01*
X183307857Y-145438142D01*
X183450714Y-145366714D01*
X184165000Y-146009571D02*
X184165000Y-145009571D01*
X184165000Y-145295285D02*
X184236428Y-145152428D01*
X184307857Y-145081000D01*
X184450714Y-145009571D01*
X184593571Y-145009571D01*
X185093571Y-146009571D02*
X185093571Y-145009571D01*
X185093571Y-144509571D02*
X185022142Y-144581000D01*
X185093571Y-144652428D01*
X185165000Y-144581000D01*
X185093571Y-144509571D01*
X185093571Y-144652428D01*
X185593571Y-145009571D02*
X186165000Y-145009571D01*
X185807857Y-144509571D02*
X185807857Y-145795285D01*
X185879285Y-145938142D01*
X186022142Y-146009571D01*
X186165000Y-146009571D01*
X186665000Y-146009571D02*
X186665000Y-145009571D01*
X186665000Y-144509571D02*
X186593571Y-144581000D01*
X186665000Y-144652428D01*
X186736428Y-144581000D01*
X186665000Y-144509571D01*
X186665000Y-144652428D01*
X187950714Y-145938142D02*
X187807857Y-146009571D01*
X187522142Y-146009571D01*
X187379285Y-145938142D01*
X187307857Y-145795285D01*
X187307857Y-145223857D01*
X187379285Y-145081000D01*
X187522142Y-145009571D01*
X187807857Y-145009571D01*
X187950714Y-145081000D01*
X188022142Y-145223857D01*
X188022142Y-145366714D01*
X187307857Y-145509571D01*
X188593571Y-145938142D02*
X188736428Y-146009571D01*
X189022142Y-146009571D01*
X189165000Y-145938142D01*
X189236428Y-145795285D01*
X189236428Y-145723857D01*
X189165000Y-145581000D01*
X189022142Y-145509571D01*
X188807857Y-145509571D01*
X188665000Y-145438142D01*
X188593571Y-145295285D01*
X188593571Y-145223857D01*
X188665000Y-145081000D01*
X188807857Y-145009571D01*
X189022142Y-145009571D01*
X189165000Y-145081000D01*
X191022142Y-145866714D02*
X191093571Y-145938142D01*
X191022142Y-146009571D01*
X190950714Y-145938142D01*
X191022142Y-145866714D01*
X191022142Y-146009571D01*
X191022142Y-145438142D02*
X190950714Y-144581000D01*
X191022142Y-144509571D01*
X191093571Y-144581000D01*
X191022142Y-145438142D01*
X191022142Y-144509571D01*
X191736428Y-145866714D02*
X191807857Y-145938142D01*
X191736428Y-146009571D01*
X191665000Y-145938142D01*
X191736428Y-145866714D01*
X191736428Y-146009571D01*
X191736428Y-145438142D02*
X191665000Y-144581000D01*
X191736428Y-144509571D01*
X191807857Y-144581000D01*
X191736428Y-145438142D01*
X191736428Y-144509571D01*
X192450714Y-145866714D02*
X192522142Y-145938142D01*
X192450714Y-146009571D01*
X192379285Y-145938142D01*
X192450714Y-145866714D01*
X192450714Y-146009571D01*
X192450714Y-145438142D02*
X192379285Y-144581000D01*
X192450714Y-144509571D01*
X192522142Y-144581000D01*
X192450714Y-145438142D01*
X192450714Y-144509571D01*
X136743571Y-67181000D02*
X135243571Y-67181000D01*
X136315000Y-66681000D01*
X135243571Y-66181000D01*
X136743571Y-66181000D01*
X136743571Y-65252428D02*
X136672142Y-65395285D01*
X136600714Y-65466714D01*
X136457857Y-65538142D01*
X136029285Y-65538142D01*
X135886428Y-65466714D01*
X135815000Y-65395285D01*
X135743571Y-65252428D01*
X135743571Y-65038142D01*
X135815000Y-64895285D01*
X135886428Y-64823857D01*
X136029285Y-64752428D01*
X136457857Y-64752428D01*
X136600714Y-64823857D01*
X136672142Y-64895285D01*
X136743571Y-65038142D01*
X136743571Y-65252428D01*
X135743571Y-64323857D02*
X135743571Y-63752428D01*
X135243571Y-64109571D02*
X136529285Y-64109571D01*
X136672142Y-64038142D01*
X136743571Y-63895285D01*
X136743571Y-63752428D01*
X136743571Y-63038142D02*
X136672142Y-63181000D01*
X136600714Y-63252428D01*
X136457857Y-63323857D01*
X136029285Y-63323857D01*
X135886428Y-63252428D01*
X135815000Y-63181000D01*
X135743571Y-63038142D01*
X135743571Y-62823857D01*
X135815000Y-62681000D01*
X135886428Y-62609571D01*
X136029285Y-62538142D01*
X136457857Y-62538142D01*
X136600714Y-62609571D01*
X136672142Y-62681000D01*
X136743571Y-62823857D01*
X136743571Y-63038142D01*
X136743571Y-61895285D02*
X135743571Y-61895285D01*
X136029285Y-61895285D02*
X135886428Y-61823857D01*
X135815000Y-61752428D01*
X135743571Y-61609571D01*
X135743571Y-61466714D01*
X136843571Y-137481000D02*
X135343571Y-137481000D01*
X136415000Y-136981000D01*
X135343571Y-136481000D01*
X136843571Y-136481000D01*
X136843571Y-135552428D02*
X136772142Y-135695285D01*
X136700714Y-135766714D01*
X136557857Y-135838142D01*
X136129285Y-135838142D01*
X135986428Y-135766714D01*
X135915000Y-135695285D01*
X135843571Y-135552428D01*
X135843571Y-135338142D01*
X135915000Y-135195285D01*
X135986428Y-135123857D01*
X136129285Y-135052428D01*
X136557857Y-135052428D01*
X136700714Y-135123857D01*
X136772142Y-135195285D01*
X136843571Y-135338142D01*
X136843571Y-135552428D01*
X135843571Y-134623857D02*
X135843571Y-134052428D01*
X135343571Y-134409571D02*
X136629285Y-134409571D01*
X136772142Y-134338142D01*
X136843571Y-134195285D01*
X136843571Y-134052428D01*
X136843571Y-133338142D02*
X136772142Y-133481000D01*
X136700714Y-133552428D01*
X136557857Y-133623857D01*
X136129285Y-133623857D01*
X135986428Y-133552428D01*
X135915000Y-133481000D01*
X135843571Y-133338142D01*
X135843571Y-133123857D01*
X135915000Y-132981000D01*
X135986428Y-132909571D01*
X136129285Y-132838142D01*
X136557857Y-132838142D01*
X136700714Y-132909571D01*
X136772142Y-132981000D01*
X136843571Y-133123857D01*
X136843571Y-133338142D01*
X136843571Y-132195285D02*
X135843571Y-132195285D01*
X136129285Y-132195285D02*
X135986428Y-132123857D01*
X135915000Y-132052428D01*
X135843571Y-131909571D01*
X135843571Y-131766714D01*
X187365000Y-149231000D02*
X97365000Y-149231000D01*
X197364999Y-139231000D02*
G75*
G02X187365000Y-149230999I-9999999J0D01*
G01*
X197364999Y-59231000D02*
X197364999Y-139231000D01*
X97365000Y-149231000D02*
X97365000Y-49231000D01*
X187365000Y-49231000D02*
X97365000Y-49231000D01*
X160240000Y-136724826D02*
X153583000Y-136724826D01*
X142609400Y-128248080D02*
G75*
G03X142609400Y-128248080I-250000J0D01*
G01*
X142609400Y-70248080D02*
G75*
G03X142609400Y-70248080I-250000J0D01*
G01*
X142609400Y-128248080D02*
G75*
G03X142609400Y-128248080I-250000J0D01*
G01*
X142609400Y-70248080D02*
G75*
G03X142609400Y-70248080I-250000J0D01*
G01*
X125240000Y-76231000D02*
X125240000Y-49231000D01*
X125240000Y-76231000D02*
X97365000Y-76231000D01*
X179745000Y-136818000D02*
X173014000Y-136818000D01*
X153583000Y-136691000D02*
X153583000Y-132191000D01*
X125240000Y-123231000D02*
X97365000Y-123231000D01*
X125240000Y-123231000D02*
X125240000Y-149231000D01*
X160240000Y-49569000D02*
X153583000Y-49569000D01*
X179745000Y-136818000D02*
X179745000Y-132224826D01*
X172990000Y-49569000D02*
X179745000Y-49569000D01*
X153583000Y-54224827D02*
X153583000Y-49569000D01*
X179745000Y-49569000D02*
X179745000Y-54224827D01*
X187365000Y-49231001D02*
G75*
G02X197364999Y-59231000I0J-9999999D01*
G01*
D12*
X130155000Y-124686000D02*
X135355000Y-124686000D01*
X130155000Y-76366000D02*
X130155000Y-124686000D01*
X135355000Y-73766000D02*
X135355000Y-124686000D01*
X130155000Y-76366000D02*
X132755000Y-76366000D01*
X132755000Y-76366000D02*
X132755000Y-73766000D01*
X132755000Y-73766000D02*
X135355000Y-73766000D01*
X130155000Y-75096000D02*
X130155000Y-73766000D01*
X130155000Y-73766000D02*
X131485000Y-73766000D01*
X194588000Y-107082000D02*
X194588000Y-104397000D01*
X194588000Y-104397000D02*
X192668000Y-104397000D01*
X192668000Y-104397000D02*
X192668000Y-107082000D01*
X192668000Y-86773500D02*
X192668000Y-89458500D01*
X194588000Y-86773500D02*
X192668000Y-86773500D01*
X194588000Y-89458500D02*
X194588000Y-86773500D01*
X194588000Y-98185000D02*
X194588000Y-95500000D01*
X194588000Y-95500000D02*
X192668000Y-95500000D01*
X192668000Y-95500000D02*
X192668000Y-98185000D01*
X124313000Y-104747000D02*
X126973000Y-104747000D01*
X124313000Y-97067000D02*
X124313000Y-104747000D01*
X126973000Y-97067000D02*
X126973000Y-104747000D01*
X124313000Y-97067000D02*
X126973000Y-97067000D01*
X124313000Y-95797000D02*
X124313000Y-94467000D01*
X124313000Y-94467000D02*
X125643000Y-94467000D01*
X139755000Y-73771000D02*
X142355000Y-73771000D01*
X139755000Y-73771000D02*
X139755000Y-124691000D01*
X139755000Y-124691000D02*
X144955000Y-124691000D01*
X144955000Y-76371000D02*
X144955000Y-124691000D01*
X142355000Y-76371000D02*
X144955000Y-76371000D01*
X142355000Y-73771000D02*
X142355000Y-76371000D01*
X144955000Y-73771000D02*
X144955000Y-75101000D01*
X143625000Y-73771000D02*
X144955000Y-73771000D01*
X192873000Y-110404578D02*
X192873000Y-109887422D01*
X194293000Y-110404578D02*
X194293000Y-109887422D01*
X192873000Y-92448578D02*
X192873000Y-91931422D01*
X194293000Y-92448578D02*
X194293000Y-91931422D01*
X194293000Y-100990422D02*
X194293000Y-101507578D01*
X192873000Y-100990422D02*
X192873000Y-101507578D01*
X146739000Y-54405000D02*
X186739000Y-54405000D01*
X186739000Y-54405000D02*
X186739000Y-131905000D01*
X186739000Y-131905000D02*
X146739000Y-131905000D01*
X146739000Y-131905000D02*
X146739000Y-54405000D01*
D11*
X127981666Y-74333380D02*
X127981666Y-75047666D01*
X127934047Y-75190523D01*
X127838809Y-75285761D01*
X127695952Y-75333380D01*
X127600714Y-75333380D01*
X128886428Y-74333380D02*
X128695952Y-74333380D01*
X128600714Y-74381000D01*
X128553095Y-74428619D01*
X128457857Y-74571476D01*
X128410238Y-74761952D01*
X128410238Y-75142904D01*
X128457857Y-75238142D01*
X128505476Y-75285761D01*
X128600714Y-75333380D01*
X128791190Y-75333380D01*
X128886428Y-75285761D01*
X128934047Y-75238142D01*
X128981666Y-75142904D01*
X128981666Y-74904809D01*
X128934047Y-74809571D01*
X128886428Y-74761952D01*
X128791190Y-74714333D01*
X128600714Y-74714333D01*
X128505476Y-74761952D01*
X128457857Y-74809571D01*
X128410238Y-74904809D01*
D13*
X111272142Y-104188142D02*
X111272142Y-103616714D01*
X111415000Y-103331000D01*
X111700714Y-103045285D01*
X112272142Y-102902428D01*
X113272142Y-102902428D01*
X113843571Y-103045285D01*
X114129285Y-103331000D01*
X114272142Y-103616714D01*
X114272142Y-104188142D01*
X114129285Y-104473857D01*
X113843571Y-104759571D01*
X113272142Y-104902428D01*
X112272142Y-104902428D01*
X111700714Y-104759571D01*
X111415000Y-104473857D01*
X111272142Y-104188142D01*
X114272142Y-100188142D02*
X114272142Y-101616714D01*
X111272142Y-101616714D01*
X112700714Y-99188142D02*
X112700714Y-98188142D01*
X114272142Y-97759571D02*
X114272142Y-99188142D01*
X111272142Y-99188142D01*
X111272142Y-97759571D01*
X114272142Y-96473857D02*
X111272142Y-96473857D01*
X111272142Y-95759571D01*
X111415000Y-95331000D01*
X111700714Y-95045285D01*
X111986428Y-94902428D01*
X112557857Y-94759571D01*
X112986428Y-94759571D01*
X113557857Y-94902428D01*
X113843571Y-95045285D01*
X114129285Y-95331000D01*
X114272142Y-95759571D01*
X114272142Y-96473857D01*
D11*
X191917380Y-106769095D02*
X190917380Y-106769095D01*
X190917380Y-106531000D01*
X190965000Y-106388142D01*
X191060238Y-106292904D01*
X191155476Y-106245285D01*
X191345952Y-106197666D01*
X191488809Y-106197666D01*
X191679285Y-106245285D01*
X191774523Y-106292904D01*
X191869761Y-106388142D01*
X191917380Y-106531000D01*
X191917380Y-106769095D01*
X191917380Y-105245285D02*
X191917380Y-105816714D01*
X191917380Y-105531000D02*
X190917380Y-105531000D01*
X191060238Y-105626238D01*
X191155476Y-105721476D01*
X191203095Y-105816714D01*
X191917380Y-89069095D02*
X190917380Y-89069095D01*
X190917380Y-88831000D01*
X190965000Y-88688142D01*
X191060238Y-88592904D01*
X191155476Y-88545285D01*
X191345952Y-88497666D01*
X191488809Y-88497666D01*
X191679285Y-88545285D01*
X191774523Y-88592904D01*
X191869761Y-88688142D01*
X191917380Y-88831000D01*
X191917380Y-89069095D01*
X190917380Y-88164333D02*
X190917380Y-87545285D01*
X191298333Y-87878619D01*
X191298333Y-87735761D01*
X191345952Y-87640523D01*
X191393571Y-87592904D01*
X191488809Y-87545285D01*
X191726904Y-87545285D01*
X191822142Y-87592904D01*
X191869761Y-87640523D01*
X191917380Y-87735761D01*
X191917380Y-88021476D01*
X191869761Y-88116714D01*
X191822142Y-88164333D01*
X191917380Y-97969095D02*
X190917380Y-97969095D01*
X190917380Y-97731000D01*
X190965000Y-97588142D01*
X191060238Y-97492904D01*
X191155476Y-97445285D01*
X191345952Y-97397666D01*
X191488809Y-97397666D01*
X191679285Y-97445285D01*
X191774523Y-97492904D01*
X191869761Y-97588142D01*
X191917380Y-97731000D01*
X191917380Y-97969095D01*
X190917380Y-96492904D02*
X190917380Y-96969095D01*
X191393571Y-97016714D01*
X191345952Y-96969095D01*
X191298333Y-96873857D01*
X191298333Y-96635761D01*
X191345952Y-96540523D01*
X191393571Y-96492904D01*
X191488809Y-96445285D01*
X191726904Y-96445285D01*
X191822142Y-96492904D01*
X191869761Y-96540523D01*
X191917380Y-96635761D01*
X191917380Y-96873857D01*
X191869761Y-96969095D01*
X191822142Y-97016714D01*
X125095380Y-93800333D02*
X125809666Y-93800333D01*
X125952523Y-93847952D01*
X126047761Y-93943190D01*
X126095380Y-94086047D01*
X126095380Y-94181285D01*
X125190619Y-93371761D02*
X125143000Y-93324142D01*
X125095380Y-93228904D01*
X125095380Y-92990809D01*
X125143000Y-92895571D01*
X125190619Y-92847952D01*
X125285857Y-92800333D01*
X125381095Y-92800333D01*
X125523952Y-92847952D01*
X126095380Y-93419380D01*
X126095380Y-92800333D01*
X127635380Y-134865333D02*
X128349666Y-134865333D01*
X128492523Y-134912952D01*
X128587761Y-135008190D01*
X128635380Y-135151047D01*
X128635380Y-135246285D01*
X127635380Y-134484380D02*
X127635380Y-133865333D01*
X128016333Y-134198666D01*
X128016333Y-134055809D01*
X128063952Y-133960571D01*
X128111571Y-133912952D01*
X128206809Y-133865333D01*
X128444904Y-133865333D01*
X128540142Y-133912952D01*
X128587761Y-133960571D01*
X128635380Y-134055809D01*
X128635380Y-134341523D01*
X128587761Y-134436761D01*
X128540142Y-134484380D01*
X128067380Y-64414333D02*
X128781666Y-64414333D01*
X128924523Y-64461952D01*
X129019761Y-64557190D01*
X129067380Y-64700047D01*
X129067380Y-64795285D01*
X128400714Y-63509571D02*
X129067380Y-63509571D01*
X128019761Y-63747666D02*
X128734047Y-63985761D01*
X128734047Y-63366714D01*
X137881666Y-74083380D02*
X137881666Y-74797666D01*
X137834047Y-74940523D01*
X137738809Y-75035761D01*
X137595952Y-75083380D01*
X137500714Y-75083380D01*
X138834047Y-74083380D02*
X138357857Y-74083380D01*
X138310238Y-74559571D01*
X138357857Y-74511952D01*
X138453095Y-74464333D01*
X138691190Y-74464333D01*
X138786428Y-74511952D01*
X138834047Y-74559571D01*
X138881666Y-74654809D01*
X138881666Y-74892904D01*
X138834047Y-74988142D01*
X138786428Y-75035761D01*
X138691190Y-75083380D01*
X138453095Y-75083380D01*
X138357857Y-75035761D01*
X138310238Y-74988142D01*
X191917380Y-110097666D02*
X191441190Y-110431000D01*
X191917380Y-110669095D02*
X190917380Y-110669095D01*
X190917380Y-110288142D01*
X190965000Y-110192904D01*
X191012619Y-110145285D01*
X191107857Y-110097666D01*
X191250714Y-110097666D01*
X191345952Y-110145285D01*
X191393571Y-110192904D01*
X191441190Y-110288142D01*
X191441190Y-110669095D01*
X191250714Y-109240523D02*
X191917380Y-109240523D01*
X190869761Y-109478619D02*
X191584047Y-109716714D01*
X191584047Y-109097666D01*
X191917380Y-92773857D02*
X191441190Y-93107190D01*
X191917380Y-93345285D02*
X190917380Y-93345285D01*
X190917380Y-92964333D01*
X190965000Y-92869095D01*
X191012619Y-92821476D01*
X191107857Y-92773857D01*
X191250714Y-92773857D01*
X191345952Y-92821476D01*
X191393571Y-92869095D01*
X191441190Y-92964333D01*
X191441190Y-93345285D01*
X191917380Y-91821476D02*
X191917380Y-92392904D01*
X191917380Y-92107190D02*
X190917380Y-92107190D01*
X191060238Y-92202428D01*
X191155476Y-92297666D01*
X191203095Y-92392904D01*
X191345952Y-91250047D02*
X191298333Y-91345285D01*
X191250714Y-91392904D01*
X191155476Y-91440523D01*
X191107857Y-91440523D01*
X191012619Y-91392904D01*
X190965000Y-91345285D01*
X190917380Y-91250047D01*
X190917380Y-91059571D01*
X190965000Y-90964333D01*
X191012619Y-90916714D01*
X191107857Y-90869095D01*
X191155476Y-90869095D01*
X191250714Y-90916714D01*
X191298333Y-90964333D01*
X191345952Y-91059571D01*
X191345952Y-91250047D01*
X191393571Y-91345285D01*
X191441190Y-91392904D01*
X191536428Y-91440523D01*
X191726904Y-91440523D01*
X191822142Y-91392904D01*
X191869761Y-91345285D01*
X191917380Y-91250047D01*
X191917380Y-91059571D01*
X191869761Y-90964333D01*
X191822142Y-90916714D01*
X191726904Y-90869095D01*
X191536428Y-90869095D01*
X191441190Y-90916714D01*
X191393571Y-90964333D01*
X191345952Y-91059571D01*
X191917380Y-101873857D02*
X191441190Y-102207190D01*
X191917380Y-102445285D02*
X190917380Y-102445285D01*
X190917380Y-102064333D01*
X190965000Y-101969095D01*
X191012619Y-101921476D01*
X191107857Y-101873857D01*
X191250714Y-101873857D01*
X191345952Y-101921476D01*
X191393571Y-101969095D01*
X191441190Y-102064333D01*
X191441190Y-102445285D01*
X191012619Y-101492904D02*
X190965000Y-101445285D01*
X190917380Y-101350047D01*
X190917380Y-101111952D01*
X190965000Y-101016714D01*
X191012619Y-100969095D01*
X191107857Y-100921476D01*
X191203095Y-100921476D01*
X191345952Y-100969095D01*
X191917380Y-101540523D01*
X191917380Y-100921476D01*
X191917380Y-99969095D02*
X191917380Y-100540523D01*
X191917380Y-100254809D02*
X190917380Y-100254809D01*
X191060238Y-100350047D01*
X191155476Y-100445285D01*
X191203095Y-100540523D01*
X146852095Y-52577380D02*
X146852095Y-53386904D01*
X146899714Y-53482142D01*
X146947333Y-53529761D01*
X147042571Y-53577380D01*
X147233047Y-53577380D01*
X147328285Y-53529761D01*
X147375904Y-53482142D01*
X147423523Y-53386904D01*
X147423523Y-52577380D01*
X148328285Y-52910714D02*
X148328285Y-53577380D01*
X148090190Y-52529761D02*
X147852095Y-53244047D01*
X148471142Y-53244047D01*
D13*
X166824714Y-98905000D02*
X166967571Y-98476428D01*
X167110428Y-98333571D01*
X167396142Y-98190714D01*
X167824714Y-98190714D01*
X168110428Y-98333571D01*
X168253285Y-98476428D01*
X168396142Y-98762142D01*
X168396142Y-99905000D01*
X165396142Y-99905000D01*
X165396142Y-98905000D01*
X165539000Y-98619285D01*
X165681857Y-98476428D01*
X165967571Y-98333571D01*
X166253285Y-98333571D01*
X166539000Y-98476428D01*
X166681857Y-98619285D01*
X166824714Y-98905000D01*
X166824714Y-99905000D01*
X167539000Y-97047857D02*
X167539000Y-95619285D01*
X168396142Y-97333571D02*
X165396142Y-96333571D01*
X168396142Y-95333571D01*
X165396142Y-94762142D02*
X165396142Y-93047857D01*
X168396142Y-93905000D02*
X165396142Y-93905000D01*
X165396142Y-92476428D02*
X165396142Y-90762142D01*
X168396142Y-91619285D02*
X165396142Y-91619285D01*
X166824714Y-89762142D02*
X166824714Y-88762142D01*
X168396142Y-88333571D02*
X168396142Y-89762142D01*
X165396142Y-89762142D01*
X165396142Y-88333571D01*
X168396142Y-85333571D02*
X166967571Y-86333571D01*
X168396142Y-87047857D02*
X165396142Y-87047857D01*
X165396142Y-85905000D01*
X165539000Y-85619285D01*
X165681857Y-85476428D01*
X165967571Y-85333571D01*
X166396142Y-85333571D01*
X166681857Y-85476428D01*
X166824714Y-85619285D01*
X166967571Y-85905000D01*
X166967571Y-87047857D01*
X166967571Y-83476428D02*
X168396142Y-83476428D01*
X165396142Y-84476428D02*
X166967571Y-83476428D01*
X165396142Y-82476428D01*
D14*
X142450714Y-65931000D02*
X142450714Y-62883380D01*
X143974523Y-64407190D02*
X140926904Y-64407190D01*
X142450714Y-60978619D02*
X142450714Y-57931000D01*
X143974523Y-59454809D02*
X140926904Y-59454809D01*
X185350714Y-141331000D02*
X185350714Y-138283380D01*
X186874523Y-139807190D02*
X183826904Y-139807190D01*
X185350714Y-136378619D02*
X185350714Y-133331000D01*
X186874523Y-134854809D02*
X183826904Y-134854809D01*
M02*
