G04 #@! TF.GenerationSoftware,KiCad,Pcbnew,(5.1.5)-3*
G04 #@! TF.CreationDate,2020-04-18T23:18:02+01:00*
G04 #@! TF.ProjectId,langpie,6c616e67-7069-4652-9e6b-696361645f70,rev?*
G04 #@! TF.SameCoordinates,Original*
G04 #@! TF.FileFunction,Legend,Bot*
G04 #@! TF.FilePolarity,Positive*
%FSLAX46Y46*%
G04 Gerber Fmt 4.6, Leading zero omitted, Abs format (unit mm)*
G04 Created by KiCad (PCBNEW (5.1.5)-3) date 2020-04-18 23:18:02*
%MOMM*%
%LPD*%
G04 APERTURE LIST*
%ADD10C,0.200000*%
%ADD11C,0.120000*%
%ADD12C,0.150000*%
%ADD13C,0.500000*%
G04 APERTURE END LIST*
D10*
X137815000Y-71531000D02*
X137815000Y-72245285D01*
X138243571Y-71388142D02*
X136743571Y-71888142D01*
X138243571Y-72388142D01*
X137243571Y-72888142D02*
X138243571Y-72888142D01*
X137386428Y-72888142D02*
X137315000Y-72959571D01*
X137243571Y-73102428D01*
X137243571Y-73316714D01*
X137315000Y-73459571D01*
X137457857Y-73531000D01*
X138243571Y-73531000D01*
X136743571Y-75673857D02*
X136743571Y-75959571D01*
X136815000Y-76102428D01*
X136957857Y-76245285D01*
X137243571Y-76316714D01*
X137743571Y-76316714D01*
X138029285Y-76245285D01*
X138172142Y-76102428D01*
X138243571Y-75959571D01*
X138243571Y-75673857D01*
X138172142Y-75531000D01*
X138029285Y-75388142D01*
X137743571Y-75316714D01*
X137243571Y-75316714D01*
X136957857Y-75388142D01*
X136815000Y-75531000D01*
X136743571Y-75673857D01*
X137243571Y-76959571D02*
X138743571Y-76959571D01*
X137315000Y-76959571D02*
X137243571Y-77102428D01*
X137243571Y-77388142D01*
X137315000Y-77531000D01*
X137386428Y-77602428D01*
X137529285Y-77673857D01*
X137957857Y-77673857D01*
X138100714Y-77602428D01*
X138172142Y-77531000D01*
X138243571Y-77388142D01*
X138243571Y-77102428D01*
X138172142Y-76959571D01*
X138172142Y-78888142D02*
X138243571Y-78745285D01*
X138243571Y-78459571D01*
X138172142Y-78316714D01*
X138029285Y-78245285D01*
X137457857Y-78245285D01*
X137315000Y-78316714D01*
X137243571Y-78459571D01*
X137243571Y-78745285D01*
X137315000Y-78888142D01*
X137457857Y-78959571D01*
X137600714Y-78959571D01*
X137743571Y-78245285D01*
X137243571Y-79602428D02*
X138243571Y-79602428D01*
X137386428Y-79602428D02*
X137315000Y-79673857D01*
X137243571Y-79816714D01*
X137243571Y-80031000D01*
X137315000Y-80173857D01*
X137457857Y-80245285D01*
X138243571Y-80245285D01*
X138172142Y-80888142D02*
X138243571Y-81031000D01*
X138243571Y-81316714D01*
X138172142Y-81459571D01*
X138029285Y-81531000D01*
X137957857Y-81531000D01*
X137815000Y-81459571D01*
X137743571Y-81316714D01*
X137743571Y-81102428D01*
X137672142Y-80959571D01*
X137529285Y-80888142D01*
X137457857Y-80888142D01*
X137315000Y-80959571D01*
X137243571Y-81102428D01*
X137243571Y-81316714D01*
X137315000Y-81459571D01*
X138243571Y-82388142D02*
X138172142Y-82245285D01*
X138100714Y-82173857D01*
X137957857Y-82102428D01*
X137529285Y-82102428D01*
X137386428Y-82173857D01*
X137315000Y-82245285D01*
X137243571Y-82388142D01*
X137243571Y-82602428D01*
X137315000Y-82745285D01*
X137386428Y-82816714D01*
X137529285Y-82888142D01*
X137957857Y-82888142D01*
X138100714Y-82816714D01*
X138172142Y-82745285D01*
X138243571Y-82602428D01*
X138243571Y-82388142D01*
X137243571Y-84173857D02*
X138243571Y-84173857D01*
X137243571Y-83531000D02*
X138029285Y-83531000D01*
X138172142Y-83602428D01*
X138243571Y-83745285D01*
X138243571Y-83959571D01*
X138172142Y-84102428D01*
X138100714Y-84173857D01*
X138243571Y-84888142D02*
X137243571Y-84888142D01*
X137529285Y-84888142D02*
X137386428Y-84959571D01*
X137315000Y-85031000D01*
X137243571Y-85173857D01*
X137243571Y-85316714D01*
X138172142Y-86459571D02*
X138243571Y-86316714D01*
X138243571Y-86031000D01*
X138172142Y-85888142D01*
X138100714Y-85816714D01*
X137957857Y-85745285D01*
X137529285Y-85745285D01*
X137386428Y-85816714D01*
X137315000Y-85888142D01*
X137243571Y-86031000D01*
X137243571Y-86316714D01*
X137315000Y-86459571D01*
X138172142Y-87673857D02*
X138243571Y-87531000D01*
X138243571Y-87245285D01*
X138172142Y-87102428D01*
X138029285Y-87031000D01*
X137457857Y-87031000D01*
X137315000Y-87102428D01*
X137243571Y-87245285D01*
X137243571Y-87531000D01*
X137315000Y-87673857D01*
X137457857Y-87745285D01*
X137600714Y-87745285D01*
X137743571Y-87031000D01*
X138243571Y-90388142D02*
X137529285Y-89888142D01*
X138243571Y-89531000D02*
X136743571Y-89531000D01*
X136743571Y-90102428D01*
X136815000Y-90245285D01*
X136886428Y-90316714D01*
X137029285Y-90388142D01*
X137243571Y-90388142D01*
X137386428Y-90316714D01*
X137457857Y-90245285D01*
X137529285Y-90102428D01*
X137529285Y-89531000D01*
X138243571Y-91673857D02*
X137457857Y-91673857D01*
X137315000Y-91602428D01*
X137243571Y-91459571D01*
X137243571Y-91173857D01*
X137315000Y-91031000D01*
X138172142Y-91673857D02*
X138243571Y-91531000D01*
X138243571Y-91173857D01*
X138172142Y-91031000D01*
X138029285Y-90959571D01*
X137886428Y-90959571D01*
X137743571Y-91031000D01*
X137672142Y-91173857D01*
X137672142Y-91531000D01*
X137600714Y-91673857D01*
X138172142Y-92316714D02*
X138243571Y-92459571D01*
X138243571Y-92745285D01*
X138172142Y-92888142D01*
X138029285Y-92959571D01*
X137957857Y-92959571D01*
X137815000Y-92888142D01*
X137743571Y-92745285D01*
X137743571Y-92531000D01*
X137672142Y-92388142D01*
X137529285Y-92316714D01*
X137457857Y-92316714D01*
X137315000Y-92388142D01*
X137243571Y-92531000D01*
X137243571Y-92745285D01*
X137315000Y-92888142D01*
X137243571Y-93602428D02*
X138743571Y-93602428D01*
X137315000Y-93602428D02*
X137243571Y-93745285D01*
X137243571Y-94031000D01*
X137315000Y-94173857D01*
X137386428Y-94245285D01*
X137529285Y-94316714D01*
X137957857Y-94316714D01*
X138100714Y-94245285D01*
X138172142Y-94173857D01*
X138243571Y-94031000D01*
X138243571Y-93745285D01*
X138172142Y-93602428D01*
X138243571Y-94959571D02*
X136743571Y-94959571D01*
X137315000Y-94959571D02*
X137243571Y-95102428D01*
X137243571Y-95388142D01*
X137315000Y-95531000D01*
X137386428Y-95602428D01*
X137529285Y-95673857D01*
X137957857Y-95673857D01*
X138100714Y-95602428D01*
X138172142Y-95531000D01*
X138243571Y-95388142D01*
X138243571Y-95102428D01*
X138172142Y-94959571D01*
X138172142Y-96888142D02*
X138243571Y-96745285D01*
X138243571Y-96459571D01*
X138172142Y-96316714D01*
X138029285Y-96245285D01*
X137457857Y-96245285D01*
X137315000Y-96316714D01*
X137243571Y-96459571D01*
X137243571Y-96745285D01*
X137315000Y-96888142D01*
X137457857Y-96959571D01*
X137600714Y-96959571D01*
X137743571Y-96245285D01*
X138243571Y-97602428D02*
X137243571Y-97602428D01*
X137529285Y-97602428D02*
X137386428Y-97673857D01*
X137315000Y-97745285D01*
X137243571Y-97888142D01*
X137243571Y-98031000D01*
X138243571Y-98531000D02*
X137243571Y-98531000D01*
X137529285Y-98531000D02*
X137386428Y-98602428D01*
X137315000Y-98673857D01*
X137243571Y-98816714D01*
X137243571Y-98959571D01*
X138243571Y-100102428D02*
X137457857Y-100102428D01*
X137315000Y-100031000D01*
X137243571Y-99888142D01*
X137243571Y-99602428D01*
X137315000Y-99459571D01*
X138172142Y-100102428D02*
X138243571Y-99959571D01*
X138243571Y-99602428D01*
X138172142Y-99459571D01*
X138029285Y-99388142D01*
X137886428Y-99388142D01*
X137743571Y-99459571D01*
X137672142Y-99602428D01*
X137672142Y-99959571D01*
X137600714Y-100102428D01*
X137243571Y-100673857D02*
X138243571Y-101031000D01*
X137243571Y-101388142D02*
X138243571Y-101031000D01*
X138600714Y-100888142D01*
X138672142Y-100816714D01*
X138743571Y-100673857D01*
X138243571Y-103102428D02*
X136743571Y-103102428D01*
X136743571Y-103673857D01*
X136815000Y-103816714D01*
X136886428Y-103888142D01*
X137029285Y-103959571D01*
X137243571Y-103959571D01*
X137386428Y-103888142D01*
X137457857Y-103816714D01*
X137529285Y-103673857D01*
X137529285Y-103102428D01*
X138243571Y-104602428D02*
X137243571Y-104602428D01*
X136743571Y-104602428D02*
X136815000Y-104531000D01*
X136886428Y-104602428D01*
X136815000Y-104673857D01*
X136743571Y-104602428D01*
X136886428Y-104602428D01*
X137457857Y-106959571D02*
X137529285Y-107173857D01*
X137600714Y-107245285D01*
X137743571Y-107316714D01*
X137957857Y-107316714D01*
X138100714Y-107245285D01*
X138172142Y-107173857D01*
X138243571Y-107031000D01*
X138243571Y-106459571D01*
X136743571Y-106459571D01*
X136743571Y-106959571D01*
X136815000Y-107102428D01*
X136886428Y-107173857D01*
X137029285Y-107245285D01*
X137172142Y-107245285D01*
X137315000Y-107173857D01*
X137386428Y-107102428D01*
X137457857Y-106959571D01*
X137457857Y-106459571D01*
X138243571Y-108602428D02*
X137457857Y-108602428D01*
X137315000Y-108531000D01*
X137243571Y-108388142D01*
X137243571Y-108102428D01*
X137315000Y-107959571D01*
X138172142Y-108602428D02*
X138243571Y-108459571D01*
X138243571Y-108102428D01*
X138172142Y-107959571D01*
X138029285Y-107888142D01*
X137886428Y-107888142D01*
X137743571Y-107959571D01*
X137672142Y-108102428D01*
X137672142Y-108459571D01*
X137600714Y-108602428D01*
X138172142Y-109245285D02*
X138243571Y-109388142D01*
X138243571Y-109673857D01*
X138172142Y-109816714D01*
X138029285Y-109888142D01*
X137957857Y-109888142D01*
X137815000Y-109816714D01*
X137743571Y-109673857D01*
X137743571Y-109459571D01*
X137672142Y-109316714D01*
X137529285Y-109245285D01*
X137457857Y-109245285D01*
X137315000Y-109316714D01*
X137243571Y-109459571D01*
X137243571Y-109673857D01*
X137315000Y-109816714D01*
X138172142Y-111102428D02*
X138243571Y-110959571D01*
X138243571Y-110673857D01*
X138172142Y-110531000D01*
X138029285Y-110459571D01*
X137457857Y-110459571D01*
X137315000Y-110531000D01*
X137243571Y-110673857D01*
X137243571Y-110959571D01*
X137315000Y-111102428D01*
X137457857Y-111173857D01*
X137600714Y-111173857D01*
X137743571Y-110459571D01*
X138243571Y-112459571D02*
X136743571Y-112459571D01*
X138172142Y-112459571D02*
X138243571Y-112316714D01*
X138243571Y-112031000D01*
X138172142Y-111888142D01*
X138100714Y-111816714D01*
X137957857Y-111745285D01*
X137529285Y-111745285D01*
X137386428Y-111816714D01*
X137315000Y-111888142D01*
X137243571Y-112031000D01*
X137243571Y-112316714D01*
X137315000Y-112459571D01*
X138172142Y-114245285D02*
X138243571Y-114459571D01*
X138243571Y-114816714D01*
X138172142Y-114959571D01*
X138100714Y-115031000D01*
X137957857Y-115102428D01*
X137815000Y-115102428D01*
X137672142Y-115031000D01*
X137600714Y-114959571D01*
X137529285Y-114816714D01*
X137457857Y-114531000D01*
X137386428Y-114388142D01*
X137315000Y-114316714D01*
X137172142Y-114245285D01*
X137029285Y-114245285D01*
X136886428Y-114316714D01*
X136815000Y-114388142D01*
X136743571Y-114531000D01*
X136743571Y-114888142D01*
X136815000Y-115102428D01*
X138243571Y-116388142D02*
X137457857Y-116388142D01*
X137315000Y-116316714D01*
X137243571Y-116173857D01*
X137243571Y-115888142D01*
X137315000Y-115745285D01*
X138172142Y-116388142D02*
X138243571Y-116245285D01*
X138243571Y-115888142D01*
X138172142Y-115745285D01*
X138029285Y-115673857D01*
X137886428Y-115673857D01*
X137743571Y-115745285D01*
X137672142Y-115888142D01*
X137672142Y-116245285D01*
X137600714Y-116388142D01*
X138243571Y-117102428D02*
X137243571Y-117102428D01*
X137386428Y-117102428D02*
X137315000Y-117173857D01*
X137243571Y-117316714D01*
X137243571Y-117531000D01*
X137315000Y-117673857D01*
X137457857Y-117745285D01*
X138243571Y-117745285D01*
X137457857Y-117745285D02*
X137315000Y-117816714D01*
X137243571Y-117959571D01*
X137243571Y-118173857D01*
X137315000Y-118316714D01*
X137457857Y-118388142D01*
X138243571Y-118388142D01*
X138243571Y-119745285D02*
X137457857Y-119745285D01*
X137315000Y-119673857D01*
X137243571Y-119531000D01*
X137243571Y-119245285D01*
X137315000Y-119102428D01*
X138172142Y-119745285D02*
X138243571Y-119602428D01*
X138243571Y-119245285D01*
X138172142Y-119102428D01*
X138029285Y-119031000D01*
X137886428Y-119031000D01*
X137743571Y-119102428D01*
X137672142Y-119245285D01*
X137672142Y-119602428D01*
X137600714Y-119745285D01*
X138243571Y-120459571D02*
X137243571Y-120459571D01*
X137529285Y-120459571D02*
X137386428Y-120531000D01*
X137315000Y-120602428D01*
X137243571Y-120745285D01*
X137243571Y-120888142D01*
X137243571Y-121173857D02*
X137243571Y-121745285D01*
X136743571Y-121388142D02*
X138029285Y-121388142D01*
X138172142Y-121459571D01*
X138243571Y-121602428D01*
X138243571Y-121745285D01*
X138100714Y-124245285D02*
X138172142Y-124173857D01*
X138243571Y-123959571D01*
X138243571Y-123816714D01*
X138172142Y-123602428D01*
X138029285Y-123459571D01*
X137886428Y-123388142D01*
X137600714Y-123316714D01*
X137386428Y-123316714D01*
X137100714Y-123388142D01*
X136957857Y-123459571D01*
X136815000Y-123602428D01*
X136743571Y-123816714D01*
X136743571Y-123959571D01*
X136815000Y-124173857D01*
X136886428Y-124245285D01*
X138243571Y-125531000D02*
X137457857Y-125531000D01*
X137315000Y-125459571D01*
X137243571Y-125316714D01*
X137243571Y-125031000D01*
X137315000Y-124888142D01*
X138172142Y-125531000D02*
X138243571Y-125388142D01*
X138243571Y-125031000D01*
X138172142Y-124888142D01*
X138029285Y-124816714D01*
X137886428Y-124816714D01*
X137743571Y-124888142D01*
X137672142Y-125031000D01*
X137672142Y-125388142D01*
X137600714Y-125531000D01*
X138243571Y-126245285D02*
X137243571Y-126245285D01*
X137529285Y-126245285D02*
X137386428Y-126316714D01*
X137315000Y-126388142D01*
X137243571Y-126531000D01*
X137243571Y-126673857D01*
X117515000Y-75288142D02*
X117443571Y-75145285D01*
X117443571Y-74931000D01*
X117515000Y-74716714D01*
X117657857Y-74573857D01*
X117800714Y-74502428D01*
X118086428Y-74431000D01*
X118300714Y-74431000D01*
X118586428Y-74502428D01*
X118729285Y-74573857D01*
X118872142Y-74716714D01*
X118943571Y-74931000D01*
X118943571Y-75073857D01*
X118872142Y-75288142D01*
X118800714Y-75359571D01*
X118300714Y-75359571D01*
X118300714Y-75073857D01*
X118943571Y-76002428D02*
X117443571Y-76002428D01*
X117443571Y-76502428D02*
X117443571Y-77359571D01*
X118943571Y-76931000D02*
X117443571Y-76931000D01*
X118943571Y-77859571D02*
X117443571Y-77859571D01*
X118157857Y-77859571D02*
X118157857Y-78716714D01*
X118943571Y-78716714D02*
X117443571Y-78716714D01*
X117443571Y-79431000D02*
X118657857Y-79431000D01*
X118800714Y-79502428D01*
X118872142Y-79573857D01*
X118943571Y-79716714D01*
X118943571Y-80002428D01*
X118872142Y-80145285D01*
X118800714Y-80216714D01*
X118657857Y-80288142D01*
X117443571Y-80288142D01*
X118157857Y-81502428D02*
X118229285Y-81716714D01*
X118300714Y-81788142D01*
X118443571Y-81859571D01*
X118657857Y-81859571D01*
X118800714Y-81788142D01*
X118872142Y-81716714D01*
X118943571Y-81573857D01*
X118943571Y-81002428D01*
X117443571Y-81002428D01*
X117443571Y-81502428D01*
X117515000Y-81645285D01*
X117586428Y-81716714D01*
X117729285Y-81788142D01*
X117872142Y-81788142D01*
X118015000Y-81716714D01*
X118086428Y-81645285D01*
X118157857Y-81502428D01*
X118157857Y-81002428D01*
X118943571Y-83645285D02*
X117443571Y-83645285D01*
X118943571Y-84288142D02*
X118157857Y-84288142D01*
X118015000Y-84216714D01*
X117943571Y-84073857D01*
X117943571Y-83859571D01*
X118015000Y-83716714D01*
X118086428Y-83645285D01*
X117943571Y-84788142D02*
X117943571Y-85359571D01*
X117443571Y-85002428D02*
X118729285Y-85002428D01*
X118872142Y-85073857D01*
X118943571Y-85216714D01*
X118943571Y-85359571D01*
X117943571Y-85645285D02*
X117943571Y-86216714D01*
X117443571Y-85859571D02*
X118729285Y-85859571D01*
X118872142Y-85931000D01*
X118943571Y-86073857D01*
X118943571Y-86216714D01*
X117943571Y-86716714D02*
X119443571Y-86716714D01*
X118015000Y-86716714D02*
X117943571Y-86859571D01*
X117943571Y-87145285D01*
X118015000Y-87288142D01*
X118086428Y-87359571D01*
X118229285Y-87431000D01*
X118657857Y-87431000D01*
X118800714Y-87359571D01*
X118872142Y-87288142D01*
X118943571Y-87145285D01*
X118943571Y-86859571D01*
X118872142Y-86716714D01*
X118872142Y-88002428D02*
X118943571Y-88145285D01*
X118943571Y-88431000D01*
X118872142Y-88573857D01*
X118729285Y-88645285D01*
X118657857Y-88645285D01*
X118515000Y-88573857D01*
X118443571Y-88431000D01*
X118443571Y-88216714D01*
X118372142Y-88073857D01*
X118229285Y-88002428D01*
X118157857Y-88002428D01*
X118015000Y-88073857D01*
X117943571Y-88216714D01*
X117943571Y-88431000D01*
X118015000Y-88573857D01*
X118800714Y-89288142D02*
X118872142Y-89359571D01*
X118943571Y-89288142D01*
X118872142Y-89216714D01*
X118800714Y-89288142D01*
X118943571Y-89288142D01*
X118015000Y-89288142D02*
X118086428Y-89359571D01*
X118157857Y-89288142D01*
X118086428Y-89216714D01*
X118015000Y-89288142D01*
X118157857Y-89288142D01*
X117372142Y-91073857D02*
X119300714Y-89788142D01*
X117372142Y-92645285D02*
X119300714Y-91359571D01*
X117943571Y-93788142D02*
X119157857Y-93788142D01*
X119300714Y-93716714D01*
X119372142Y-93645285D01*
X119443571Y-93502428D01*
X119443571Y-93288142D01*
X119372142Y-93145285D01*
X118872142Y-93788142D02*
X118943571Y-93645285D01*
X118943571Y-93359571D01*
X118872142Y-93216714D01*
X118800714Y-93145285D01*
X118657857Y-93073857D01*
X118229285Y-93073857D01*
X118086428Y-93145285D01*
X118015000Y-93216714D01*
X117943571Y-93359571D01*
X117943571Y-93645285D01*
X118015000Y-93788142D01*
X118943571Y-94502428D02*
X117943571Y-94502428D01*
X117443571Y-94502428D02*
X117515000Y-94431000D01*
X117586428Y-94502428D01*
X117515000Y-94573857D01*
X117443571Y-94502428D01*
X117586428Y-94502428D01*
X117943571Y-95002428D02*
X117943571Y-95573857D01*
X117443571Y-95216714D02*
X118729285Y-95216714D01*
X118872142Y-95288142D01*
X118943571Y-95431000D01*
X118943571Y-95573857D01*
X118943571Y-96073857D02*
X117443571Y-96073857D01*
X118943571Y-96716714D02*
X118157857Y-96716714D01*
X118015000Y-96645285D01*
X117943571Y-96502428D01*
X117943571Y-96288142D01*
X118015000Y-96145285D01*
X118086428Y-96073857D01*
X117943571Y-98073857D02*
X118943571Y-98073857D01*
X117943571Y-97431000D02*
X118729285Y-97431000D01*
X118872142Y-97502428D01*
X118943571Y-97645285D01*
X118943571Y-97859571D01*
X118872142Y-98002428D01*
X118800714Y-98073857D01*
X118943571Y-98788142D02*
X117443571Y-98788142D01*
X118015000Y-98788142D02*
X117943571Y-98931000D01*
X117943571Y-99216714D01*
X118015000Y-99359571D01*
X118086428Y-99431000D01*
X118229285Y-99502428D01*
X118657857Y-99502428D01*
X118800714Y-99431000D01*
X118872142Y-99359571D01*
X118943571Y-99216714D01*
X118943571Y-98931000D01*
X118872142Y-98788142D01*
X118800714Y-100145285D02*
X118872142Y-100216714D01*
X118943571Y-100145285D01*
X118872142Y-100073857D01*
X118800714Y-100145285D01*
X118943571Y-100145285D01*
X118872142Y-101502428D02*
X118943571Y-101359571D01*
X118943571Y-101073857D01*
X118872142Y-100931000D01*
X118800714Y-100859571D01*
X118657857Y-100788142D01*
X118229285Y-100788142D01*
X118086428Y-100859571D01*
X118015000Y-100931000D01*
X117943571Y-101073857D01*
X117943571Y-101359571D01*
X118015000Y-101502428D01*
X118943571Y-102359571D02*
X118872142Y-102216714D01*
X118800714Y-102145285D01*
X118657857Y-102073857D01*
X118229285Y-102073857D01*
X118086428Y-102145285D01*
X118015000Y-102216714D01*
X117943571Y-102359571D01*
X117943571Y-102573857D01*
X118015000Y-102716714D01*
X118086428Y-102788142D01*
X118229285Y-102859571D01*
X118657857Y-102859571D01*
X118800714Y-102788142D01*
X118872142Y-102716714D01*
X118943571Y-102573857D01*
X118943571Y-102359571D01*
X118943571Y-103502428D02*
X117943571Y-103502428D01*
X118086428Y-103502428D02*
X118015000Y-103573857D01*
X117943571Y-103716714D01*
X117943571Y-103931000D01*
X118015000Y-104073857D01*
X118157857Y-104145285D01*
X118943571Y-104145285D01*
X118157857Y-104145285D02*
X118015000Y-104216714D01*
X117943571Y-104359571D01*
X117943571Y-104573857D01*
X118015000Y-104716714D01*
X118157857Y-104788142D01*
X118943571Y-104788142D01*
X117372142Y-106573857D02*
X119300714Y-105288142D01*
X118943571Y-107288142D02*
X118872142Y-107145285D01*
X118729285Y-107073857D01*
X117443571Y-107073857D01*
X118943571Y-108502428D02*
X118157857Y-108502428D01*
X118015000Y-108431000D01*
X117943571Y-108288142D01*
X117943571Y-108002428D01*
X118015000Y-107859571D01*
X118872142Y-108502428D02*
X118943571Y-108359571D01*
X118943571Y-108002428D01*
X118872142Y-107859571D01*
X118729285Y-107788142D01*
X118586428Y-107788142D01*
X118443571Y-107859571D01*
X118372142Y-108002428D01*
X118372142Y-108359571D01*
X118300714Y-108502428D01*
X117943571Y-109216714D02*
X118943571Y-109216714D01*
X118086428Y-109216714D02*
X118015000Y-109288142D01*
X117943571Y-109431000D01*
X117943571Y-109645285D01*
X118015000Y-109788142D01*
X118157857Y-109859571D01*
X118943571Y-109859571D01*
X117943571Y-111216714D02*
X119157857Y-111216714D01*
X119300714Y-111145285D01*
X119372142Y-111073857D01*
X119443571Y-110931000D01*
X119443571Y-110716714D01*
X119372142Y-110573857D01*
X118872142Y-111216714D02*
X118943571Y-111073857D01*
X118943571Y-110788142D01*
X118872142Y-110645285D01*
X118800714Y-110573857D01*
X118657857Y-110502428D01*
X118229285Y-110502428D01*
X118086428Y-110573857D01*
X118015000Y-110645285D01*
X117943571Y-110788142D01*
X117943571Y-111073857D01*
X118015000Y-111216714D01*
X117943571Y-111931000D02*
X119443571Y-111931000D01*
X118015000Y-111931000D02*
X117943571Y-112073857D01*
X117943571Y-112359571D01*
X118015000Y-112502428D01*
X118086428Y-112573857D01*
X118229285Y-112645285D01*
X118657857Y-112645285D01*
X118800714Y-112573857D01*
X118872142Y-112502428D01*
X118943571Y-112359571D01*
X118943571Y-112073857D01*
X118872142Y-111931000D01*
X118943571Y-113288142D02*
X117943571Y-113288142D01*
X117443571Y-113288142D02*
X117515000Y-113216714D01*
X117586428Y-113288142D01*
X117515000Y-113359571D01*
X117443571Y-113288142D01*
X117586428Y-113288142D01*
X118872142Y-114573857D02*
X118943571Y-114431000D01*
X118943571Y-114145285D01*
X118872142Y-114002428D01*
X118729285Y-113931000D01*
X118157857Y-113931000D01*
X118015000Y-114002428D01*
X117943571Y-114145285D01*
X117943571Y-114431000D01*
X118015000Y-114573857D01*
X118157857Y-114645285D01*
X118300714Y-114645285D01*
X118443571Y-113931000D01*
X117372142Y-116359571D02*
X119300714Y-115073857D01*
X118943571Y-117073857D02*
X118872142Y-116931000D01*
X118729285Y-116859571D01*
X117443571Y-116859571D01*
X118943571Y-118288142D02*
X118157857Y-118288142D01*
X118015000Y-118216714D01*
X117943571Y-118073857D01*
X117943571Y-117788142D01*
X118015000Y-117645285D01*
X118872142Y-118288142D02*
X118943571Y-118145285D01*
X118943571Y-117788142D01*
X118872142Y-117645285D01*
X118729285Y-117573857D01*
X118586428Y-117573857D01*
X118443571Y-117645285D01*
X118372142Y-117788142D01*
X118372142Y-118145285D01*
X118300714Y-118288142D01*
X117943571Y-119002428D02*
X118943571Y-119002428D01*
X118086428Y-119002428D02*
X118015000Y-119073857D01*
X117943571Y-119216714D01*
X117943571Y-119431000D01*
X118015000Y-119573857D01*
X118157857Y-119645285D01*
X118943571Y-119645285D01*
X117943571Y-121002428D02*
X119157857Y-121002428D01*
X119300714Y-120931000D01*
X119372142Y-120859571D01*
X119443571Y-120716714D01*
X119443571Y-120502428D01*
X119372142Y-120359571D01*
X118872142Y-121002428D02*
X118943571Y-120859571D01*
X118943571Y-120573857D01*
X118872142Y-120431000D01*
X118800714Y-120359571D01*
X118657857Y-120288142D01*
X118229285Y-120288142D01*
X118086428Y-120359571D01*
X118015000Y-120431000D01*
X117943571Y-120573857D01*
X117943571Y-120859571D01*
X118015000Y-121002428D01*
X117943571Y-121716714D02*
X119443571Y-121716714D01*
X118015000Y-121716714D02*
X117943571Y-121859571D01*
X117943571Y-122145285D01*
X118015000Y-122288142D01*
X118086428Y-122359571D01*
X118229285Y-122431000D01*
X118657857Y-122431000D01*
X118800714Y-122359571D01*
X118872142Y-122288142D01*
X118943571Y-122145285D01*
X118943571Y-121859571D01*
X118872142Y-121716714D01*
X118943571Y-123073857D02*
X117943571Y-123073857D01*
X117443571Y-123073857D02*
X117515000Y-123002428D01*
X117586428Y-123073857D01*
X117515000Y-123145285D01*
X117443571Y-123073857D01*
X117586428Y-123073857D01*
X118872142Y-124359571D02*
X118943571Y-124216714D01*
X118943571Y-123931000D01*
X118872142Y-123788142D01*
X118729285Y-123716714D01*
X118157857Y-123716714D01*
X118015000Y-123788142D01*
X117943571Y-123931000D01*
X117943571Y-124216714D01*
X118015000Y-124359571D01*
X118157857Y-124431000D01*
X118300714Y-124431000D01*
X118443571Y-123716714D01*
D11*
X173517422Y-96611000D02*
X174034578Y-96611000D01*
X173517422Y-98031000D02*
X174034578Y-98031000D01*
X179566000Y-71036578D02*
X179566000Y-70519422D01*
X178146000Y-71036578D02*
X178146000Y-70519422D01*
X147405000Y-68733064D02*
X147405000Y-67528936D01*
X149225000Y-68733064D02*
X149225000Y-67528936D01*
X149123578Y-72921000D02*
X148606422Y-72921000D01*
X149123578Y-74341000D02*
X148606422Y-74341000D01*
X174034578Y-89118000D02*
X173517422Y-89118000D01*
X174034578Y-90538000D02*
X173517422Y-90538000D01*
X175013064Y-91712000D02*
X173808936Y-91712000D01*
X175013064Y-93532000D02*
X173808936Y-93532000D01*
X159175578Y-96507000D02*
X158658422Y-96507000D01*
X159175578Y-95087000D02*
X158658422Y-95087000D01*
X158658422Y-93205000D02*
X159175578Y-93205000D01*
X158658422Y-91785000D02*
X159175578Y-91785000D01*
X173808936Y-84896000D02*
X175013064Y-84896000D01*
X173808936Y-83076000D02*
X175013064Y-83076000D01*
X172581000Y-79409422D02*
X172581000Y-79926578D01*
X171161000Y-79409422D02*
X171161000Y-79926578D01*
X177153000Y-71036578D02*
X177153000Y-70519422D01*
X175733000Y-71036578D02*
X175733000Y-70519422D01*
X159838936Y-79139000D02*
X161043064Y-79139000D01*
X159838936Y-80959000D02*
X161043064Y-80959000D01*
X158896000Y-126752064D02*
X158896000Y-125547936D01*
X160716000Y-126752064D02*
X160716000Y-125547936D01*
X157795000Y-126752064D02*
X157795000Y-125547936D01*
X155975000Y-126752064D02*
X155975000Y-125547936D01*
X177426064Y-123123000D02*
X176221936Y-123123000D01*
X177426064Y-121303000D02*
X176221936Y-121303000D01*
X177426064Y-124351000D02*
X176221936Y-124351000D01*
X177426064Y-126171000D02*
X176221936Y-126171000D01*
X163620578Y-123939000D02*
X163103422Y-123939000D01*
X163620578Y-122519000D02*
X163103422Y-122519000D01*
X177682578Y-118582000D02*
X177165422Y-118582000D01*
X177682578Y-120002000D02*
X177165422Y-120002000D01*
X169564000Y-130592936D02*
X169564000Y-131797064D01*
X171384000Y-130592936D02*
X171384000Y-131797064D01*
X166538000Y-74363000D02*
X166538000Y-79763000D01*
X169838000Y-74363000D02*
X169838000Y-79763000D01*
X166538000Y-74363000D02*
X169838000Y-74363000D01*
X179081000Y-114086000D02*
X179081000Y-117386000D01*
X179081000Y-117386000D02*
X173681000Y-117386000D01*
X179081000Y-114086000D02*
X173681000Y-114086000D01*
X109224064Y-84219000D02*
X108019936Y-84219000D01*
X109224064Y-86039000D02*
X108019936Y-86039000D01*
X103477000Y-87669000D02*
X103477000Y-87009000D01*
X101747000Y-87669000D02*
X103477000Y-87669000D01*
X99177000Y-80049000D02*
X99387000Y-80049000D01*
X99177000Y-87669000D02*
X99387000Y-87669000D01*
X101747000Y-80049000D02*
X103477000Y-80049000D01*
X103477000Y-80049000D02*
X103477000Y-80699000D01*
X104177000Y-85619000D02*
X104177000Y-85169000D01*
X104177000Y-85619000D02*
X103787000Y-85619000D01*
X158332000Y-69760000D02*
X158332000Y-72760000D01*
X158332000Y-72760000D02*
X170932000Y-72760000D01*
X170932000Y-72760000D02*
X170932000Y-69760000D01*
X170932000Y-63160000D02*
X170932000Y-60160000D01*
X170932000Y-60160000D02*
X158332000Y-60160000D01*
X158332000Y-60160000D02*
X158332000Y-63160000D01*
X158332000Y-104610000D02*
X158332000Y-107610000D01*
X170932000Y-104610000D02*
X158332000Y-104610000D01*
X170932000Y-107610000D02*
X170932000Y-104610000D01*
X170932000Y-117210000D02*
X170932000Y-114210000D01*
X158332000Y-117210000D02*
X170932000Y-117210000D01*
X158332000Y-114210000D02*
X158332000Y-117210000D01*
X155871000Y-135604000D02*
X155871000Y-134674000D01*
X155871000Y-132444000D02*
X155871000Y-133374000D01*
X155871000Y-132444000D02*
X158031000Y-132444000D01*
X155871000Y-135604000D02*
X157331000Y-135604000D01*
X159350000Y-138092578D02*
X159350000Y-137575422D01*
X160770000Y-138092578D02*
X160770000Y-137575422D01*
X159350000Y-134282578D02*
X159350000Y-133765422D01*
X160770000Y-134282578D02*
X160770000Y-133765422D01*
X156579000Y-137575422D02*
X156579000Y-138092578D01*
X155159000Y-137575422D02*
X155159000Y-138092578D01*
X147405000Y-76989578D02*
X147405000Y-76472422D01*
X148825000Y-76989578D02*
X148825000Y-76472422D01*
X148775000Y-81389578D02*
X148775000Y-80872422D01*
X147355000Y-81389578D02*
X147355000Y-80872422D01*
X158658422Y-89245000D02*
X159175578Y-89245000D01*
X158658422Y-90665000D02*
X159175578Y-90665000D01*
X169383000Y-100881578D02*
X169383000Y-100364422D01*
X170803000Y-100881578D02*
X170803000Y-100364422D01*
X174034578Y-99151000D02*
X173517422Y-99151000D01*
X174034578Y-100571000D02*
X173517422Y-100571000D01*
X168263000Y-87918422D02*
X168263000Y-88435578D01*
X166843000Y-87918422D02*
X166843000Y-88435578D01*
X170803000Y-88435578D02*
X170803000Y-87918422D01*
X169383000Y-88435578D02*
X169383000Y-87918422D01*
X164453000Y-88435578D02*
X164453000Y-87918422D01*
X163033000Y-88435578D02*
X163033000Y-87918422D01*
X173320000Y-71036578D02*
X173320000Y-70519422D01*
X174740000Y-71036578D02*
X174740000Y-70519422D01*
X178851422Y-84696000D02*
X179368578Y-84696000D01*
X178851422Y-83276000D02*
X179368578Y-83276000D01*
X181979000Y-75862578D02*
X181979000Y-75345422D01*
X180559000Y-75862578D02*
X180559000Y-75345422D01*
X181979000Y-70519422D02*
X181979000Y-71036578D01*
X180559000Y-70519422D02*
X180559000Y-71036578D01*
X160643000Y-121192422D02*
X160643000Y-121709578D01*
X159223000Y-121192422D02*
X159223000Y-121709578D01*
X163103422Y-121399000D02*
X163620578Y-121399000D01*
X163103422Y-119979000D02*
X163620578Y-119979000D01*
X168488332Y-130336422D02*
X168488332Y-130853578D01*
X167068332Y-130336422D02*
X167068332Y-130853578D01*
X163437000Y-130336422D02*
X163437000Y-130853578D01*
X162017000Y-130336422D02*
X162017000Y-130853578D01*
X164542666Y-130336422D02*
X164542666Y-130853578D01*
X165962666Y-130336422D02*
X165962666Y-130853578D01*
D12*
X102162000Y-118512000D02*
X102162000Y-109912000D01*
X97562000Y-118512000D02*
X97562000Y-116312000D01*
X97562000Y-112212000D02*
X97562000Y-109912000D01*
X164287000Y-91421000D02*
X168787000Y-91421000D01*
X163162000Y-96971000D02*
X168787000Y-96971000D01*
D11*
X171510000Y-123483000D02*
X171510000Y-125433000D01*
X171510000Y-123483000D02*
X171510000Y-121533000D01*
X166390000Y-123483000D02*
X166390000Y-125433000D01*
X166390000Y-123483000D02*
X166390000Y-120033000D01*
X179005000Y-77631000D02*
X179005000Y-79581000D01*
X179005000Y-77631000D02*
X179005000Y-75681000D01*
X173885000Y-77631000D02*
X173885000Y-79581000D01*
X173885000Y-77631000D02*
X173885000Y-74181000D01*
D12*
X176863666Y-97678142D02*
X176911285Y-97725761D01*
X177054142Y-97773380D01*
X177149380Y-97773380D01*
X177292238Y-97725761D01*
X177387476Y-97630523D01*
X177435095Y-97535285D01*
X177482714Y-97344809D01*
X177482714Y-97201952D01*
X177435095Y-97011476D01*
X177387476Y-96916238D01*
X177292238Y-96821000D01*
X177149380Y-96773380D01*
X177054142Y-96773380D01*
X176911285Y-96821000D01*
X176863666Y-96868619D01*
X175958904Y-96773380D02*
X176435095Y-96773380D01*
X176482714Y-97249571D01*
X176435095Y-97201952D01*
X176339857Y-97154333D01*
X176101761Y-97154333D01*
X176006523Y-97201952D01*
X175958904Y-97249571D01*
X175911285Y-97344809D01*
X175911285Y-97582904D01*
X175958904Y-97678142D01*
X176006523Y-97725761D01*
X176101761Y-97773380D01*
X176339857Y-97773380D01*
X176435095Y-97725761D01*
X176482714Y-97678142D01*
X179435380Y-67087142D02*
X178959190Y-66753809D01*
X179435380Y-66515714D02*
X178435380Y-66515714D01*
X178435380Y-66896666D01*
X178483000Y-66991904D01*
X178530619Y-67039523D01*
X178625857Y-67087142D01*
X178768714Y-67087142D01*
X178863952Y-67039523D01*
X178911571Y-66991904D01*
X178959190Y-66896666D01*
X178959190Y-66515714D01*
X179435380Y-68039523D02*
X179435380Y-67468095D01*
X179435380Y-67753809D02*
X178435380Y-67753809D01*
X178578238Y-67658571D01*
X178673476Y-67563333D01*
X178721095Y-67468095D01*
X178435380Y-68944285D02*
X178435380Y-68468095D01*
X178911571Y-68420476D01*
X178863952Y-68468095D01*
X178816333Y-68563333D01*
X178816333Y-68801428D01*
X178863952Y-68896666D01*
X178911571Y-68944285D01*
X179006809Y-68991904D01*
X179244904Y-68991904D01*
X179340142Y-68944285D01*
X179387761Y-68896666D01*
X179435380Y-68801428D01*
X179435380Y-68563333D01*
X179387761Y-68468095D01*
X179340142Y-68420476D01*
D13*
X115224523Y-81964333D02*
X115224523Y-80059571D01*
X111224523Y-80059571D01*
X115224523Y-85011952D02*
X113129285Y-85011952D01*
X112748333Y-84821476D01*
X112557857Y-84440523D01*
X112557857Y-83678619D01*
X112748333Y-83297666D01*
X115034047Y-85011952D02*
X115224523Y-84631000D01*
X115224523Y-83678619D01*
X115034047Y-83297666D01*
X114653095Y-83107190D01*
X114272142Y-83107190D01*
X113891190Y-83297666D01*
X113700714Y-83678619D01*
X113700714Y-84631000D01*
X113510238Y-85011952D01*
X112557857Y-86916714D02*
X115224523Y-86916714D01*
X112938809Y-86916714D02*
X112748333Y-87107190D01*
X112557857Y-87488142D01*
X112557857Y-88059571D01*
X112748333Y-88440523D01*
X113129285Y-88631000D01*
X115224523Y-88631000D01*
X112557857Y-92250047D02*
X115795952Y-92250047D01*
X116176904Y-92059571D01*
X116367380Y-91869095D01*
X116557857Y-91488142D01*
X116557857Y-90916714D01*
X116367380Y-90535761D01*
X115034047Y-92250047D02*
X115224523Y-91869095D01*
X115224523Y-91107190D01*
X115034047Y-90726238D01*
X114843571Y-90535761D01*
X114462619Y-90345285D01*
X113319761Y-90345285D01*
X112938809Y-90535761D01*
X112748333Y-90726238D01*
X112557857Y-91107190D01*
X112557857Y-91869095D01*
X112748333Y-92250047D01*
X112557857Y-94154809D02*
X116557857Y-94154809D01*
X112748333Y-94154809D02*
X112557857Y-94535761D01*
X112557857Y-95297666D01*
X112748333Y-95678619D01*
X112938809Y-95869095D01*
X113319761Y-96059571D01*
X114462619Y-96059571D01*
X114843571Y-95869095D01*
X115034047Y-95678619D01*
X115224523Y-95297666D01*
X115224523Y-94535761D01*
X115034047Y-94154809D01*
X115224523Y-97773857D02*
X112557857Y-97773857D01*
X111224523Y-97773857D02*
X111415000Y-97583380D01*
X111605476Y-97773857D01*
X111415000Y-97964333D01*
X111224523Y-97773857D01*
X111605476Y-97773857D01*
X115034047Y-101202428D02*
X115224523Y-100821476D01*
X115224523Y-100059571D01*
X115034047Y-99678619D01*
X114653095Y-99488142D01*
X113129285Y-99488142D01*
X112748333Y-99678619D01*
X112557857Y-100059571D01*
X112557857Y-100821476D01*
X112748333Y-101202428D01*
X113129285Y-101392904D01*
X113510238Y-101392904D01*
X113891190Y-99488142D01*
X111224523Y-105583380D02*
X115224523Y-106916714D01*
X111224523Y-108250047D01*
X115224523Y-111678619D02*
X115224523Y-109392904D01*
X115224523Y-110535761D02*
X111224523Y-110535761D01*
X111795952Y-110154809D01*
X112176904Y-109773857D01*
X112367380Y-109392904D01*
X114843571Y-113392904D02*
X115034047Y-113583380D01*
X115224523Y-113392904D01*
X115034047Y-113202428D01*
X114843571Y-113392904D01*
X115224523Y-113392904D01*
X111224523Y-116059571D02*
X111224523Y-116440523D01*
X111415000Y-116821476D01*
X111605476Y-117011952D01*
X111986428Y-117202428D01*
X112748333Y-117392904D01*
X113700714Y-117392904D01*
X114462619Y-117202428D01*
X114843571Y-117011952D01*
X115034047Y-116821476D01*
X115224523Y-116440523D01*
X115224523Y-116059571D01*
X115034047Y-115678619D01*
X114843571Y-115488142D01*
X114462619Y-115297666D01*
X113700714Y-115107190D01*
X112748333Y-115107190D01*
X111986428Y-115297666D01*
X111605476Y-115488142D01*
X111415000Y-115678619D01*
X111224523Y-116059571D01*
D12*
X151022142Y-68214333D02*
X151069761Y-68166714D01*
X151117380Y-68023857D01*
X151117380Y-67928619D01*
X151069761Y-67785761D01*
X150974523Y-67690523D01*
X150879285Y-67642904D01*
X150688809Y-67595285D01*
X150545952Y-67595285D01*
X150355476Y-67642904D01*
X150260238Y-67690523D01*
X150165000Y-67785761D01*
X150117380Y-67928619D01*
X150117380Y-68023857D01*
X150165000Y-68166714D01*
X150212619Y-68214333D01*
X151117380Y-69166714D02*
X151117380Y-68595285D01*
X151117380Y-68881000D02*
X150117380Y-68881000D01*
X150260238Y-68785761D01*
X150355476Y-68690523D01*
X150403095Y-68595285D01*
X152272142Y-73464333D02*
X152319761Y-73416714D01*
X152367380Y-73273857D01*
X152367380Y-73178619D01*
X152319761Y-73035761D01*
X152224523Y-72940523D01*
X152129285Y-72892904D01*
X151938809Y-72845285D01*
X151795952Y-72845285D01*
X151605476Y-72892904D01*
X151510238Y-72940523D01*
X151415000Y-73035761D01*
X151367380Y-73178619D01*
X151367380Y-73273857D01*
X151415000Y-73416714D01*
X151462619Y-73464333D01*
X151462619Y-73845285D02*
X151415000Y-73892904D01*
X151367380Y-73988142D01*
X151367380Y-74226238D01*
X151415000Y-74321476D01*
X151462619Y-74369095D01*
X151557857Y-74416714D01*
X151653095Y-74416714D01*
X151795952Y-74369095D01*
X152367380Y-73797666D01*
X152367380Y-74416714D01*
X177117666Y-90185142D02*
X177165285Y-90232761D01*
X177308142Y-90280380D01*
X177403380Y-90280380D01*
X177546238Y-90232761D01*
X177641476Y-90137523D01*
X177689095Y-90042285D01*
X177736714Y-89851809D01*
X177736714Y-89708952D01*
X177689095Y-89518476D01*
X177641476Y-89423238D01*
X177546238Y-89328000D01*
X177403380Y-89280380D01*
X177308142Y-89280380D01*
X177165285Y-89328000D01*
X177117666Y-89375619D01*
X176784333Y-89280380D02*
X176165285Y-89280380D01*
X176498619Y-89661333D01*
X176355761Y-89661333D01*
X176260523Y-89708952D01*
X176212904Y-89756571D01*
X176165285Y-89851809D01*
X176165285Y-90089904D01*
X176212904Y-90185142D01*
X176260523Y-90232761D01*
X176355761Y-90280380D01*
X176641476Y-90280380D01*
X176736714Y-90232761D01*
X176784333Y-90185142D01*
X178260666Y-92852142D02*
X178308285Y-92899761D01*
X178451142Y-92947380D01*
X178546380Y-92947380D01*
X178689238Y-92899761D01*
X178784476Y-92804523D01*
X178832095Y-92709285D01*
X178879714Y-92518809D01*
X178879714Y-92375952D01*
X178832095Y-92185476D01*
X178784476Y-92090238D01*
X178689238Y-91995000D01*
X178546380Y-91947380D01*
X178451142Y-91947380D01*
X178308285Y-91995000D01*
X178260666Y-92042619D01*
X177403523Y-92280714D02*
X177403523Y-92947380D01*
X177641619Y-91899761D02*
X177879714Y-92614047D01*
X177260666Y-92614047D01*
X156162666Y-96027142D02*
X156210285Y-96074761D01*
X156353142Y-96122380D01*
X156448380Y-96122380D01*
X156591238Y-96074761D01*
X156686476Y-95979523D01*
X156734095Y-95884285D01*
X156781714Y-95693809D01*
X156781714Y-95550952D01*
X156734095Y-95360476D01*
X156686476Y-95265238D01*
X156591238Y-95170000D01*
X156448380Y-95122380D01*
X156353142Y-95122380D01*
X156210285Y-95170000D01*
X156162666Y-95217619D01*
X155305523Y-95122380D02*
X155496000Y-95122380D01*
X155591238Y-95170000D01*
X155638857Y-95217619D01*
X155734095Y-95360476D01*
X155781714Y-95550952D01*
X155781714Y-95931904D01*
X155734095Y-96027142D01*
X155686476Y-96074761D01*
X155591238Y-96122380D01*
X155400761Y-96122380D01*
X155305523Y-96074761D01*
X155257904Y-96027142D01*
X155210285Y-95931904D01*
X155210285Y-95693809D01*
X155257904Y-95598571D01*
X155305523Y-95550952D01*
X155400761Y-95503333D01*
X155591238Y-95503333D01*
X155686476Y-95550952D01*
X155734095Y-95598571D01*
X155781714Y-95693809D01*
X156162666Y-92852142D02*
X156210285Y-92899761D01*
X156353142Y-92947380D01*
X156448380Y-92947380D01*
X156591238Y-92899761D01*
X156686476Y-92804523D01*
X156734095Y-92709285D01*
X156781714Y-92518809D01*
X156781714Y-92375952D01*
X156734095Y-92185476D01*
X156686476Y-92090238D01*
X156591238Y-91995000D01*
X156448380Y-91947380D01*
X156353142Y-91947380D01*
X156210285Y-91995000D01*
X156162666Y-92042619D01*
X155829333Y-91947380D02*
X155162666Y-91947380D01*
X155591238Y-92947380D01*
X174704666Y-86502142D02*
X174752285Y-86549761D01*
X174895142Y-86597380D01*
X174990380Y-86597380D01*
X175133238Y-86549761D01*
X175228476Y-86454523D01*
X175276095Y-86359285D01*
X175323714Y-86168809D01*
X175323714Y-86025952D01*
X175276095Y-85835476D01*
X175228476Y-85740238D01*
X175133238Y-85645000D01*
X174990380Y-85597380D01*
X174895142Y-85597380D01*
X174752285Y-85645000D01*
X174704666Y-85692619D01*
X174133238Y-86025952D02*
X174228476Y-85978333D01*
X174276095Y-85930714D01*
X174323714Y-85835476D01*
X174323714Y-85787857D01*
X174276095Y-85692619D01*
X174228476Y-85645000D01*
X174133238Y-85597380D01*
X173942761Y-85597380D01*
X173847523Y-85645000D01*
X173799904Y-85692619D01*
X173752285Y-85787857D01*
X173752285Y-85835476D01*
X173799904Y-85930714D01*
X173847523Y-85978333D01*
X173942761Y-86025952D01*
X174133238Y-86025952D01*
X174228476Y-86073571D01*
X174276095Y-86121190D01*
X174323714Y-86216428D01*
X174323714Y-86406904D01*
X174276095Y-86502142D01*
X174228476Y-86549761D01*
X174133238Y-86597380D01*
X173942761Y-86597380D01*
X173847523Y-86549761D01*
X173799904Y-86502142D01*
X173752285Y-86406904D01*
X173752285Y-86216428D01*
X173799904Y-86121190D01*
X173847523Y-86073571D01*
X173942761Y-86025952D01*
X172228142Y-76453333D02*
X172275761Y-76405714D01*
X172323380Y-76262857D01*
X172323380Y-76167619D01*
X172275761Y-76024761D01*
X172180523Y-75929523D01*
X172085285Y-75881904D01*
X171894809Y-75834285D01*
X171751952Y-75834285D01*
X171561476Y-75881904D01*
X171466238Y-75929523D01*
X171371000Y-76024761D01*
X171323380Y-76167619D01*
X171323380Y-76262857D01*
X171371000Y-76405714D01*
X171418619Y-76453333D01*
X172323380Y-76929523D02*
X172323380Y-77120000D01*
X172275761Y-77215238D01*
X172228142Y-77262857D01*
X172085285Y-77358095D01*
X171894809Y-77405714D01*
X171513857Y-77405714D01*
X171418619Y-77358095D01*
X171371000Y-77310476D01*
X171323380Y-77215238D01*
X171323380Y-77024761D01*
X171371000Y-76929523D01*
X171418619Y-76881904D01*
X171513857Y-76834285D01*
X171751952Y-76834285D01*
X171847190Y-76881904D01*
X171894809Y-76929523D01*
X171942428Y-77024761D01*
X171942428Y-77215238D01*
X171894809Y-77310476D01*
X171847190Y-77358095D01*
X171751952Y-77405714D01*
X176800142Y-66833142D02*
X176847761Y-66785523D01*
X176895380Y-66642666D01*
X176895380Y-66547428D01*
X176847761Y-66404571D01*
X176752523Y-66309333D01*
X176657285Y-66261714D01*
X176466809Y-66214095D01*
X176323952Y-66214095D01*
X176133476Y-66261714D01*
X176038238Y-66309333D01*
X175943000Y-66404571D01*
X175895380Y-66547428D01*
X175895380Y-66642666D01*
X175943000Y-66785523D01*
X175990619Y-66833142D01*
X176895380Y-67785523D02*
X176895380Y-67214095D01*
X176895380Y-67499809D02*
X175895380Y-67499809D01*
X176038238Y-67404571D01*
X176133476Y-67309333D01*
X176181095Y-67214095D01*
X175895380Y-68404571D02*
X175895380Y-68499809D01*
X175943000Y-68595047D01*
X175990619Y-68642666D01*
X176085857Y-68690285D01*
X176276333Y-68737904D01*
X176514428Y-68737904D01*
X176704904Y-68690285D01*
X176800142Y-68642666D01*
X176847761Y-68595047D01*
X176895380Y-68499809D01*
X176895380Y-68404571D01*
X176847761Y-68309333D01*
X176800142Y-68261714D01*
X176704904Y-68214095D01*
X176514428Y-68166476D01*
X176276333Y-68166476D01*
X176085857Y-68214095D01*
X175990619Y-68261714D01*
X175943000Y-68309333D01*
X175895380Y-68404571D01*
X161083857Y-82565142D02*
X161131476Y-82612761D01*
X161274333Y-82660380D01*
X161369571Y-82660380D01*
X161512428Y-82612761D01*
X161607666Y-82517523D01*
X161655285Y-82422285D01*
X161702904Y-82231809D01*
X161702904Y-82088952D01*
X161655285Y-81898476D01*
X161607666Y-81803238D01*
X161512428Y-81708000D01*
X161369571Y-81660380D01*
X161274333Y-81660380D01*
X161131476Y-81708000D01*
X161083857Y-81755619D01*
X160131476Y-82660380D02*
X160702904Y-82660380D01*
X160417190Y-82660380D02*
X160417190Y-81660380D01*
X160512428Y-81803238D01*
X160607666Y-81898476D01*
X160702904Y-81946095D01*
X159179095Y-82660380D02*
X159750523Y-82660380D01*
X159464809Y-82660380D02*
X159464809Y-81660380D01*
X159560047Y-81803238D01*
X159655285Y-81898476D01*
X159750523Y-81946095D01*
X155083142Y-125634142D02*
X155130761Y-125586523D01*
X155178380Y-125443666D01*
X155178380Y-125348428D01*
X155130761Y-125205571D01*
X155035523Y-125110333D01*
X154940285Y-125062714D01*
X154749809Y-125015095D01*
X154606952Y-125015095D01*
X154416476Y-125062714D01*
X154321238Y-125110333D01*
X154226000Y-125205571D01*
X154178380Y-125348428D01*
X154178380Y-125443666D01*
X154226000Y-125586523D01*
X154273619Y-125634142D01*
X155178380Y-126586523D02*
X155178380Y-126015095D01*
X155178380Y-126300809D02*
X154178380Y-126300809D01*
X154321238Y-126205571D01*
X154416476Y-126110333D01*
X154464095Y-126015095D01*
X154273619Y-126967476D02*
X154226000Y-127015095D01*
X154178380Y-127110333D01*
X154178380Y-127348428D01*
X154226000Y-127443666D01*
X154273619Y-127491285D01*
X154368857Y-127538904D01*
X154464095Y-127538904D01*
X154606952Y-127491285D01*
X155178380Y-126919857D01*
X155178380Y-127538904D01*
X153178142Y-125634142D02*
X153225761Y-125586523D01*
X153273380Y-125443666D01*
X153273380Y-125348428D01*
X153225761Y-125205571D01*
X153130523Y-125110333D01*
X153035285Y-125062714D01*
X152844809Y-125015095D01*
X152701952Y-125015095D01*
X152511476Y-125062714D01*
X152416238Y-125110333D01*
X152321000Y-125205571D01*
X152273380Y-125348428D01*
X152273380Y-125443666D01*
X152321000Y-125586523D01*
X152368619Y-125634142D01*
X153273380Y-126586523D02*
X153273380Y-126015095D01*
X153273380Y-126300809D02*
X152273380Y-126300809D01*
X152416238Y-126205571D01*
X152511476Y-126110333D01*
X152559095Y-126015095D01*
X152273380Y-126919857D02*
X152273380Y-127538904D01*
X152654333Y-127205571D01*
X152654333Y-127348428D01*
X152701952Y-127443666D01*
X152749571Y-127491285D01*
X152844809Y-127538904D01*
X153082904Y-127538904D01*
X153178142Y-127491285D01*
X153225761Y-127443666D01*
X153273380Y-127348428D01*
X153273380Y-127062714D01*
X153225761Y-126967476D01*
X153178142Y-126919857D01*
X181403857Y-122570142D02*
X181451476Y-122617761D01*
X181594333Y-122665380D01*
X181689571Y-122665380D01*
X181832428Y-122617761D01*
X181927666Y-122522523D01*
X181975285Y-122427285D01*
X182022904Y-122236809D01*
X182022904Y-122093952D01*
X181975285Y-121903476D01*
X181927666Y-121808238D01*
X181832428Y-121713000D01*
X181689571Y-121665380D01*
X181594333Y-121665380D01*
X181451476Y-121713000D01*
X181403857Y-121760619D01*
X180451476Y-122665380D02*
X181022904Y-122665380D01*
X180737190Y-122665380D02*
X180737190Y-121665380D01*
X180832428Y-121808238D01*
X180927666Y-121903476D01*
X181022904Y-121951095D01*
X179594333Y-121998714D02*
X179594333Y-122665380D01*
X179832428Y-121617761D02*
X180070523Y-122332047D01*
X179451476Y-122332047D01*
X181403857Y-125745142D02*
X181451476Y-125792761D01*
X181594333Y-125840380D01*
X181689571Y-125840380D01*
X181832428Y-125792761D01*
X181927666Y-125697523D01*
X181975285Y-125602285D01*
X182022904Y-125411809D01*
X182022904Y-125268952D01*
X181975285Y-125078476D01*
X181927666Y-124983238D01*
X181832428Y-124888000D01*
X181689571Y-124840380D01*
X181594333Y-124840380D01*
X181451476Y-124888000D01*
X181403857Y-124935619D01*
X180451476Y-125840380D02*
X181022904Y-125840380D01*
X180737190Y-125840380D02*
X180737190Y-124840380D01*
X180832428Y-124983238D01*
X180927666Y-125078476D01*
X181022904Y-125126095D01*
X179546714Y-124840380D02*
X180022904Y-124840380D01*
X180070523Y-125316571D01*
X180022904Y-125268952D01*
X179927666Y-125221333D01*
X179689571Y-125221333D01*
X179594333Y-125268952D01*
X179546714Y-125316571D01*
X179499095Y-125411809D01*
X179499095Y-125649904D01*
X179546714Y-125745142D01*
X179594333Y-125792761D01*
X179689571Y-125840380D01*
X179927666Y-125840380D01*
X180022904Y-125792761D01*
X180070523Y-125745142D01*
X164004857Y-126288142D02*
X164052476Y-126335761D01*
X164195333Y-126383380D01*
X164290571Y-126383380D01*
X164433428Y-126335761D01*
X164528666Y-126240523D01*
X164576285Y-126145285D01*
X164623904Y-125954809D01*
X164623904Y-125811952D01*
X164576285Y-125621476D01*
X164528666Y-125526238D01*
X164433428Y-125431000D01*
X164290571Y-125383380D01*
X164195333Y-125383380D01*
X164052476Y-125431000D01*
X164004857Y-125478619D01*
X163052476Y-126383380D02*
X163623904Y-126383380D01*
X163338190Y-126383380D02*
X163338190Y-125383380D01*
X163433428Y-125526238D01*
X163528666Y-125621476D01*
X163623904Y-125669095D01*
X162195333Y-125383380D02*
X162385809Y-125383380D01*
X162481047Y-125431000D01*
X162528666Y-125478619D01*
X162623904Y-125621476D01*
X162671523Y-125811952D01*
X162671523Y-126192904D01*
X162623904Y-126288142D01*
X162576285Y-126335761D01*
X162481047Y-126383380D01*
X162290571Y-126383380D01*
X162195333Y-126335761D01*
X162147714Y-126288142D01*
X162100095Y-126192904D01*
X162100095Y-125954809D01*
X162147714Y-125859571D01*
X162195333Y-125811952D01*
X162290571Y-125764333D01*
X162481047Y-125764333D01*
X162576285Y-125811952D01*
X162623904Y-125859571D01*
X162671523Y-125954809D01*
X181537857Y-119776142D02*
X181585476Y-119823761D01*
X181728333Y-119871380D01*
X181823571Y-119871380D01*
X181966428Y-119823761D01*
X182061666Y-119728523D01*
X182109285Y-119633285D01*
X182156904Y-119442809D01*
X182156904Y-119299952D01*
X182109285Y-119109476D01*
X182061666Y-119014238D01*
X181966428Y-118919000D01*
X181823571Y-118871380D01*
X181728333Y-118871380D01*
X181585476Y-118919000D01*
X181537857Y-118966619D01*
X180585476Y-119871380D02*
X181156904Y-119871380D01*
X180871190Y-119871380D02*
X180871190Y-118871380D01*
X180966428Y-119014238D01*
X181061666Y-119109476D01*
X181156904Y-119157095D01*
X180252142Y-118871380D02*
X179585476Y-118871380D01*
X180014047Y-119871380D01*
X170704142Y-134489142D02*
X170751761Y-134441523D01*
X170799380Y-134298666D01*
X170799380Y-134203428D01*
X170751761Y-134060571D01*
X170656523Y-133965333D01*
X170561285Y-133917714D01*
X170370809Y-133870095D01*
X170227952Y-133870095D01*
X170037476Y-133917714D01*
X169942238Y-133965333D01*
X169847000Y-134060571D01*
X169799380Y-134203428D01*
X169799380Y-134298666D01*
X169847000Y-134441523D01*
X169894619Y-134489142D01*
X170799380Y-135441523D02*
X170799380Y-134870095D01*
X170799380Y-135155809D02*
X169799380Y-135155809D01*
X169942238Y-135060571D01*
X170037476Y-134965333D01*
X170085095Y-134870095D01*
X170227952Y-136012952D02*
X170180333Y-135917714D01*
X170132714Y-135870095D01*
X170037476Y-135822476D01*
X169989857Y-135822476D01*
X169894619Y-135870095D01*
X169847000Y-135917714D01*
X169799380Y-136012952D01*
X169799380Y-136203428D01*
X169847000Y-136298666D01*
X169894619Y-136346285D01*
X169989857Y-136393904D01*
X170037476Y-136393904D01*
X170132714Y-136346285D01*
X170180333Y-136298666D01*
X170227952Y-136203428D01*
X170227952Y-136012952D01*
X170275571Y-135917714D01*
X170323190Y-135870095D01*
X170418428Y-135822476D01*
X170608904Y-135822476D01*
X170704142Y-135870095D01*
X170751761Y-135917714D01*
X170799380Y-136012952D01*
X170799380Y-136203428D01*
X170751761Y-136298666D01*
X170704142Y-136346285D01*
X170608904Y-136393904D01*
X170418428Y-136393904D01*
X170323190Y-136346285D01*
X170275571Y-136298666D01*
X170227952Y-136203428D01*
X166140380Y-77024904D02*
X165140380Y-77024904D01*
X165140380Y-77263000D01*
X165188000Y-77405857D01*
X165283238Y-77501095D01*
X165378476Y-77548714D01*
X165568952Y-77596333D01*
X165711809Y-77596333D01*
X165902285Y-77548714D01*
X165997523Y-77501095D01*
X166092761Y-77405857D01*
X166140380Y-77263000D01*
X166140380Y-77024904D01*
X165235619Y-77977285D02*
X165188000Y-78024904D01*
X165140380Y-78120142D01*
X165140380Y-78358238D01*
X165188000Y-78453476D01*
X165235619Y-78501095D01*
X165330857Y-78548714D01*
X165426095Y-78548714D01*
X165568952Y-78501095D01*
X166140380Y-77929666D01*
X166140380Y-78548714D01*
X176419095Y-113688380D02*
X176419095Y-112688380D01*
X176181000Y-112688380D01*
X176038142Y-112736000D01*
X175942904Y-112831238D01*
X175895285Y-112926476D01*
X175847666Y-113116952D01*
X175847666Y-113259809D01*
X175895285Y-113450285D01*
X175942904Y-113545523D01*
X176038142Y-113640761D01*
X176181000Y-113688380D01*
X176419095Y-113688380D01*
X174990523Y-113021714D02*
X174990523Y-113688380D01*
X175228619Y-112640761D02*
X175466714Y-113355047D01*
X174847666Y-113355047D01*
X108955333Y-83237571D02*
X109288666Y-83237571D01*
X109288666Y-83761380D02*
X109288666Y-82761380D01*
X108812476Y-82761380D01*
X107907714Y-83761380D02*
X108479142Y-83761380D01*
X108193428Y-83761380D02*
X108193428Y-82761380D01*
X108288666Y-82904238D01*
X108383904Y-82999476D01*
X108479142Y-83047095D01*
X104519380Y-83525666D02*
X105233666Y-83525666D01*
X105376523Y-83478047D01*
X105471761Y-83382809D01*
X105519380Y-83239952D01*
X105519380Y-83144714D01*
X105519380Y-84525666D02*
X105519380Y-83954238D01*
X105519380Y-84239952D02*
X104519380Y-84239952D01*
X104662238Y-84144714D01*
X104757476Y-84049476D01*
X104805095Y-83954238D01*
X164798666Y-59812380D02*
X165274857Y-59812380D01*
X165274857Y-58812380D01*
X163941523Y-59812380D02*
X164512952Y-59812380D01*
X164227238Y-59812380D02*
X164227238Y-58812380D01*
X164322476Y-58955238D01*
X164417714Y-59050476D01*
X164512952Y-59098095D01*
X164798666Y-104262380D02*
X165274857Y-104262380D01*
X165274857Y-103262380D01*
X164512952Y-103357619D02*
X164465333Y-103310000D01*
X164370095Y-103262380D01*
X164132000Y-103262380D01*
X164036761Y-103310000D01*
X163989142Y-103357619D01*
X163941523Y-103452857D01*
X163941523Y-103548095D01*
X163989142Y-103690952D01*
X164560571Y-104262380D01*
X163941523Y-104262380D01*
X155837238Y-131777619D02*
X155932476Y-131730000D01*
X156027714Y-131634761D01*
X156170571Y-131491904D01*
X156265809Y-131444285D01*
X156361047Y-131444285D01*
X156313428Y-131682380D02*
X156408666Y-131634761D01*
X156503904Y-131539523D01*
X156551523Y-131349047D01*
X156551523Y-131015714D01*
X156503904Y-130825238D01*
X156408666Y-130730000D01*
X156313428Y-130682380D01*
X156122952Y-130682380D01*
X156027714Y-130730000D01*
X155932476Y-130825238D01*
X155884857Y-131015714D01*
X155884857Y-131349047D01*
X155932476Y-131539523D01*
X156027714Y-131634761D01*
X156122952Y-131682380D01*
X156313428Y-131682380D01*
X154932476Y-131682380D02*
X155503904Y-131682380D01*
X155218190Y-131682380D02*
X155218190Y-130682380D01*
X155313428Y-130825238D01*
X155408666Y-130920476D01*
X155503904Y-130968095D01*
X160226666Y-140953380D02*
X160560000Y-140477190D01*
X160798095Y-140953380D02*
X160798095Y-139953380D01*
X160417142Y-139953380D01*
X160321904Y-140001000D01*
X160274285Y-140048619D01*
X160226666Y-140143857D01*
X160226666Y-140286714D01*
X160274285Y-140381952D01*
X160321904Y-140429571D01*
X160417142Y-140477190D01*
X160798095Y-140477190D01*
X159274285Y-140953380D02*
X159845714Y-140953380D01*
X159560000Y-140953380D02*
X159560000Y-139953380D01*
X159655238Y-140096238D01*
X159750476Y-140191476D01*
X159845714Y-140239095D01*
X160226666Y-131682380D02*
X160560000Y-131206190D01*
X160798095Y-131682380D02*
X160798095Y-130682380D01*
X160417142Y-130682380D01*
X160321904Y-130730000D01*
X160274285Y-130777619D01*
X160226666Y-130872857D01*
X160226666Y-131015714D01*
X160274285Y-131110952D01*
X160321904Y-131158571D01*
X160417142Y-131206190D01*
X160798095Y-131206190D01*
X159845714Y-130777619D02*
X159798095Y-130730000D01*
X159702857Y-130682380D01*
X159464761Y-130682380D01*
X159369523Y-130730000D01*
X159321904Y-130777619D01*
X159274285Y-130872857D01*
X159274285Y-130968095D01*
X159321904Y-131110952D01*
X159893333Y-131682380D01*
X159274285Y-131682380D01*
X156035666Y-140826380D02*
X156369000Y-140350190D01*
X156607095Y-140826380D02*
X156607095Y-139826380D01*
X156226142Y-139826380D01*
X156130904Y-139874000D01*
X156083285Y-139921619D01*
X156035666Y-140016857D01*
X156035666Y-140159714D01*
X156083285Y-140254952D01*
X156130904Y-140302571D01*
X156226142Y-140350190D01*
X156607095Y-140350190D01*
X155702333Y-139826380D02*
X155083285Y-139826380D01*
X155416619Y-140207333D01*
X155273761Y-140207333D01*
X155178523Y-140254952D01*
X155130904Y-140302571D01*
X155083285Y-140397809D01*
X155083285Y-140635904D01*
X155130904Y-140731142D01*
X155178523Y-140778761D01*
X155273761Y-140826380D01*
X155559476Y-140826380D01*
X155654714Y-140778761D01*
X155702333Y-140731142D01*
X150567380Y-77364333D02*
X150091190Y-77031000D01*
X150567380Y-76792904D02*
X149567380Y-76792904D01*
X149567380Y-77173857D01*
X149615000Y-77269095D01*
X149662619Y-77316714D01*
X149757857Y-77364333D01*
X149900714Y-77364333D01*
X149995952Y-77316714D01*
X150043571Y-77269095D01*
X150091190Y-77173857D01*
X150091190Y-76792904D01*
X149567380Y-78269095D02*
X149567380Y-77792904D01*
X150043571Y-77745285D01*
X149995952Y-77792904D01*
X149948333Y-77888142D01*
X149948333Y-78126238D01*
X149995952Y-78221476D01*
X150043571Y-78269095D01*
X150138809Y-78316714D01*
X150376904Y-78316714D01*
X150472142Y-78269095D01*
X150519761Y-78221476D01*
X150567380Y-78126238D01*
X150567380Y-77888142D01*
X150519761Y-77792904D01*
X150472142Y-77745285D01*
X148517380Y-83885333D02*
X148041190Y-83552000D01*
X148517380Y-83313904D02*
X147517380Y-83313904D01*
X147517380Y-83694857D01*
X147565000Y-83790095D01*
X147612619Y-83837714D01*
X147707857Y-83885333D01*
X147850714Y-83885333D01*
X147945952Y-83837714D01*
X147993571Y-83790095D01*
X148041190Y-83694857D01*
X148041190Y-83313904D01*
X147517380Y-84742476D02*
X147517380Y-84552000D01*
X147565000Y-84456761D01*
X147612619Y-84409142D01*
X147755476Y-84313904D01*
X147945952Y-84266285D01*
X148326904Y-84266285D01*
X148422142Y-84313904D01*
X148469761Y-84361523D01*
X148517380Y-84456761D01*
X148517380Y-84647238D01*
X148469761Y-84742476D01*
X148422142Y-84790095D01*
X148326904Y-84837714D01*
X148088809Y-84837714D01*
X147993571Y-84790095D01*
X147945952Y-84742476D01*
X147898333Y-84647238D01*
X147898333Y-84456761D01*
X147945952Y-84361523D01*
X147993571Y-84313904D01*
X148088809Y-84266285D01*
X156162666Y-90280380D02*
X156496000Y-89804190D01*
X156734095Y-90280380D02*
X156734095Y-89280380D01*
X156353142Y-89280380D01*
X156257904Y-89328000D01*
X156210285Y-89375619D01*
X156162666Y-89470857D01*
X156162666Y-89613714D01*
X156210285Y-89708952D01*
X156257904Y-89756571D01*
X156353142Y-89804190D01*
X156734095Y-89804190D01*
X155829333Y-89280380D02*
X155162666Y-89280380D01*
X155591238Y-90280380D01*
X169640619Y-103583666D02*
X170116809Y-103917000D01*
X169640619Y-104155095D02*
X170640619Y-104155095D01*
X170640619Y-103774142D01*
X170593000Y-103678904D01*
X170545380Y-103631285D01*
X170450142Y-103583666D01*
X170307285Y-103583666D01*
X170212047Y-103631285D01*
X170164428Y-103678904D01*
X170116809Y-103774142D01*
X170116809Y-104155095D01*
X170212047Y-103012238D02*
X170259666Y-103107476D01*
X170307285Y-103155095D01*
X170402523Y-103202714D01*
X170450142Y-103202714D01*
X170545380Y-103155095D01*
X170593000Y-103107476D01*
X170640619Y-103012238D01*
X170640619Y-102821761D01*
X170593000Y-102726523D01*
X170545380Y-102678904D01*
X170450142Y-102631285D01*
X170402523Y-102631285D01*
X170307285Y-102678904D01*
X170259666Y-102726523D01*
X170212047Y-102821761D01*
X170212047Y-103012238D01*
X170164428Y-103107476D01*
X170116809Y-103155095D01*
X170021571Y-103202714D01*
X169831095Y-103202714D01*
X169735857Y-103155095D01*
X169688238Y-103107476D01*
X169640619Y-103012238D01*
X169640619Y-102821761D01*
X169688238Y-102726523D01*
X169735857Y-102678904D01*
X169831095Y-102631285D01*
X170021571Y-102631285D01*
X170116809Y-102678904D01*
X170164428Y-102726523D01*
X170212047Y-102821761D01*
X176863666Y-100059380D02*
X177197000Y-99583190D01*
X177435095Y-100059380D02*
X177435095Y-99059380D01*
X177054142Y-99059380D01*
X176958904Y-99107000D01*
X176911285Y-99154619D01*
X176863666Y-99249857D01*
X176863666Y-99392714D01*
X176911285Y-99487952D01*
X176958904Y-99535571D01*
X177054142Y-99583190D01*
X177435095Y-99583190D01*
X176387476Y-100059380D02*
X176197000Y-100059380D01*
X176101761Y-100011761D01*
X176054142Y-99964142D01*
X175958904Y-99821285D01*
X175911285Y-99630809D01*
X175911285Y-99249857D01*
X175958904Y-99154619D01*
X176006523Y-99107000D01*
X176101761Y-99059380D01*
X176292238Y-99059380D01*
X176387476Y-99107000D01*
X176435095Y-99154619D01*
X176482714Y-99249857D01*
X176482714Y-99487952D01*
X176435095Y-99583190D01*
X176387476Y-99630809D01*
X176292238Y-99678428D01*
X176101761Y-99678428D01*
X176006523Y-99630809D01*
X175958904Y-99583190D01*
X175911285Y-99487952D01*
X168132380Y-84105142D02*
X167656190Y-83771809D01*
X168132380Y-83533714D02*
X167132380Y-83533714D01*
X167132380Y-83914666D01*
X167180000Y-84009904D01*
X167227619Y-84057523D01*
X167322857Y-84105142D01*
X167465714Y-84105142D01*
X167560952Y-84057523D01*
X167608571Y-84009904D01*
X167656190Y-83914666D01*
X167656190Y-83533714D01*
X168132380Y-85057523D02*
X168132380Y-84486095D01*
X168132380Y-84771809D02*
X167132380Y-84771809D01*
X167275238Y-84676571D01*
X167370476Y-84581333D01*
X167418095Y-84486095D01*
X167132380Y-85676571D02*
X167132380Y-85771809D01*
X167180000Y-85867047D01*
X167227619Y-85914666D01*
X167322857Y-85962285D01*
X167513333Y-86009904D01*
X167751428Y-86009904D01*
X167941904Y-85962285D01*
X168037142Y-85914666D01*
X168084761Y-85867047D01*
X168132380Y-85771809D01*
X168132380Y-85676571D01*
X168084761Y-85581333D01*
X168037142Y-85533714D01*
X167941904Y-85486095D01*
X167751428Y-85438476D01*
X167513333Y-85438476D01*
X167322857Y-85486095D01*
X167227619Y-85533714D01*
X167180000Y-85581333D01*
X167132380Y-85676571D01*
X170545380Y-84105142D02*
X170069190Y-83771809D01*
X170545380Y-83533714D02*
X169545380Y-83533714D01*
X169545380Y-83914666D01*
X169593000Y-84009904D01*
X169640619Y-84057523D01*
X169735857Y-84105142D01*
X169878714Y-84105142D01*
X169973952Y-84057523D01*
X170021571Y-84009904D01*
X170069190Y-83914666D01*
X170069190Y-83533714D01*
X170545380Y-85057523D02*
X170545380Y-84486095D01*
X170545380Y-84771809D02*
X169545380Y-84771809D01*
X169688238Y-84676571D01*
X169783476Y-84581333D01*
X169831095Y-84486095D01*
X170545380Y-86009904D02*
X170545380Y-85438476D01*
X170545380Y-85724190D02*
X169545380Y-85724190D01*
X169688238Y-85628952D01*
X169783476Y-85533714D01*
X169831095Y-85438476D01*
X164195380Y-84105142D02*
X163719190Y-83771809D01*
X164195380Y-83533714D02*
X163195380Y-83533714D01*
X163195380Y-83914666D01*
X163243000Y-84009904D01*
X163290619Y-84057523D01*
X163385857Y-84105142D01*
X163528714Y-84105142D01*
X163623952Y-84057523D01*
X163671571Y-84009904D01*
X163719190Y-83914666D01*
X163719190Y-83533714D01*
X164195380Y-85057523D02*
X164195380Y-84486095D01*
X164195380Y-84771809D02*
X163195380Y-84771809D01*
X163338238Y-84676571D01*
X163433476Y-84581333D01*
X163481095Y-84486095D01*
X163290619Y-85438476D02*
X163243000Y-85486095D01*
X163195380Y-85581333D01*
X163195380Y-85819428D01*
X163243000Y-85914666D01*
X163290619Y-85962285D01*
X163385857Y-86009904D01*
X163481095Y-86009904D01*
X163623952Y-85962285D01*
X164195380Y-85390857D01*
X164195380Y-86009904D01*
X174482380Y-66833142D02*
X174006190Y-66499809D01*
X174482380Y-66261714D02*
X173482380Y-66261714D01*
X173482380Y-66642666D01*
X173530000Y-66737904D01*
X173577619Y-66785523D01*
X173672857Y-66833142D01*
X173815714Y-66833142D01*
X173910952Y-66785523D01*
X173958571Y-66737904D01*
X174006190Y-66642666D01*
X174006190Y-66261714D01*
X174482380Y-67785523D02*
X174482380Y-67214095D01*
X174482380Y-67499809D02*
X173482380Y-67499809D01*
X173625238Y-67404571D01*
X173720476Y-67309333D01*
X173768095Y-67214095D01*
X173482380Y-68118857D02*
X173482380Y-68737904D01*
X173863333Y-68404571D01*
X173863333Y-68547428D01*
X173910952Y-68642666D01*
X173958571Y-68690285D01*
X174053809Y-68737904D01*
X174291904Y-68737904D01*
X174387142Y-68690285D01*
X174434761Y-68642666D01*
X174482380Y-68547428D01*
X174482380Y-68261714D01*
X174434761Y-68166476D01*
X174387142Y-68118857D01*
X183308857Y-84565380D02*
X183642190Y-84089190D01*
X183880285Y-84565380D02*
X183880285Y-83565380D01*
X183499333Y-83565380D01*
X183404095Y-83613000D01*
X183356476Y-83660619D01*
X183308857Y-83755857D01*
X183308857Y-83898714D01*
X183356476Y-83993952D01*
X183404095Y-84041571D01*
X183499333Y-84089190D01*
X183880285Y-84089190D01*
X182356476Y-84565380D02*
X182927904Y-84565380D01*
X182642190Y-84565380D02*
X182642190Y-83565380D01*
X182737428Y-83708238D01*
X182832666Y-83803476D01*
X182927904Y-83851095D01*
X181499333Y-83898714D02*
X181499333Y-84565380D01*
X181737428Y-83517761D02*
X181975523Y-84232047D01*
X181356476Y-84232047D01*
X183371380Y-74961142D02*
X182895190Y-74627809D01*
X183371380Y-74389714D02*
X182371380Y-74389714D01*
X182371380Y-74770666D01*
X182419000Y-74865904D01*
X182466619Y-74913523D01*
X182561857Y-74961142D01*
X182704714Y-74961142D01*
X182799952Y-74913523D01*
X182847571Y-74865904D01*
X182895190Y-74770666D01*
X182895190Y-74389714D01*
X183371380Y-75913523D02*
X183371380Y-75342095D01*
X183371380Y-75627809D02*
X182371380Y-75627809D01*
X182514238Y-75532571D01*
X182609476Y-75437333D01*
X182657095Y-75342095D01*
X182371380Y-76770666D02*
X182371380Y-76580190D01*
X182419000Y-76484952D01*
X182466619Y-76437333D01*
X182609476Y-76342095D01*
X182799952Y-76294476D01*
X183180904Y-76294476D01*
X183276142Y-76342095D01*
X183323761Y-76389714D01*
X183371380Y-76484952D01*
X183371380Y-76675428D01*
X183323761Y-76770666D01*
X183276142Y-76818285D01*
X183180904Y-76865904D01*
X182942809Y-76865904D01*
X182847571Y-76818285D01*
X182799952Y-76770666D01*
X182752333Y-76675428D01*
X182752333Y-76484952D01*
X182799952Y-76389714D01*
X182847571Y-76342095D01*
X182942809Y-76294476D01*
X181594380Y-66833142D02*
X181118190Y-66499809D01*
X181594380Y-66261714D02*
X180594380Y-66261714D01*
X180594380Y-66642666D01*
X180642000Y-66737904D01*
X180689619Y-66785523D01*
X180784857Y-66833142D01*
X180927714Y-66833142D01*
X181022952Y-66785523D01*
X181070571Y-66737904D01*
X181118190Y-66642666D01*
X181118190Y-66261714D01*
X181594380Y-67785523D02*
X181594380Y-67214095D01*
X181594380Y-67499809D02*
X180594380Y-67499809D01*
X180737238Y-67404571D01*
X180832476Y-67309333D01*
X180880095Y-67214095D01*
X180594380Y-68118857D02*
X180594380Y-68785523D01*
X181594380Y-68356952D01*
X158353380Y-120808142D02*
X157877190Y-120474809D01*
X158353380Y-120236714D02*
X157353380Y-120236714D01*
X157353380Y-120617666D01*
X157401000Y-120712904D01*
X157448619Y-120760523D01*
X157543857Y-120808142D01*
X157686714Y-120808142D01*
X157781952Y-120760523D01*
X157829571Y-120712904D01*
X157877190Y-120617666D01*
X157877190Y-120236714D01*
X158353380Y-121760523D02*
X158353380Y-121189095D01*
X158353380Y-121474809D02*
X157353380Y-121474809D01*
X157496238Y-121379571D01*
X157591476Y-121284333D01*
X157639095Y-121189095D01*
X158353380Y-122236714D02*
X158353380Y-122427190D01*
X158305761Y-122522428D01*
X158258142Y-122570047D01*
X158115285Y-122665285D01*
X157924809Y-122712904D01*
X157543857Y-122712904D01*
X157448619Y-122665285D01*
X157401000Y-122617666D01*
X157353380Y-122522428D01*
X157353380Y-122331952D01*
X157401000Y-122236714D01*
X157448619Y-122189095D01*
X157543857Y-122141476D01*
X157781952Y-122141476D01*
X157877190Y-122189095D01*
X157924809Y-122236714D01*
X157972428Y-122331952D01*
X157972428Y-122522428D01*
X157924809Y-122617666D01*
X157877190Y-122665285D01*
X157781952Y-122712904D01*
X164004857Y-119183380D02*
X164338190Y-118707190D01*
X164576285Y-119183380D02*
X164576285Y-118183380D01*
X164195333Y-118183380D01*
X164100095Y-118231000D01*
X164052476Y-118278619D01*
X164004857Y-118373857D01*
X164004857Y-118516714D01*
X164052476Y-118611952D01*
X164100095Y-118659571D01*
X164195333Y-118707190D01*
X164576285Y-118707190D01*
X163623904Y-118278619D02*
X163576285Y-118231000D01*
X163481047Y-118183380D01*
X163242952Y-118183380D01*
X163147714Y-118231000D01*
X163100095Y-118278619D01*
X163052476Y-118373857D01*
X163052476Y-118469095D01*
X163100095Y-118611952D01*
X163671523Y-119183380D01*
X163052476Y-119183380D01*
X162433428Y-118183380D02*
X162338190Y-118183380D01*
X162242952Y-118231000D01*
X162195333Y-118278619D01*
X162147714Y-118373857D01*
X162100095Y-118564333D01*
X162100095Y-118802428D01*
X162147714Y-118992904D01*
X162195333Y-119088142D01*
X162242952Y-119135761D01*
X162338190Y-119183380D01*
X162433428Y-119183380D01*
X162528666Y-119135761D01*
X162576285Y-119088142D01*
X162623904Y-118992904D01*
X162671523Y-118802428D01*
X162671523Y-118564333D01*
X162623904Y-118373857D01*
X162576285Y-118278619D01*
X162528666Y-118231000D01*
X162433428Y-118183380D01*
X168230712Y-133381142D02*
X167754522Y-133047809D01*
X168230712Y-132809714D02*
X167230712Y-132809714D01*
X167230712Y-133190666D01*
X167278332Y-133285904D01*
X167325951Y-133333523D01*
X167421189Y-133381142D01*
X167564046Y-133381142D01*
X167659284Y-133333523D01*
X167706903Y-133285904D01*
X167754522Y-133190666D01*
X167754522Y-132809714D01*
X167325951Y-133762095D02*
X167278332Y-133809714D01*
X167230712Y-133904952D01*
X167230712Y-134143047D01*
X167278332Y-134238285D01*
X167325951Y-134285904D01*
X167421189Y-134333523D01*
X167516427Y-134333523D01*
X167659284Y-134285904D01*
X168230712Y-133714476D01*
X168230712Y-134333523D01*
X167325951Y-134714476D02*
X167278332Y-134762095D01*
X167230712Y-134857333D01*
X167230712Y-135095428D01*
X167278332Y-135190666D01*
X167325951Y-135238285D01*
X167421189Y-135285904D01*
X167516427Y-135285904D01*
X167659284Y-135238285D01*
X168230712Y-134666857D01*
X168230712Y-135285904D01*
X163306380Y-133381142D02*
X162830190Y-133047809D01*
X163306380Y-132809714D02*
X162306380Y-132809714D01*
X162306380Y-133190666D01*
X162354000Y-133285904D01*
X162401619Y-133333523D01*
X162496857Y-133381142D01*
X162639714Y-133381142D01*
X162734952Y-133333523D01*
X162782571Y-133285904D01*
X162830190Y-133190666D01*
X162830190Y-132809714D01*
X162401619Y-133762095D02*
X162354000Y-133809714D01*
X162306380Y-133904952D01*
X162306380Y-134143047D01*
X162354000Y-134238285D01*
X162401619Y-134285904D01*
X162496857Y-134333523D01*
X162592095Y-134333523D01*
X162734952Y-134285904D01*
X163306380Y-133714476D01*
X163306380Y-134333523D01*
X162306380Y-134666857D02*
X162306380Y-135285904D01*
X162687333Y-134952571D01*
X162687333Y-135095428D01*
X162734952Y-135190666D01*
X162782571Y-135238285D01*
X162877809Y-135285904D01*
X163115904Y-135285904D01*
X163211142Y-135238285D01*
X163258761Y-135190666D01*
X163306380Y-135095428D01*
X163306380Y-134809714D01*
X163258761Y-134714476D01*
X163211142Y-134666857D01*
X165705046Y-133381142D02*
X165228856Y-133047809D01*
X165705046Y-132809714D02*
X164705046Y-132809714D01*
X164705046Y-133190666D01*
X164752666Y-133285904D01*
X164800285Y-133333523D01*
X164895523Y-133381142D01*
X165038380Y-133381142D01*
X165133618Y-133333523D01*
X165181237Y-133285904D01*
X165228856Y-133190666D01*
X165228856Y-132809714D01*
X164800285Y-133762095D02*
X164752666Y-133809714D01*
X164705046Y-133904952D01*
X164705046Y-134143047D01*
X164752666Y-134238285D01*
X164800285Y-134285904D01*
X164895523Y-134333523D01*
X164990761Y-134333523D01*
X165133618Y-134285904D01*
X165705046Y-133714476D01*
X165705046Y-134333523D01*
X165038380Y-135190666D02*
X165705046Y-135190666D01*
X164657427Y-134952571D02*
X165371713Y-134714476D01*
X165371713Y-135333523D01*
X103866761Y-113478666D02*
X103914380Y-113621523D01*
X103914380Y-113859619D01*
X103866761Y-113954857D01*
X103819142Y-114002476D01*
X103723904Y-114050095D01*
X103628666Y-114050095D01*
X103533428Y-114002476D01*
X103485809Y-113954857D01*
X103438190Y-113859619D01*
X103390571Y-113669142D01*
X103342952Y-113573904D01*
X103295333Y-113526285D01*
X103200095Y-113478666D01*
X103104857Y-113478666D01*
X103009619Y-113526285D01*
X102962000Y-113573904D01*
X102914380Y-113669142D01*
X102914380Y-113907238D01*
X102962000Y-114050095D01*
X102914380Y-114383428D02*
X103914380Y-114621523D01*
X103200095Y-114812000D01*
X103914380Y-115002476D01*
X102914380Y-115240571D01*
X103914380Y-116145333D02*
X103914380Y-115573904D01*
X103914380Y-115859619D02*
X102914380Y-115859619D01*
X103057238Y-115764380D01*
X103152476Y-115669142D01*
X103200095Y-115573904D01*
X164631904Y-97535380D02*
X164631904Y-98344904D01*
X164584285Y-98440142D01*
X164536666Y-98487761D01*
X164441428Y-98535380D01*
X164250952Y-98535380D01*
X164155714Y-98487761D01*
X164108095Y-98440142D01*
X164060476Y-98344904D01*
X164060476Y-97535380D01*
X163060476Y-98535380D02*
X163631904Y-98535380D01*
X163346190Y-98535380D02*
X163346190Y-97535380D01*
X163441428Y-97678238D01*
X163536666Y-97773476D01*
X163631904Y-97821095D01*
X172212380Y-125515095D02*
X173021904Y-125515095D01*
X173117142Y-125562714D01*
X173164761Y-125610333D01*
X173212380Y-125705571D01*
X173212380Y-125896047D01*
X173164761Y-125991285D01*
X173117142Y-126038904D01*
X173021904Y-126086523D01*
X172212380Y-126086523D01*
X172212380Y-126467476D02*
X172212380Y-127086523D01*
X172593333Y-126753190D01*
X172593333Y-126896047D01*
X172640952Y-126991285D01*
X172688571Y-127038904D01*
X172783809Y-127086523D01*
X173021904Y-127086523D01*
X173117142Y-127038904D01*
X173164761Y-126991285D01*
X173212380Y-126896047D01*
X173212380Y-126610333D01*
X173164761Y-126515095D01*
X173117142Y-126467476D01*
X172497380Y-76869095D02*
X173306904Y-76869095D01*
X173402142Y-76916714D01*
X173449761Y-76964333D01*
X173497380Y-77059571D01*
X173497380Y-77250047D01*
X173449761Y-77345285D01*
X173402142Y-77392904D01*
X173306904Y-77440523D01*
X172497380Y-77440523D01*
X172592619Y-77869095D02*
X172545000Y-77916714D01*
X172497380Y-78011952D01*
X172497380Y-78250047D01*
X172545000Y-78345285D01*
X172592619Y-78392904D01*
X172687857Y-78440523D01*
X172783095Y-78440523D01*
X172925952Y-78392904D01*
X173497380Y-77821476D01*
X173497380Y-78440523D01*
M02*
