M48
; DRILL file {KiCad (5.1.5)-3} date 18/04/2020 23:18:56
; FORMAT={-:-/ absolute / metric / decimal}
; #@! TF.CreationDate,2020-04-18T23:18:56+01:00
; #@! TF.GenerationSoftware,Kicad,Pcbnew,(5.1.5)-3
FMAT,2
METRIC
T1C0.200
T2C0.300
T3C0.330
T4C0.400
T5C0.450
T6C0.900
T7C1.000
T8C1.500
T9C1.501
T10C2.700
T11C3.200
T12C4.300
%
G90
G05
T1
X167.95Y-122.833
X167.95Y-124.133
X168.95Y-122.833
X168.95Y-124.133
X169.95Y-122.833
X169.95Y-124.133
X175.445Y-76.981
X175.445Y-78.281
X176.445Y-76.981
X176.445Y-78.281
X177.445Y-76.981
X177.445Y-78.281
T2
X127.965Y-125.931
X148.665Y-89.431
X149.465Y-90.031
X150.165Y-85.931
X151.865Y-138.931
X151.865Y-143.931
X156.565Y-91.251
X157.805Y-138.772
X157.98Y-93.965
X157.985Y-97.911
X159.855Y-97.921
X161.165Y-118.831
X161.565Y-97.531
X161.565Y-103.331
X174.365Y-73.031
X179.365Y-127.531
X180.065Y-86.031
X180.265Y-130.031
X181.285Y-65.601
T3
X165.787Y-92.646
X165.787Y-94.146
X165.787Y-95.646
X167.287Y-92.646
X167.287Y-94.146
X167.287Y-95.646
T4
X151.365Y-73.631
X151.365Y-75.231
X151.865Y-74.431
X152.365Y-73.631
X152.365Y-75.231
X160.06Y-129.336
X162.424Y-124.631
X164.065Y-128.131
X164.265Y-76.631
X164.265Y-78.231
X164.765Y-77.431
X165.265Y-76.631
X165.265Y-78.231
X170.565Y-57.131
X170.565Y-58.131
X171.365Y-57.631
X172.165Y-57.131
X172.165Y-58.131
X172.665Y-128.831
X172.665Y-129.831
X173.265Y-86.731
X173.265Y-87.731
X173.465Y-129.331
X174.065Y-87.231
X174.265Y-128.831
X174.265Y-129.831
X174.865Y-86.731
X174.865Y-87.731
X175.065Y-94.331
X175.065Y-95.331
X175.865Y-94.831
X176.665Y-94.331
X176.665Y-95.331
X177.665Y-68.131
X177.665Y-72.931
X181.285Y-78.021
T6
X99.862Y-112.212
X99.862Y-114.212
X99.862Y-116.212
T7
X131.485Y-75.096
X131.485Y-77.636
X131.485Y-80.176
X131.485Y-82.716
X131.485Y-85.256
X131.485Y-87.796
X131.485Y-90.336
X131.485Y-92.876
X131.485Y-95.416
X131.485Y-97.956
X131.485Y-100.496
X131.485Y-103.036
X131.485Y-105.576
X131.485Y-108.116
X131.485Y-110.656
X131.485Y-113.196
X131.485Y-115.736
X131.485Y-118.276
X131.485Y-120.816
X131.485Y-123.356
X134.025Y-75.096
X134.025Y-77.636
X134.025Y-80.176
X134.025Y-82.716
X134.025Y-85.256
X134.025Y-87.796
X134.025Y-90.336
X134.025Y-92.876
X134.025Y-95.416
X134.025Y-97.956
X134.025Y-100.496
X134.025Y-103.036
X134.025Y-105.576
X134.025Y-108.116
X134.025Y-110.656
X134.025Y-113.196
X134.025Y-115.736
X134.025Y-118.276
X134.025Y-120.816
X134.025Y-123.356
X125.643Y-95.797
X125.643Y-98.337
X125.643Y-100.877
X125.643Y-103.417
X141.085Y-75.101
X141.085Y-77.641
X141.085Y-80.181
X141.085Y-82.721
X141.085Y-85.261
X141.085Y-87.801
X141.085Y-90.341
X141.085Y-92.881
X141.085Y-95.421
X141.085Y-97.961
X141.085Y-100.501
X141.085Y-103.041
X141.085Y-105.581
X141.085Y-108.121
X141.085Y-110.661
X141.085Y-113.201
X141.085Y-115.741
X141.085Y-118.281
X141.085Y-120.821
X141.085Y-123.361
X143.625Y-75.101
X143.625Y-77.641
X143.625Y-80.181
X143.625Y-82.721
X143.625Y-85.261
X143.625Y-87.801
X143.625Y-90.341
X143.625Y-92.881
X143.625Y-95.421
X143.625Y-97.961
X143.625Y-100.501
X143.625Y-103.041
X143.625Y-105.581
X143.625Y-108.121
X143.625Y-110.661
X143.625Y-113.201
X143.625Y-115.741
X143.625Y-118.281
X143.625Y-120.821
X143.625Y-123.361
T8
X99.862Y-110.112
X99.862Y-118.312
T9
X131.993Y-61.634
X131.993Y-66.714
X131.993Y-131.992
X131.993Y-137.072
T10
X191.365Y-128.231
X191.365Y-70.231
X142.365Y-128.231
X142.365Y-70.231
T11
X121.215Y-146.231
X121.215Y-52.231
X121.215Y-71.231
X121.265Y-128.231
T12
X191.365Y-81.731
X191.365Y-116.681
T5
G00X100.167Y-80.284
M15
G01X100.967Y-80.284
M16
G05
G00X100.967Y-87.434
M15
G01X100.167Y-87.434
M16
G05
T0
M30
