M48
; DRILL file {KiCad (5.1.5)-3} date 19/04/2020 21:12:54
; FORMAT={-:-/ absolute / inch / decimal}
; #@! TF.CreationDate,2020-04-19T21:12:54+01:00
; #@! TF.GenerationSoftware,Kicad,Pcbnew,(5.1.5)-3
FMAT,2
INCH
T1C0.0079
T2C0.0118
T3C0.0130
T4C0.0157
T5C0.0177
T6C0.0354
T7C0.0394
T8C0.0591
T9C0.0591
T10C0.1063
T11C0.1260
T12C0.1693
%
G90
G05
T1
X6.9073Y-3.0307
X6.9073Y-3.0819
X6.9467Y-3.0307
X6.9467Y-3.0819
X6.986Y-3.0307
X6.986Y-3.0819
X6.6122Y-4.8359
X6.6122Y-4.8871
X6.6516Y-4.8359
X6.6516Y-4.8871
X6.6909Y-4.8359
X6.6909Y-4.8871
T2
X5.038Y-4.9579
X5.6089Y-5.4973
X5.853Y-3.5209
X5.8844Y-3.5445
X5.912Y-3.3831
X5.9789Y-5.4855
X5.9789Y-5.6075
X6.2128Y-5.4634
X6.3016Y-5.092
X6.3451Y-4.6784
X6.3608Y-4.0681
X6.3608Y-3.8398
X6.3947Y-4.9067
X6.4593Y-5.0445
X6.5566Y-3.8763
X6.8648Y-2.8752
X6.9947Y-2.6823
X6.9947Y-2.8713
X7.0616Y-5.0209
X7.0955Y-5.1193
X7.1372Y-2.5827
X7.1372Y-3.0717
X7.2112Y-3.2296
T3
X6.527Y-3.6475
X6.527Y-3.7065
X6.527Y-3.7656
X6.5861Y-3.6475
X6.5861Y-3.7065
X6.5861Y-3.7656
T4
X5.9593Y-2.8989
X5.9593Y-2.9619
X5.9789Y-2.9304
X5.9986Y-2.8989
X5.9986Y-2.9619
X6.1636Y-3.5922
X6.2197Y-3.6975
X6.2199Y-3.8548
X6.2935Y-3.8552
X6.4671Y-3.017
X6.4671Y-3.08
X6.4868Y-3.0485
X6.5065Y-3.017
X6.5065Y-3.08
X6.7152Y-2.2493
X6.7152Y-2.2886
X6.7467Y-2.2689
X6.7781Y-2.2493
X6.7781Y-2.2886
X6.7978Y-5.0721
X6.7978Y-5.1115
X6.8215Y-3.4146
X6.8215Y-3.454
X6.8293Y-5.0918
X6.853Y-3.4343
X6.8608Y-5.0721
X6.8608Y-5.1115
X6.8844Y-3.4146
X6.8844Y-3.454
X6.8923Y-3.7138
X6.8923Y-3.7532
X6.9238Y-3.7335
X6.9553Y-3.7138
X6.9553Y-3.7532
T6
X3.9316Y-4.4178
X3.9316Y-4.4965
X3.9316Y-4.5753
T7
X4.9466Y-3.7715
X4.9466Y-3.8715
X4.9466Y-3.9715
X4.9466Y-4.0715
X5.1766Y-2.9565
X5.1766Y-3.0565
X5.1766Y-3.1565
X5.1766Y-3.2565
X5.1766Y-3.3565
X5.1766Y-3.4565
X5.1766Y-3.5565
X5.1766Y-3.6565
X5.1766Y-3.7565
X5.1766Y-3.8565
X5.1766Y-3.9565
X5.1766Y-4.0565
X5.1766Y-4.1565
X5.1766Y-4.2565
X5.1766Y-4.3565
X5.1766Y-4.4565
X5.1766Y-4.5565
X5.1766Y-4.6565
X5.1766Y-4.7565
X5.1766Y-4.8565
X5.2766Y-2.9565
X5.2766Y-3.0565
X5.2766Y-3.1565
X5.2766Y-3.2565
X5.2766Y-3.3565
X5.2766Y-3.4565
X5.2766Y-3.5565
X5.2766Y-3.6565
X5.2766Y-3.7565
X5.2766Y-3.8565
X5.2766Y-3.9565
X5.2766Y-4.0565
X5.2766Y-4.1565
X5.2766Y-4.2565
X5.2766Y-4.3565
X5.2766Y-4.4565
X5.2766Y-4.5565
X5.2766Y-4.6565
X5.2766Y-4.7565
X5.2766Y-4.8565
X5.5545Y-2.9567
X5.5545Y-3.0567
X5.5545Y-3.1567
X5.5545Y-3.2567
X5.5545Y-3.3567
X5.5545Y-3.4567
X5.5545Y-3.5567
X5.5545Y-3.6567
X5.5545Y-3.7567
X5.5545Y-3.8567
X5.5545Y-3.9567
X5.5545Y-4.0567
X5.5545Y-4.1567
X5.5545Y-4.2567
X5.5545Y-4.3567
X5.5545Y-4.4567
X5.5545Y-4.5567
X5.5545Y-4.6567
X5.5545Y-4.7567
X5.5545Y-4.8567
X5.6545Y-2.9567
X5.6545Y-3.0567
X5.6545Y-3.1567
X5.6545Y-3.2567
X5.6545Y-3.3567
X5.6545Y-3.4567
X5.6545Y-3.5567
X5.6545Y-3.6567
X5.6545Y-3.7567
X5.6545Y-3.8567
X5.6545Y-3.9567
X5.6545Y-4.0567
X5.6545Y-4.1567
X5.6545Y-4.2567
X5.6545Y-4.3567
X5.6545Y-4.4567
X5.6545Y-4.5567
X5.6545Y-4.6567
X5.6545Y-4.7567
X5.6545Y-4.8567
T8
X3.9316Y-4.3351
X3.9316Y-4.658
T9
X5.1966Y-2.4265
X5.1966Y-2.6265
X5.1966Y-5.1965
X5.1966Y-5.3965
T10
X7.5341Y-5.0485
X5.6049Y-2.765
X7.5341Y-2.765
X5.6049Y-5.0485
T11
X4.7742Y-5.0485
X4.7722Y-5.7571
X4.7722Y-2.765
X4.7722Y-2.0563
T12
X7.5341Y-4.5937
X7.5341Y-3.2178
T5
G00X3.9436Y-3.1608
M15
G01X3.9751Y-3.1608
M16
G05
G00X3.9751Y-3.4423
M15
G01X3.9436Y-3.4423
M16
G05
T0
M30
